<svg width="296" height="200" viewBox="0 0 296 200" fill="none" xmlns="http://www.w3.org/2000/svg">
<path d="M70.9505 57.5035V65.1213H55.6688V103.384H46.0632V65.1431H30.5632V57.5253L70.9505 57.5035Z" fill="white"/>
<path d="M133.594 103.384L150.317 57.558H161.876L178.588 103.384H168.568L158.11 72.1406L156.026 65.1975H155.884L153.908 71.9447L143.331 103.189H133.573L133.594 103.384Z" fill="white"/>
<path d="M238.077 57.5035V103.384H229.443V79.4428L229.858 66.1117H229.716L216.901 103.472H209.097L196.478 66.1117H196.337L196.708 79.4428V103.384H187.975V57.5035H201.903L210.254 82.5335L213.179 92.9481H213.321L216.246 82.6749L224.466 57.645H238.121L238.077 57.5035Z" fill="white"/>
<path d="M55.8654 156.807H80.0977V164.425H46.2598V118.62H55.8763V156.818L55.8654 156.807Z" fill="white"/>
<path d="M107.124 117.913C111.249 117.827 115.327 118.785 118.979 120.699C122.295 122.602 124.957 125.458 126.62 128.893C128.502 132.833 129.412 137.166 129.272 141.528C129.412 145.89 128.502 150.222 126.62 154.163C124.917 157.571 122.264 160.416 118.979 162.357C115.355 164.333 111.263 165.295 107.135 165.143C103.015 165.226 98.9408 164.267 95.2921 162.357C91.9729 160.459 89.3088 157.601 87.6513 154.163C85.7686 150.222 84.8591 145.89 84.9988 141.528C84.8591 137.166 85.7686 132.833 87.6513 128.893C89.345 125.479 92.0003 122.631 95.2921 120.699C98.9376 118.79 103.008 117.832 107.124 117.913ZM107.124 125.835C104.807 125.753 102.521 126.384 100.575 127.642C98.689 128.948 97.237 130.786 96.4055 132.92C95.3713 135.669 94.882 138.593 94.9647 141.528C94.8763 144.478 95.3657 147.416 96.4055 150.18C97.1976 152.336 98.6581 154.185 100.575 155.458C102.554 156.64 104.818 157.265 107.124 157.265C109.431 157.265 111.695 156.64 113.674 155.458C115.579 154.161 117.047 152.321 117.887 150.18C118.901 147.426 119.375 144.504 119.284 141.571C119.375 138.639 118.901 135.717 117.887 132.963C117.095 130.804 115.63 128.954 113.707 127.685C111.758 126.404 109.458 125.758 107.124 125.835Z" fill="white"/>
<path d="M133.594 164.447L150.317 118.62H161.876L178.73 164.457H168.699L158.111 133.203L156.026 126.238H155.884L153.908 133.05L143.353 164.327H133.594V164.447Z" fill="white"/>
<path d="M237.521 118.62V164.457H226.518L196.566 130.014H196.478L196.762 164.457H188.117V118.62H199.12L229.072 153.063H229.214L228.887 118.62H237.521Z" fill="white"/>
<path d="M80.9382 103.384V57.5035H123.847V65.1213H90.6857V76.5263H114.929V83.8938H90.5984V95.5599H124.72V103.178H80.9382V103.384Z" fill="white"/>
<path d="M237.521 200H0V57.6341H4.18062V195.832H237.521V200Z" fill="white"/>
<path d="M276.522 161.106H272.341V22.9187H39.001V18.7507H276.522V161.106Z" fill="white"/>
<path d="M295.329 74.7198H291.148V4.16803H171.351V0H295.329V74.7198Z" fill="white"/>
</svg>
