<svg width="288" height="107" viewBox="0 0 288 107" fill="none" xmlns="http://www.w3.org/2000/svg">
<path d="M288 0H0V107H288V0Z" fill="#EB5766"/>
<path d="M65.864 54.8988C65.136 54.8988 64.4506 54.6153 63.936 54.0963C63.4213 53.58 63.136 52.8926 63.136 52.1623C63.136 51.432 63.4187 50.7446 63.936 50.2283C64.4506 49.712 65.136 49.4258 65.864 49.4258C66.592 49.4258 67.2773 49.7093 67.792 50.2283C68.3066 50.7446 68.592 51.432 68.592 52.1623C68.592 52.8926 68.3093 53.58 67.792 54.0963C67.2773 54.6126 66.5946 54.8988 65.864 54.8988ZM65.864 51.2501C65.6213 51.2501 65.392 51.3438 65.2213 51.5176C65.0506 51.6888 64.9546 51.9189 64.9546 52.1623C64.9546 52.4057 65.048 52.6358 65.2213 52.807C65.392 52.9782 65.6213 53.0745 65.864 53.0745C66.1066 53.0745 66.336 52.9808 66.5066 52.807C66.6773 52.6358 66.7733 52.4057 66.7733 52.1623C66.7733 51.9189 66.68 51.6888 66.5066 51.5176C66.3333 51.3464 66.1093 51.2501 65.864 51.2501Z" fill="white"/>
<path d="M71.6506 49.0942C70.9519 49.0942 70.2532 48.8267 69.7226 48.2943C68.6586 47.227 68.6586 45.4909 69.7226 44.4263C70.2372 43.91 70.9226 43.6238 71.6506 43.6238C72.3786 43.6238 73.0639 43.9073 73.5786 44.4263C74.0932 44.9426 74.3786 45.63 74.3786 46.3603C74.3786 47.0906 74.0959 47.7781 73.5786 48.2943C73.0479 48.8267 72.3492 49.0942 71.6506 49.0942ZM71.6506 45.4481C71.4079 45.4481 71.1786 45.5418 71.0079 45.7156C70.6532 46.0714 70.6532 46.6492 71.0079 47.005C71.3626 47.3608 71.9386 47.3608 72.2932 47.005C72.4639 46.8338 72.5599 46.6037 72.5599 46.3603C72.5599 46.1169 72.4666 45.8868 72.2932 45.7156C72.1226 45.5418 71.8932 45.4481 71.6506 45.4481Z" fill="white"/>
<path d="M60.0801 60.701C59.3521 60.701 58.6667 60.4175 58.1521 59.8986C57.6374 59.3823 57.3521 58.6948 57.3521 57.9645C57.3521 57.2343 57.6347 56.5468 58.1521 56.0305C58.6667 55.5143 59.3521 55.228 60.0801 55.228C60.8081 55.228 61.4934 55.5116 62.0081 56.0305C62.5227 56.5468 62.8081 57.2343 62.8081 57.9645C62.8081 58.6948 62.5254 59.3823 62.0081 59.8986C61.4934 60.4175 60.8081 60.701 60.0801 60.701ZM60.0801 57.055C59.8374 57.055 59.6081 57.1487 59.4374 57.3225C59.2667 57.4937 59.1707 57.7238 59.1707 57.9672C59.1707 58.2106 59.264 58.4407 59.4374 58.6119C59.6081 58.7831 59.8374 58.8794 60.0801 58.8794C60.3227 58.8794 60.5521 58.7858 60.7227 58.6119C60.8934 58.4407 60.9894 58.2106 60.9894 57.9672C60.9894 57.7238 60.8961 57.4937 60.7227 57.3225C60.5521 57.1487 60.3227 57.055 60.0801 57.055Z" fill="white"/>
<path d="M71.6506 60.701C70.9226 60.701 70.2372 60.4175 69.7226 59.8986C68.6586 58.8312 68.6586 57.0952 69.7226 56.0305C70.2372 55.5143 70.9226 55.228 71.6506 55.228C72.3786 55.228 73.0639 55.5116 73.5786 56.0305C74.0932 56.5468 74.3786 57.2343 74.3786 57.9645C74.3786 58.6948 74.0959 59.3823 73.5786 59.8986C73.0639 60.4175 72.3786 60.701 71.6506 60.701ZM71.0079 58.6119C71.1786 58.7831 71.4079 58.8794 71.6506 58.8794C71.8932 58.8794 72.1226 58.7858 72.2932 58.6119C72.4639 58.4407 72.5599 58.2106 72.5599 57.9672C72.5599 57.7238 72.4666 57.4937 72.2932 57.3225C72.1226 57.1513 71.8932 57.055 71.6506 57.055C71.4079 57.055 71.1786 57.1487 71.0079 57.3225C70.6532 57.6756 70.6532 58.2561 71.0079 58.6119Z" fill="white"/>
<path d="M60.0801 49.0942C59.3814 49.0942 58.6827 48.8267 58.1521 48.2943C57.6374 47.7781 57.3521 47.0906 57.3521 46.3603C57.3521 45.63 57.6347 44.9426 58.1521 44.4263C58.6667 43.91 59.3521 43.6238 60.0801 43.6238C60.8081 43.6238 61.4934 43.9073 62.0081 44.4263C62.5227 44.9426 62.8081 45.63 62.8081 46.3603C62.8081 47.0906 62.5254 47.7781 62.0081 48.2943C61.4774 48.8267 60.7787 49.0942 60.0801 49.0942ZM59.4374 47.005C59.7921 47.3608 60.3681 47.3608 60.7227 47.005C60.8934 46.8338 60.9894 46.6037 60.9894 46.3603C60.9894 46.1169 60.8961 45.8868 60.7227 45.7156C60.5521 45.5444 60.3227 45.4481 60.0801 45.4481C59.8374 45.4481 59.6081 45.5418 59.4374 45.7156C59.2667 45.8868 59.1707 46.1169 59.1707 46.3603C59.1707 46.6037 59.264 46.8311 59.4374 47.005Z" fill="white"/>
<path d="M65.8638 44.8677C65.3785 44.8677 64.9225 44.6778 64.5785 44.3327C64.2345 43.9876 64.0452 43.5302 64.0452 43.0433C64.0452 42.0375 64.8612 41.219 65.8638 41.219C66.8665 41.219 67.6825 42.0375 67.6825 43.0433C67.6825 44.0491 66.8665 44.8677 65.8638 44.8677ZM65.8638 43.0407C65.8638 43.0433 65.8638 43.0407 65.8638 43.0407V43.0407Z" fill="#1B1D1C"/>
<path d="M65.8638 63.0149C64.8612 63.0149 64.0452 62.1964 64.0452 61.1906C64.0452 60.1848 64.8612 59.3662 65.8638 59.3662C66.8665 59.3662 67.6825 60.1848 67.6825 61.1906C67.6825 62.1964 66.8665 63.0149 65.8638 63.0149ZM65.8638 61.1879C65.8638 61.1906 65.8638 61.1879 65.8638 61.1879V61.1879Z" fill="#1B1D1C"/>
<path d="M74.8638 53.9868C73.8612 53.9868 73.0452 53.1683 73.0452 52.1625C73.0452 51.1567 73.8612 50.3381 74.8638 50.3381C75.8665 50.3381 76.6825 51.1567 76.6825 52.1625C76.6825 53.1683 75.8665 53.9868 74.8638 53.9868Z" fill="#1B1D1C"/>
<path d="M56.8665 53.9868C55.8639 53.9868 55.0479 53.1683 55.0479 52.1625C55.0479 51.1567 55.8639 50.3381 56.8665 50.3381C57.8692 50.3381 58.6852 51.1567 58.6852 52.1625C58.6852 53.1683 57.8692 53.9868 56.8665 53.9868Z" fill="#1B1D1C"/>
<path d="M79.5014 51.2504H80.3814C80.2987 49.9075 80.0374 48.6021 79.6054 47.3582L78.7867 47.7033L78.0827 46.0208L78.9014 45.6757C78.3387 44.5415 77.6267 43.4768 76.7734 42.5085L76.152 43.1318L74.8667 41.8424L75.488 41.2191C74.4854 40.3284 73.3787 39.5901 72.1947 39.0176L71.8587 39.8415L70.176 39.1514L70.512 38.3275C69.3147 37.9235 68.0614 37.6774 66.776 37.5999V38.4826H64.9574V37.5999C63.6187 37.6828 62.3174 37.9449 61.0774 38.3783L61.4214 39.1995L59.744 39.9057L59.4 39.0845C58.2694 39.6489 57.208 40.3631 56.2454 41.2191L56.8667 41.8424L55.5814 43.1318L54.96 42.5085C54.072 43.5143 53.336 44.6244 52.7654 45.8121L53.5867 46.1492L52.8987 47.8371L52.0774 47.5C51.6747 48.7011 51.4294 49.9584 51.3521 51.2477H52.232V53.072H51.3521C51.4347 54.4149 51.696 55.7203 52.128 56.9642L52.9467 56.6191L53.6507 58.3017L52.832 58.6467C53.3947 59.7809 54.1067 60.8456 54.96 61.8139L55.5814 61.1907L56.8667 62.48L56.2454 63.1033C57.248 63.9941 58.3547 64.7324 59.5387 65.3048L59.8747 64.4809L61.5574 65.1711L61.2214 65.995C62.4187 66.3989 63.672 66.645 64.9574 66.7226V65.8398H66.776V66.7226C68.1147 66.6396 69.416 66.3775 70.656 65.9441L70.312 65.1229L71.9894 64.4167L72.3334 65.2379C73.464 64.6735 74.5254 63.9593 75.4907 63.1033L74.8694 62.48L76.1547 61.1907L76.776 61.8139C77.664 60.8081 78.4 59.698 78.9707 58.5103L78.1494 58.1733L78.8374 56.4853L79.6587 56.8224C80.0614 55.6213 80.3067 54.3641 80.384 53.0747H79.504V51.2504H79.5014ZM74.864 61.1907C72.4614 63.6008 69.264 64.9303 65.864 64.9303C62.464 64.9303 59.2694 63.6035 56.864 61.1907C54.4614 58.7805 53.136 55.5732 53.136 52.1625C53.136 48.7519 54.4587 45.5473 56.864 43.1344C59.2667 40.7243 62.464 39.3948 65.864 39.3948C69.264 39.3948 72.4587 40.7216 74.864 43.1344C77.2667 45.5446 78.592 48.7519 78.592 52.1625C78.592 55.5732 77.2694 58.7778 74.864 61.1907Z" fill="white"/>
<path d="M78.0828 46.0207L78.7894 47.7032L79.6054 47.3582L80.4641 46.997L80.8161 47.837L82.4934 47.1308L81.0854 43.7683L79.4081 44.4745L79.7601 45.3145L78.9014 45.6756L78.0828 46.0207Z" fill="white"/>
<path d="M52.3227 59.8503L51.9706 59.0103L52.8293 58.6492L53.6453 58.3041L52.9413 56.6215L52.1253 56.9666L51.2666 57.3277L50.9146 56.4878L49.2373 57.194L50.6453 60.5565L52.3227 59.8503Z" fill="white"/>
<path d="M72.6907 66.1018L72.3307 65.2404L71.9867 64.4192L70.312 65.1254L70.656 65.9466L71.016 66.808L70.1787 67.1611L70.8827 68.841L74.2347 67.4286L73.5307 65.746L72.6907 66.1018Z" fill="white"/>
<path d="M59.0401 38.2228L59.4001 39.0842L59.7441 39.9054L61.4188 39.1992L61.0748 38.378L60.7148 37.5166L61.5521 37.1635L60.8481 35.4836L57.4961 36.896L58.2001 38.5786L59.0401 38.2228Z" fill="white"/>
<path d="M80.5174 57.1754L79.6561 56.8223L78.8347 56.4879L78.1467 58.1758L78.9681 58.5129L79.8294 58.866L79.4881 59.7086L81.1707 60.3988L82.5441 57.0202L80.8614 56.3328L80.5174 57.1754Z" fill="white"/>
<path d="M50.5601 43.926L49.1868 47.3045L50.8694 47.992L51.2134 47.1494L52.0748 47.5025L52.8961 47.8369L53.5841 46.1489L52.7628 45.8119L51.9014 45.4588L52.2428 44.6162L50.5601 43.926Z" fill="white"/>
<path d="M61.2187 65.9948L61.5547 65.1709L59.872 64.4834L59.536 65.3073L59.184 66.1713L58.3413 65.8262L57.656 67.5142L61.0213 68.8945L61.7093 67.2039L60.8667 66.8615L61.2187 65.9948Z" fill="white"/>
<path d="M70.1759 39.1538L71.8586 39.8413L72.1946 39.0174L72.5466 38.1533L73.3892 38.4984L74.0746 36.8105L70.7092 35.4302L70.0212 37.1208L70.8639 37.4632L70.5119 38.3299L70.1759 39.1538Z" fill="white"/>
<path d="M76.7733 42.5109L79.3653 39.9108L80.6507 41.2001L81.936 39.9108L78.08 36.0427L76.792 37.3321L78.08 38.6214L75.488 41.2215L74.864 41.8448L76.1493 43.1341L76.7733 42.5109Z" fill="white"/>
<path d="M54.9574 61.8137L52.3653 64.4138L51.08 63.1245L49.7947 64.4138L53.6507 68.2818L54.936 66.9925L53.6507 65.7031L56.2427 63.103L56.8667 62.4798L55.5814 61.1904L54.9574 61.8137Z" fill="white"/>
<path d="M79.3653 64.4138L76.7733 61.8137L76.1493 61.1904L74.864 62.4798L75.488 63.103L78.08 65.7031L76.792 66.9925L78.08 68.2818L81.936 64.4138L80.6507 63.1245L79.3653 64.4138Z" fill="white"/>
<path d="M53.6507 38.6214L54.936 37.3321L53.6507 36.0427L49.7947 39.9108L51.08 41.2001L52.3653 39.9108L54.9574 42.5109L55.5814 43.1341L56.8667 41.8448L56.2427 41.2215L53.6507 38.6214Z" fill="white"/>
<path d="M84.0479 49.4258V51.2501H80.3812H79.5012V53.0745H80.3812H84.0479V54.8988H85.8639V49.4258H84.0479Z" fill="white"/>
<path d="M52.2293 53.0745V51.2501H51.3493H47.6827V49.4258H45.864V54.8988H47.6827V53.0745H51.3493H52.2293Z" fill="white"/>
<path d="M66.7733 66.725V65.8423H64.9573V66.725V70.4005H63.1387V72.2248H68.592V70.4005H66.7733V66.725Z" fill="white"/>
<path d="M63.1387 33.9242H64.9573V37.5997V38.4824H66.7733V37.5997V33.9242H68.592V32.0999H63.1387V33.9242Z" fill="white"/>
<path d="M23.1973 54.4175V50.0171H29.2293C30.3973 50.0171 31.3599 49.9181 32.1093 49.7175C32.8559 49.5169 33.4319 49.1932 33.8373 48.7519C34.2399 48.3132 34.5013 47.7434 34.6319 47.0506C34.7599 46.3524 34.7893 45.5071 34.7146 44.5173L34.1653 35.4437C34.0906 34.0099 34.2746 32.7313 34.7146 31.5944C35.1546 30.4575 35.8106 29.4892 36.6906 28.7054C37.5679 27.9163 38.6533 27.3224 39.9519 26.9158C41.2479 26.5119 42.7039 26.3113 44.3119 26.3113H46.7786V30.7117H44.3119C42.5546 30.7117 41.2293 31.1049 40.3359 31.894C39.4399 32.6831 39.0293 33.8682 39.1013 35.4437L39.6506 44.5173C39.7226 45.5071 39.6293 46.4513 39.3759 47.3501C39.1199 48.2489 38.7253 49.0381 38.1946 49.7175C37.6666 50.3943 36.9973 50.9346 36.1919 51.3386C35.3893 51.7425 34.4373 51.9619 33.3413 51.9966V52.2748C34.4373 52.3096 35.3973 52.5396 36.2186 52.9596C37.0399 53.3849 37.7066 53.944 38.2213 54.6395C38.7333 55.3377 39.1173 56.1429 39.3733 57.0604C39.6266 57.9779 39.7199 58.9329 39.6479 59.92L39.0986 68.8866C39.0239 70.4621 39.4346 71.6445 40.3333 72.4309C41.2293 73.2227 42.5546 73.616 44.3093 73.616H46.7759V78.0163H44.3093C42.7013 78.0163 41.2453 77.8157 39.9493 77.4118C38.6506 77.0052 37.5626 76.4087 36.6879 75.6222C35.8079 74.8331 35.1519 73.8728 34.7119 72.7359C34.2719 71.599 34.0906 70.315 34.1626 68.8866L34.7119 59.92C34.7866 58.9302 34.7573 58.0849 34.6293 57.3894C34.4986 56.6912 34.2373 56.1215 33.8346 55.6828C33.4319 55.2387 32.8639 54.9204 32.1333 54.7198C31.4026 54.5191 30.4319 54.4148 29.2266 54.4148H23.1973V54.4175Z" fill="#1B1D1C"/>
<path d="M84.9492 78.019V73.616H87.4159C89.1706 73.616 90.4959 73.2227 91.3919 72.4309C92.2879 71.6418 92.6986 70.4621 92.6266 68.8866L92.0772 59.8665C92.0399 58.8714 92.1386 57.9324 92.3786 57.0336C92.6159 56.1348 92.9999 55.3457 93.5306 54.6663C94.0585 53.9895 94.7279 53.4491 95.5332 53.0452C96.3359 52.6413 97.2906 52.4219 98.3839 52.3818V52.109C97.2879 52.0742 96.3252 51.8441 95.5066 51.4188C94.6826 50.9988 94.0159 50.4371 93.5039 49.7443C92.9919 49.0461 92.6159 48.2409 92.3786 47.3234C92.1386 46.4059 92.0399 45.4509 92.0772 44.4638L92.6266 35.4437C92.6986 33.8681 92.2879 32.6804 91.3919 31.894C90.4959 31.1049 89.1706 30.7116 87.4159 30.7116H84.9492V26.3059H87.4159C89.0239 26.3059 90.4772 26.5065 91.7759 26.9105C93.0719 27.3144 94.1626 27.9109 95.0372 28.7C95.9146 29.4865 96.5732 30.4522 97.0132 31.589C97.4505 32.7259 97.6346 34.0072 97.5599 35.4384L97.0132 44.4585C96.9759 45.4482 97.0132 46.2935 97.1226 46.989C97.2319 47.6872 97.4852 48.257 97.8906 48.6957C98.2932 49.1344 98.8586 49.458 99.5919 49.6587C100.323 49.8593 101.293 49.9636 102.496 49.9636H108.531V54.364H102.496C101.328 54.364 100.368 54.463 99.6186 54.6636C98.8692 54.8696 98.2932 55.1879 97.8906 55.6266C97.4879 56.0706 97.2319 56.6377 97.1226 57.3332C97.0132 58.0314 96.9759 58.874 97.0132 59.8665L97.5599 68.8866C97.6346 70.315 97.4505 71.599 97.0132 72.7359C96.5732 73.8728 95.9146 74.8358 95.0372 75.6222C94.1599 76.4087 93.0719 77.0052 91.7759 77.4118C90.4772 77.8157 89.0239 78.0163 87.4159 78.0163H84.9492V78.019Z" fill="#1B1D1C"/>
<path d="M119.576 53.9333H121.387L121.965 50.5628H120.211V48.6903H122.283L122.843 45.5071H124.803L124.243 48.6903H126.576L127.136 45.5071H129.096L128.536 48.6903H130.029V50.5628H128.219L127.64 53.9333H129.376V55.8058H127.323L126.763 58.9891H124.803L125.363 55.8058H123.029L122.469 58.9891H120.509L121.069 55.8058H119.576V53.9333ZM123.347 53.9333H125.68L126.259 50.5628H123.925L123.347 53.9333Z" fill="white"/>
<path d="M131.056 48.6903H133.763V45.5071H136.563V48.6903H140.389V51.2182H136.563V55.4313C136.563 55.755 136.653 56.0091 136.835 56.1884C137.016 56.3703 137.267 56.4585 137.589 56.4585H140.203V58.9864H137.309C136.203 58.9864 135.333 58.6708 134.707 58.0395C134.077 57.4082 133.763 56.5388 133.763 55.4287V51.2155H131.056V48.6903Z" fill="white"/>
<path d="M142.499 52.6037C142.499 51.9804 142.611 51.4187 142.835 50.9185C143.059 50.4182 143.376 49.9876 143.787 49.6264C144.197 49.2653 144.691 48.9871 145.269 48.7918C145.848 48.5992 146.491 48.5029 147.203 48.5029C147.899 48.5029 148.533 48.6019 149.107 48.8025C149.68 49.0032 150.171 49.284 150.581 49.6452C150.992 50.0063 151.309 50.4423 151.533 50.9479C151.757 51.4535 151.869 52.0125 151.869 52.6251V54.4976H145.261V55.0594C145.261 55.6826 145.429 56.1668 145.765 56.5092C146.101 56.8516 146.581 57.0228 147.203 57.0228C147.664 57.0228 148.056 56.9479 148.379 56.7981C148.701 56.6483 148.92 56.4423 149.032 56.1802H151.776C151.664 56.6296 151.469 57.0389 151.187 57.4053C150.907 57.7745 150.568 58.0875 150.171 58.3523C149.773 58.6144 149.32 58.8177 148.819 58.9595C148.315 59.104 147.776 59.1762 147.203 59.1762C146.493 59.1762 145.848 59.0772 145.269 58.8766C144.691 58.676 144.195 58.3978 143.787 58.042C143.376 57.6862 143.059 57.2529 142.835 56.7393C142.611 56.2283 142.499 55.6666 142.499 55.054V52.6037ZM145.261 52.8097H149.163V52.6224C149.163 51.9992 148.992 51.515 148.648 51.1699C148.307 50.8275 147.824 50.6563 147.203 50.6563C146.592 50.6563 146.117 50.8275 145.776 51.1699C145.432 51.5123 145.261 51.9911 145.261 52.601V52.8097Z" fill="white"/>
<path d="M158.496 59.1788C157.787 59.1788 157.141 59.0852 156.563 58.898C155.984 58.7107 155.488 58.4432 155.08 58.0928C154.669 57.7424 154.352 57.3224 154.128 56.8302C153.904 56.338 153.792 55.7843 153.792 55.1717V52.5315C153.792 51.9189 153.904 51.3679 154.128 50.873C154.352 50.3808 154.669 49.9581 155.08 49.6104C155.491 49.26 155.984 48.9898 156.563 48.7945C157.141 48.6019 157.784 48.5056 158.496 48.5056C159.117 48.5056 159.696 48.5939 160.232 48.7678C160.768 48.9416 161.24 49.1931 161.651 49.5168C162.061 49.8404 162.403 50.2337 162.677 50.6964C162.952 51.1592 163.139 51.6755 163.237 52.2506H160.437C160.349 51.852 160.133 51.5337 159.784 51.2956C159.435 51.0576 159.005 50.9399 158.496 50.9399C157.899 50.9399 157.432 51.079 157.096 51.3625C156.76 51.6434 156.592 52.0339 156.592 52.5342V55.1744C156.592 55.6746 156.76 56.0598 157.096 56.3353C157.432 56.6109 157.899 56.7473 158.496 56.7473C158.995 56.7473 159.416 56.6242 159.765 56.3808C160.115 56.1374 160.339 55.8164 160.437 55.4178H163.237C163.136 55.9929 162.952 56.5092 162.677 56.972C162.403 57.4348 162.061 57.8306 161.651 58.1623C161.24 58.494 160.768 58.7455 160.232 58.9194C159.699 59.0906 159.12 59.1788 158.496 59.1788Z" fill="white"/>
<path d="M165.141 45.5071H167.941V48.6903C167.941 48.8776 167.931 49.0782 167.915 49.2895C167.896 49.5009 167.875 49.6961 167.848 49.87C167.824 50.0439 167.797 50.2445 167.773 50.4692H167.979C168.067 49.8459 168.339 49.3618 168.8 49.0194C169.261 48.677 169.864 48.5031 170.611 48.5031C171.656 48.5031 172.48 48.8455 173.085 49.533C173.688 50.2204 173.992 51.1567 173.992 52.3417V58.9891H171.192V52.6226C171.192 52.0983 171.045 51.6863 170.752 51.3867C170.459 51.0871 170.064 50.9373 169.565 50.9373C169.067 50.9373 168.672 51.0871 168.381 51.3867C168.088 51.6863 167.941 52.0983 167.941 52.6226V58.9891H165.141V45.5071Z" fill="white"/>
<path d="M181.437 45.5071H184.611L178.749 53.3529V54.0457H182.296V51.3118H185.096V58.9891H182.296V56.4799H176.136V52.5664L181.437 45.5071Z" fill="white"/>
<path d="M192.077 59.179C191.368 59.179 190.728 59.08 190.155 58.8794C189.581 58.6788 189.091 58.3952 188.68 58.0261C188.269 57.6569 187.952 57.2156 187.728 56.6966C187.504 56.1777 187.392 55.6025 187.392 54.9659V49.5356C187.392 48.899 187.504 48.3212 187.728 47.8022C187.952 47.2833 188.269 46.8419 188.68 46.4727C189.091 46.1036 189.584 45.82 190.163 45.6194C190.741 45.4188 191.387 45.3198 192.096 45.3198C192.792 45.3198 193.427 45.4188 194 45.6194C194.573 45.82 195.064 46.1036 195.475 46.4727C195.885 46.8419 196.203 47.2833 196.427 47.8022C196.651 48.3212 196.763 48.899 196.763 49.5356H193.963C193.963 49.0113 193.795 48.5994 193.459 48.2998C193.123 48.0002 192.669 47.8504 192.096 47.8504C191.509 47.8504 191.048 48.0002 190.704 48.2998C190.363 48.5994 190.192 49.0113 190.192 49.5356V54.9659C190.192 55.4902 190.357 55.9021 190.688 56.2017C191.019 56.5013 191.48 56.6511 192.077 56.6511C192.661 56.6511 193.123 56.496 193.459 56.183C193.795 55.87 193.963 55.4661 193.963 54.9659H196.763C196.763 55.6025 196.651 56.1803 196.427 56.6966C196.203 57.2156 195.885 57.6569 195.475 58.0261C195.064 58.3952 194.573 58.6788 194 58.8794C193.427 59.0774 192.787 59.179 192.077 59.179Z" fill="white"/>
<path d="M203.203 59.179C202.493 59.179 201.851 59.08 201.272 58.8794C200.693 58.6788 200.197 58.3952 199.787 58.0261C199.376 57.6569 199.059 57.2155 198.835 56.6966C198.611 56.1776 198.499 55.6025 198.499 54.9659V49.5142C198.499 48.8776 198.611 48.3024 198.835 47.7915C199.059 47.2806 199.376 46.8392 199.787 46.4701C200.197 46.1009 200.693 45.8174 201.272 45.6167C201.851 45.4161 202.493 45.3171 203.203 45.3171C203.912 45.3171 204.557 45.4161 205.136 45.6167C205.715 45.8174 206.208 46.1009 206.619 46.4701C207.029 46.8392 207.347 47.2779 207.571 47.7915C207.795 48.3024 207.907 48.8776 207.907 49.5142V54.9632C207.907 55.5865 207.792 56.1589 207.563 56.6752C207.333 57.1941 207.011 57.6355 206.6 58.0047C206.189 58.3738 205.696 58.66 205.117 58.866C204.539 59.0747 203.899 59.179 203.203 59.179ZM201.299 54.9659C201.299 55.5035 201.469 55.9289 201.811 56.2472C202.152 56.5655 202.616 56.7233 203.2 56.7233C203.784 56.7233 204.248 56.5655 204.589 56.2472C204.931 55.9289 205.104 55.5009 205.104 54.9659V49.5142C205.104 48.9765 204.933 48.5512 204.589 48.2329C204.245 47.9146 203.784 47.7541 203.2 47.7541C202.616 47.7541 202.152 47.9146 201.811 48.2329C201.469 48.5512 201.299 48.9792 201.299 49.5142V54.9659Z" fill="white"/>
<path d="M208.989 45.5071H211.827L214.085 55.2254C214.136 55.4126 214.176 55.6159 214.208 55.8353C214.24 56.0546 214.267 56.2552 214.291 56.4425C214.315 56.6672 214.341 56.8919 214.365 57.1166H214.477C214.501 56.8919 214.533 56.6672 214.571 56.4425C214.595 56.2552 214.627 56.0519 214.664 55.8353C214.701 55.6159 214.739 55.4126 214.776 55.2254L216.997 45.5071H219.816L216.232 58.9891H212.499L208.989 45.5071Z" fill="white"/>
<path d="M221.403 47.944V45.5098H229.803V47.944H227.003V56.5575H229.803V58.9918H221.403V56.5575H224.203V47.944H221.403Z" fill="white"/>
<path d="M232.379 45.5071H236.803C237.512 45.5071 238.157 45.6087 238.736 45.8147C239.315 46.0207 239.811 46.3176 240.219 46.7055C240.629 47.0934 240.947 47.5535 241.171 48.0911C241.395 48.6288 241.507 49.228 241.507 49.8887V54.5887C241.507 55.2494 241.395 55.8513 241.171 56.3943C240.947 56.9374 240.629 57.4001 240.219 57.78C239.808 58.1598 239.315 58.4568 238.736 58.6708C238.157 58.8821 237.515 58.9891 236.803 58.9891H232.379V45.5071ZM235.179 56.3703H236.803C237.376 56.3703 237.835 56.2071 238.184 55.8834C238.531 55.5597 238.707 55.1291 238.707 54.5914V49.8887C238.707 49.3644 238.533 48.9391 238.184 48.6154C237.835 48.2918 237.373 48.1286 236.803 48.1286H235.179V56.3703Z" fill="white"/>
<path d="M243.709 56.5548H247.312V49.4955C247.312 48.9578 247.331 48.5726 247.368 48.3346C247.379 48.1848 247.392 48.059 247.405 47.9601H247.349C247.299 48.0216 247.232 48.0911 247.144 48.166C247.083 48.2276 246.997 48.3025 246.893 48.3907C246.787 48.479 246.659 48.5726 246.509 48.6716L243.877 50.3756V47.6605L247.032 45.5071H250.112V56.5548H252.949V58.9891H243.709V56.5548Z" fill="white"/>
<path d="M254.349 49.7389C254.349 49.0782 254.464 48.4737 254.696 47.9333C254.925 47.3903 255.253 46.9248 255.674 46.5396C256.098 46.1518 256.608 45.8522 257.205 45.6408C257.802 45.4295 258.469 45.3225 259.202 45.3225C259.949 45.3225 260.621 45.4322 261.218 45.6515C261.816 45.8709 262.322 46.1785 262.741 46.5771C263.157 46.9757 263.482 47.4572 263.712 48.0189C263.941 48.5807 264.058 49.212 264.058 49.9101C264.058 50.7715 263.877 51.6355 263.517 52.5049C263.157 53.3716 262.626 54.3292 261.93 55.3805L259.504 58.9944H256.386L259.466 54.4817C259.816 53.9815 260.082 53.5883 260.269 53.302C260.456 53.0158 260.6 52.8018 260.698 52.6654C260.81 52.5022 260.88 52.3979 260.904 52.3471H260.792C260.605 52.6333 260.386 52.8847 260.138 53.0961C259.914 53.2967 259.637 53.4732 259.306 53.6284C258.976 53.7835 258.586 53.8638 258.138 53.8638C257.578 53.8638 257.064 53.7648 256.597 53.5642C256.13 53.3636 255.73 53.0854 255.394 52.7296C255.058 52.3738 254.8 51.9405 254.618 51.4295C254.44 50.9133 254.349 50.3515 254.349 49.7389ZM259.202 51.78C259.824 51.78 260.322 51.5927 260.696 51.2182C261.069 50.8437 261.256 50.3435 261.256 49.7202C261.256 49.0836 261.072 48.5807 260.704 48.2115C260.336 47.8424 259.837 47.6605 259.202 47.6605C258.568 47.6605 258.066 47.845 257.701 48.2115C257.333 48.5807 257.149 49.0836 257.149 49.7202C257.149 50.3569 257.333 50.8598 257.701 51.2262C258.066 51.5981 258.568 51.78 259.202 51.78Z" fill="white"/>
</svg>
