<svg width="129" height="88" viewBox="0 0 129 88" fill="none" xmlns="http://www.w3.org/2000/svg">
<g clip-path="url(#clip0)">
<path d="M30.9843 25.3306V28.7222H24.2604V45.4972H20.0619V28.7222H13.3076V25.3306H30.9843Z" fill="#663366"/>
<path d="M58.3789 45.4972L65.7112 25.3306H70.7313L78.0636 45.4972H73.7129L69.1188 31.7778L68.206 28.7222H68.1452L67.2933 31.7167L62.6688 45.4972H58.3789Z" fill="#663366"/>
<path d="M103.985 25.3306V45.4972H100.212V34.9861L100.395 29.0889H100.334L94.7663 45.4972H91.3283L85.7911 29.0889H85.7302L85.9432 34.9861V45.4972H82.1401V25.3306H88.225L91.8456 36.3306L93.1234 40.8833H93.1842L94.4925 36.3611L98.0826 25.3306H103.985Z" fill="#663366"/>
<path d="M24.431 68.9944H35.0187V72.3861H20.2324V52.2195H24.431V68.9944Z" fill="#663366"/>
<path d="M46.7866 51.9139C48.7764 51.9139 50.4862 52.3295 51.9283 53.1667C53.3705 54.0039 54.4779 55.1956 55.2568 56.7417C56.0356 58.2878 56.4251 60.1456 56.4251 62.3028C56.4251 64.46 56.0356 66.3178 55.2568 67.8639C54.4779 69.41 53.3644 70.6017 51.9283 71.4389C50.4862 72.2761 48.7764 72.6917 46.7866 72.6917C44.7968 72.6917 43.0809 72.2761 41.6327 71.4389C40.1845 70.6017 39.0648 69.41 38.286 67.8639C37.5071 66.3178 37.1177 64.46 37.1177 62.3028C37.1177 60.1456 37.5071 58.2878 38.286 56.7417C39.0648 55.1956 40.1845 54.0039 41.6327 53.1667C43.0748 52.3295 44.7968 51.9139 46.7866 51.9139ZM46.7866 55.3667C45.6731 55.3667 44.7116 55.6295 43.9145 56.1611C43.1113 56.6928 42.5028 57.475 42.089 58.5139C41.6753 59.5528 41.4623 60.8178 41.4623 62.3028C41.4623 63.7878 41.6692 65.0528 42.089 66.0917C42.5028 67.1306 43.1113 67.9128 43.9145 68.4445C44.7177 68.9761 45.6731 69.2389 46.7866 69.2389C47.9001 69.2389 48.8555 68.9761 49.6465 68.4445C50.4375 67.9128 51.0399 67.1306 51.4537 66.0917C51.8675 65.0528 52.0805 63.7878 52.0805 62.3028C52.0805 60.8178 51.8736 59.5528 51.4537 58.5139C51.0399 57.475 50.4314 56.6928 49.6465 56.1611C48.8555 55.6295 47.9001 55.3667 46.7866 55.3667Z" fill="#663366"/>
<path d="M58.3789 72.3861L65.7112 52.2195H70.7313L78.0636 72.3861H73.7129L69.1188 58.6667L68.206 55.6111H68.1452L67.2933 58.6056L62.6688 72.3861H58.3789Z" fill="#663366"/>
<path d="M103.748 52.2195V72.3861H98.9164L85.8339 57.2306H85.8035L85.9252 72.3861H82.1343V52.2195H86.9353L100.018 67.375H100.079L99.957 52.2195H103.748Z" fill="#663366"/>
<path d="M35.3779 45.4972V25.3306H54.089V28.7222H39.5765V33.7333H50.2008V36.9722H39.5765V42.1056H54.515V45.4972H35.3779Z" fill="#663366"/>
<path d="M0.912598 25.3611V87.0833H103.748" stroke="#663366" stroke-width="3" stroke-miterlimit="10"/>
<path d="M119.872 70.8889V9.16666H17.0376" stroke="#663366" stroke-width="3" stroke-miterlimit="10"/>
<path d="M128.087 32.8717V0.916656H74.8442" stroke="#663366" stroke-width="3" stroke-miterlimit="10"/>
</g>
<defs>
<clipPath id="clip0">
<rect width="129" height="88" fill="white"/>
</clipPath>
</defs>
</svg>
