<svg width="217" height="25" viewBox="0 0 217 25" fill="none" xmlns="http://www.w3.org/2000/svg">
<path d="M21.1024 0.936035V4.94437H13.0755V24.7694H8.06321V4.94437H0V0.936035H21.1024Z" fill="#663366"/>
<path d="M53.8055 24.7694L62.5588 0.936035H68.5518L77.3051 24.7694H72.1112L66.6268 8.55548L65.5371 4.94437H65.4645L64.4475 8.48326L58.9268 24.7694H53.8055Z" fill="#663366"/>
<path d="M108.25 0.936035V24.7694H103.747V12.3471L103.965 5.3777H103.892L97.2452 24.7694H93.141L86.5306 5.3777H86.458L86.7122 12.3471V24.7694H82.1721V0.936035H89.4363L93.7584 13.936L95.2839 19.3166H95.3566L96.9183 13.9721L101.204 0.936035H108.25Z" fill="#663366"/>
<path d="M26.347 24.7694V0.936035H48.6843V4.94437H31.3593V10.8666H44.0425V14.6944H31.3593V20.761H49.1928V24.7694H26.347Z" fill="#663366"/>
<path d="M122.126 20.1861H134.765V24.1944H117.113V0.361084H122.126V20.1861Z" fill="#663366"/>
<path d="M148.814 0C151.189 0 153.231 0.491113 154.952 1.48056C156.674 2.47 157.996 3.87833 158.926 5.70556C159.855 7.53278 160.32 9.72833 160.32 12.2778C160.32 14.8272 159.855 17.0228 158.926 18.85C157.996 20.6772 156.667 22.0856 154.952 23.075C153.231 24.0644 151.189 24.5556 148.814 24.5556C146.439 24.5556 144.39 24.0644 142.661 23.075C140.932 22.0856 139.596 20.6772 138.666 18.85C137.736 17.0228 137.271 14.8272 137.271 12.2778C137.271 9.72833 137.736 7.53278 138.666 5.70556C139.596 3.87833 140.932 2.47 142.661 1.48056C144.383 0.491113 146.439 0 148.814 0ZM148.814 4.08056C147.485 4.08056 146.337 4.39111 145.385 5.01945C144.426 5.64778 143.7 6.57222 143.206 7.8C142.712 9.02778 142.458 10.5228 142.458 12.2778C142.458 14.0328 142.705 15.5278 143.206 16.7556C143.7 17.9833 144.426 18.9078 145.385 19.5361C146.344 20.1644 147.485 20.475 148.814 20.475C150.143 20.475 151.284 20.1644 152.228 19.5361C153.172 18.9078 153.892 17.9833 154.386 16.7556C154.88 15.5278 155.134 14.0328 155.134 12.2778C155.134 10.5228 154.887 9.02778 154.386 7.8C153.892 6.57222 153.165 5.64778 152.228 5.01945C151.284 4.39111 150.143 4.08056 148.814 4.08056Z" fill="#663366"/>
<path d="M162.652 24.1944L171.406 0.361084H177.398L186.152 24.1944H180.958L175.473 7.98053L174.384 4.36942H174.311L173.294 7.90831L167.773 24.1944H162.652Z" fill="#663366"/>
<path d="M216.814 0.361084V24.1944H211.046L195.428 6.28331H195.392L195.537 24.1944H191.011V0.361084H196.743L212.361 18.2722H212.433L212.288 0.361084H216.814Z" fill="#663366"/>
</svg>
