<svg width="211" height="196" viewBox="0 0 211 196" fill="none" xmlns="http://www.w3.org/2000/svg">
<g clip-path="url(#clip0)">
<path d="M208 0V0.01H121V3.01H208V54.01H211V3.01V0.01V0H208Z" fill="white"/>
<path d="M194 14V14.01H26V17.01H194V117.01H197V17.01V14.01V14H194Z" fill="white"/>
<path d="M3 195.01V195H171V192H3V92H0V192V195V195.01H3Z" fill="white"/>
<path d="M155.26 37.71H96.5501C85.9201 37.71 77.3101 46.31 77.3101 56.95V145.01C77.3101 148.75 81.5901 150.93 84.6201 148.66L102.97 134.9H155.26C165.89 134.9 174.5 126.3 174.5 115.66V56.96C174.5 46.33 165.9 37.71 155.26 37.71ZM165.37 115.66C165.37 121.25 160.85 125.77 155.26 125.77H101.45C100.46 125.77 99.5001 126.09 98.7101 126.68L86.4501 135.88V56.96C86.4501 51.37 90.9701 46.85 96.5601 46.85H155.27C160.86 46.85 165.38 51.37 165.38 56.96V115.66H165.37Z" fill="white"/>
<path d="M150.36 62.1699H101.44C98.9201 62.1699 96.8701 64.2199 96.8701 66.7399C96.8701 69.2599 98.9101 71.3099 101.44 71.3099H150.36C152.88 71.3099 154.93 69.2699 154.93 66.7399C154.93 64.2199 152.89 62.1699 150.36 62.1699Z" fill="white"/>
<path d="M150.36 81.74H101.44C98.9201 81.74 96.8701 83.78 96.8701 86.31C96.8701 88.83 98.9101 90.88 101.44 90.88H150.36C152.88 90.88 154.93 88.83 154.93 86.31C154.93 83.79 152.89 81.74 150.36 81.74Z" fill="white"/>
<path d="M125.9 101.31H101.44C98.9201 101.31 96.8701 103.35 96.8701 105.88C96.8701 108.4 98.9101 110.45 101.44 110.45H125.9C128.42 110.45 130.47 108.41 130.47 105.88C130.47 103.35 128.43 101.31 125.9 101.31Z" fill="white"/>
<path d="M48.0901 131.4C31.8001 131.4 18.6001 147.69 18.6001 167.78H77.5801C77.5801 147.69 64.3801 131.4 48.0901 131.4Z" fill="white"/>
<path d="M48.8401 122.37C57.8257 122.37 65.1101 115.086 65.1101 106.1C65.1101 97.1144 57.8257 89.8301 48.8401 89.8301C39.8544 89.8301 32.5701 97.1144 32.5701 106.1C32.5701 115.086 39.8544 122.37 48.8401 122.37Z" fill="white"/>
</g>
<defs>
<clipPath id="clip0">
<path d="M0 0H211V195.01H0V0Z" fill="white"/>
</clipPath>
</defs>
</svg>
