<svg width="211" height="196" viewBox="0 0 211 196" fill="none" xmlns="http://www.w3.org/2000/svg">
<path d="M208 0V0.01H121V3.01H208V54.01H211V3.01V0.01V0H208Z" fill="white"/>
<path d="M194 14V14.01H26V17.01H194V117.01H197V17.01V14.01V14H194Z" fill="white"/>
<path d="M3 195.01V195H171V192H3V92H0V192V195V195.01H3Z" fill="white"/>
<path d="M136.44 79.19C134.1 79.03 132.67 78.85 131.23 78.85C115.63 78.82 84.1199 78.86 68.5199 78.8C63.7799 78.78 61.1999 76.95 60.6299 73.52C59.8499 68.75 62.5899 65.3 67.5999 65.2C75.0499 65.05 98.4099 65.14 105.86 65.13C114.47 65.12 123.09 65.14 131.7 65.12C132.95 65.12 134.19 65 136.32 64.89C134.99 63.29 134.22 62.22 133.32 61.29C127.4 55.2 121.45 49.13 115.51 43.05C111.61 39.05 111.28 34.72 114.6 31.37C117.91 28.03 122.46 28.21 126.35 32.09C137.63 43.36 148.87 54.67 160.05 66.05C163.8 69.86 163.72 73.96 159.99 77.76C148.83 89.15 137.64 100.51 126.41 111.83C122.35 115.93 116.2 115.53 113.46 111.14C111.46 107.94 112.04 104.4 115.3 101.04C121.3 94.86 127.37 88.75 133.4 82.6C134.25 81.74 135.03 80.79 136.44 79.19Z" fill="white"/>
<path d="M52.9502 129.83C55.2902 129.99 56.7202 130.17 58.1602 130.17C73.7602 130.2 105.27 130.16 120.87 130.22C125.61 130.24 128.19 132.07 128.76 135.5C129.54 140.27 126.8 143.72 121.79 143.82C114.34 143.97 90.9802 143.88 83.5302 143.89C74.9202 143.9 66.3002 143.88 57.6902 143.9C56.4402 143.9 55.2002 144.02 53.0702 144.13C54.4002 145.73 55.1702 146.8 56.0702 147.73C61.9902 153.82 67.9402 159.89 73.8802 165.97C77.7802 169.97 78.1102 174.3 74.7902 177.65C71.4802 180.99 66.9302 180.81 63.0402 176.93C51.7602 165.66 40.5202 154.35 29.3402 142.97C25.5902 139.16 25.6702 135.06 29.4002 131.26C40.5602 119.87 51.7502 108.51 62.9802 97.19C67.0402 93.09 73.1902 93.49 75.9302 97.88C77.9302 101.08 77.3502 104.62 74.0902 107.98C68.0902 114.16 62.0202 120.27 55.9902 126.42C55.1402 127.29 54.3702 128.24 52.9502 129.83Z" fill="white"/>
</svg>
