<svg width="143" height="133" viewBox="0 0 143 133" fill="none" xmlns="http://www.w3.org/2000/svg">
<path d="M140.967 0V0.00682016H82.0049V2.05287H140.967V36.8357H143V2.05287V0.00682016V0H140.967Z" fill="#C4C4C4"/>
<path d="M131.479 9.54834V9.55516H17.6211V11.6012H131.479V79.8028H133.512V11.6012V9.55516V9.54834H131.479Z" fill="#C4C4C4"/>
<path d="M2.03318 133V132.993H115.891V130.947H2.03318V62.7456H0V130.947V132.993V133H2.03318Z" fill="#C4C4C4"/>
<path d="M19.6404 80.5052H32.7815V84.7269H14.4287V59.6423H19.6404V80.5052Z" fill="#C4C4C4"/>
<path d="M47.0678 59.2605C49.5347 59.2605 51.6628 59.7788 53.452 60.8223C55.2412 61.859 56.617 63.3458 57.5861 65.2691C58.5553 67.1923 59.0432 69.5044 59.0432 72.1847C59.0432 74.865 58.5553 77.1771 57.5861 79.1004C56.617 81.0236 55.2412 82.5104 53.452 83.5471C51.6628 84.5838 49.5347 85.1089 47.0678 85.1089C44.6009 85.1089 42.4661 84.5906 40.6633 83.5471C38.8606 82.5104 37.478 81.0236 36.5089 79.1004C35.5397 77.1771 35.0518 74.865 35.0518 72.1847C35.0518 69.5044 35.5329 67.1923 36.5089 65.2691C37.478 63.3458 38.8606 61.859 40.6633 60.8223C42.4661 59.7788 44.5941 59.2605 47.0678 59.2605ZM47.0678 63.5572C45.6853 63.5572 44.4925 63.8846 43.4962 64.5461C42.5 65.2077 41.7477 66.183 41.2326 67.472C40.7175 68.761 40.46 70.3364 40.46 72.1847C40.46 74.033 40.7175 75.6084 41.2326 76.8974C41.7477 78.1933 42.5067 79.1686 43.4962 79.8233C44.4925 80.4848 45.6785 80.8122 47.0678 80.8122C48.4504 80.8122 49.6364 80.4848 50.6191 79.8233C51.6018 79.1617 52.3473 78.1864 52.8692 76.8974C53.3842 75.6084 53.6418 74.033 53.6418 72.1847C53.6418 70.3364 53.3842 68.761 52.8692 67.472C52.3541 66.183 51.6018 65.2009 50.6191 64.5461C49.6364 63.8846 48.4504 63.5572 47.0678 63.5572Z" fill="#C4C4C4"/>
<path d="M74.5226 85.1089C72.2319 85.1089 70.2258 84.6042 68.4976 83.588C66.7762 82.5718 65.4343 81.1055 64.4719 79.1822C63.5163 77.2589 63.0352 74.9401 63.0352 72.2256C63.0352 69.5385 63.5367 67.2264 64.5465 65.2895C65.5563 63.3526 66.9727 61.8658 68.8161 60.8223C70.6528 59.7857 72.8079 59.2605 75.2749 59.2605C77.9654 59.2605 80.1477 59.7584 81.8081 60.7609C83.4686 61.7635 84.7901 63.3117 85.7728 65.4191L80.9406 67.5129C80.5408 66.1693 79.8495 65.1736 78.8804 64.5257C77.9112 63.8777 76.7184 63.5572 75.3088 63.5572C73.8991 63.5572 72.6792 63.8914 71.6423 64.5666C70.6121 65.2418 69.8192 66.2171 69.2634 67.4924C68.7077 68.7746 68.4298 70.3364 68.4298 72.1847C68.4298 74.0875 68.6942 75.6903 69.2228 76.9929C69.7514 78.2956 70.5376 79.2709 71.5813 79.9188C72.625 80.5667 73.9194 80.8872 75.4511 80.8872C76.2847 80.8872 77.0573 80.7849 77.7757 80.5803C78.4941 80.3757 79.1176 80.0756 79.6462 79.6664C80.1748 79.2572 80.5882 78.7389 80.8932 78.1046C81.1982 77.4703 81.3473 76.7338 81.3473 75.9017V75.3288H74.814V71.489H85.8406V84.7202H82.1741L81.7946 79.2436L82.7027 79.8915C82.147 81.5624 81.1711 82.8514 79.775 83.7517C78.3992 84.6588 76.6439 85.1089 74.5226 85.1089Z" fill="#C4C4C4"/>
<path d="M102.364 59.2605C104.831 59.2605 106.959 59.7788 108.748 60.8223C110.537 61.859 111.913 63.3458 112.882 65.2691C113.851 67.1923 114.339 69.5044 114.339 72.1847C114.339 74.865 113.851 77.1771 112.882 79.1004C111.913 81.0236 110.537 82.5104 108.748 83.5471C106.959 84.5838 104.831 85.1089 102.364 85.1089C99.8968 85.1089 97.762 84.5906 95.9592 83.5471C94.1565 82.5104 92.7739 81.0236 91.8048 79.1004C90.8356 77.1771 90.3477 74.865 90.3477 72.1847C90.3477 69.5044 90.8288 67.1923 91.8048 65.2691C92.7739 63.3458 94.1565 61.859 95.9592 60.8223C97.762 59.7788 99.8968 59.2605 102.364 59.2605ZM102.364 63.5572C100.981 63.5572 99.7884 63.8846 98.7921 64.5461C97.7959 65.2077 97.0436 66.183 96.5285 67.472C96.0134 68.761 95.7559 70.3364 95.7559 72.1847C95.7559 74.033 96.0134 75.6084 96.5285 76.8974C97.0436 78.1933 97.8026 79.1686 98.7921 79.8233C99.7884 80.4848 100.974 80.8122 102.364 80.8122C103.746 80.8122 104.932 80.4848 105.915 79.8233C106.898 79.1617 107.643 78.1864 108.165 76.8974C108.68 75.6084 108.938 74.033 108.938 72.1847C108.938 70.3364 108.68 68.761 108.165 67.472C107.65 66.183 106.898 65.2009 105.915 64.5461C104.932 63.8846 103.746 63.5572 102.364 63.5572Z" fill="#C4C4C4"/>
</svg>
