<svg width="211" height="196" viewBox="0 0 211 196" fill="none" xmlns="http://www.w3.org/2000/svg">
<g clip-path="url(#clip0)">
<path d="M208 0V0.01H121V3.01H208V54.01H211V3.01V0.01V0H208Z" fill="#663366"/>
<path d="M194 14V14.01H26V17.01H194V117.01H197V17.01V14.01V14H194Z" fill="#663366"/>
<path d="M3 195.01V195H171V192H3V92H0V192V195V195.01H3Z" fill="#663366"/>
<path d="M156.53 85.9399C156.53 84.1999 156.02 82.4399 154.88 80.9799L145.8 69.3599C144.28 67.4299 141.97 66.4499 139.65 66.4399C138.27 66.4399 136.87 66.7899 135.63 67.5599L126.78 73.0699C125.85 73.6599 124.25 74.0699 122.71 74.0599C121.51 74.0699 120.35 73.8299 119.59 73.4499L110.92 69.2499C109.52 68.5799 107.96 68.2999 106.4 68.2999C104.15 68.3099 101.87 68.8599 100.04 70.1299L99.0301 70.8399C98.2201 70.4399 96.9901 69.8199 95.5901 69.1299C93.9101 68.3099 91.9401 67.9799 89.9401 67.9699C88.1401 67.9799 86.3401 68.2499 84.7601 68.9199L78.8601 71.4399C77.9001 71.8599 76.3701 72.1299 74.8501 72.1199C73.3301 72.1299 71.8101 71.8499 70.8401 71.4399L64.9301 68.9199C63.8501 68.4599 62.7001 68.2599 61.5601 68.2599C60.2401 68.2599 58.9401 68.5199 57.7201 69.0099C56.5101 69.4999 55.3801 70.2399 54.4801 71.2399L43.7201 83.2999C42.5301 84.6299 41.9301 86.3099 41.9401 87.9599C41.9401 89.9299 42.7801 91.8999 44.4001 93.2899L54.4401 101.85L49.6801 106.82C48.3701 108.19 47.7101 109.97 47.7101 111.72C47.7101 113.59 48.4501 115.48 49.9201 116.86L50.8901 117.78C51.8001 118.64 52.8901 119.19 54.0401 119.49C53.4701 120.55 53.1501 121.7 53.1501 122.86C53.1501 124.73 53.8901 126.62 55.3601 128.01L56.3301 128.93C57.7101 130.24 59.5001 130.89 61.2601 130.89C62.2101 130.89 63.1501 130.7 64.0501 130.33C64.3601 131.6 65.0101 132.8 66.0201 133.77L66.9901 134.69C68.3701 136 70.1501 136.65 71.9201 136.65C73.3001 136.65 74.6801 136.24 75.8801 135.46C76.2301 136.58 76.8301 137.65 77.7401 138.51L78.7101 139.43C80.0901 140.74 81.8701 141.39 83.6401 141.39C85.5201 141.39 87.4101 140.65 88.8101 139.19L93.0201 134.8L98.7401 140.09C100.11 141.36 101.87 141.99 103.6 141.99C105.51 141.99 107.43 141.23 108.83 139.73L109.74 138.75C110.53 137.9 111.04 136.9 111.34 135.86L113.55 137.9C114.92 139.16 116.68 139.79 118.41 139.79C120.32 139.79 122.24 139.03 123.65 137.53L124.56 136.55C125.61 135.43 126.2 134.04 126.38 132.63C126.96 132.78 127.56 132.88 128.15 132.88C130.06 132.88 131.98 132.12 133.38 130.62L134.29 129.64C135.56 128.28 136.2 126.53 136.19 124.8C136.19 124.26 136.11 123.73 135.99 123.21C137.57 123 139.11 122.29 140.27 121.04L141.18 120.06C142.45 118.7 143.08 116.95 143.08 115.22C143.08 113.32 142.32 111.41 140.81 110.01L139.1 108.43L154.5 91.3999C155.88 89.8599 156.52 87.8899 156.53 85.9399ZM55.8101 115.87C54.9901 115.87 54.2001 115.58 53.5701 114.98L52.6001 114.06C51.9301 113.43 51.6001 112.58 51.6001 111.72C51.6001 110.91 51.8901 110.12 52.4901 109.49L62.2401 99.3099C62.8801 98.6499 63.7201 98.3199 64.5901 98.3099C65.4001 98.3099 66.2001 98.5999 66.8301 99.1999L67.7901 100.12C67.7901 100.12 68.7901 101.6 68.7901 102.46C68.7901 103.11 68.5901 103.74 68.2101 104.29C68.1801 104.32 57.6801 115.26 57.6801 115.26C57.1401 115.66 56.4801 115.86 55.8101 115.87ZM63.6001 126.02C62.9701 126.68 62.1201 127.01 61.2501 127.01C60.4301 127.01 59.6401 126.72 59.0101 126.12L58.0401 125.2C57.3801 124.57 57.0401 123.72 57.0401 122.86C57.0401 122.05 57.3301 121.26 57.9301 120.63C57.9301 120.63 70.9301 107.1 71.0401 106.97C71.6601 106.37 72.4601 106.06 73.2901 106.06C74.1101 106.06 74.9001 106.35 75.5301 106.95L76.5001 107.87C77.1701 108.5 77.5001 109.34 77.5001 110.21C77.5001 111.02 77.2001 111.81 76.6101 112.44L63.6001 126.02ZM74.2601 131.77C73.6301 132.43 72.7801 132.76 71.9101 132.77C71.0901 132.77 70.3001 132.48 69.6701 131.88L68.7001 130.96C68.0301 130.33 67.7001 129.48 67.7001 128.62C67.7001 127.9 67.9501 127.19 68.4201 126.61L77.4701 117.16C78.0801 116.61 78.8501 116.32 79.6401 116.32C80.4601 116.32 81.2501 116.61 81.8801 117.21L82.8501 118.13C83.5101 118.76 83.8501 119.6 83.8501 120.47C83.8501 121.28 83.5501 122.08 82.9601 122.7L74.2601 131.77ZM91.4601 130.77L85.9701 136.5C85.3401 137.16 84.4901 137.49 83.6201 137.49C82.8001 137.49 82.0101 137.2 81.3801 136.6L80.4101 135.68C79.7501 135.05 79.4101 134.2 79.4101 133.34C79.4101 132.53 79.7101 131.73 80.3001 131.11L85.7901 125.38C86.4301 124.72 87.2701 124.39 88.1401 124.39C88.9501 124.39 89.7501 124.68 90.3801 125.28L91.3501 126.2C92.0101 126.83 92.3401 127.67 92.3501 128.54C92.3501 129.36 92.0601 130.15 91.4601 130.77ZM139.19 115.22C139.19 116.02 138.9 116.8 138.33 117.42L137.42 118.4C136.78 119.08 135.92 119.42 135.04 119.42C134.24 119.42 133.46 119.14 132.83 118.56L117.49 104.37L114.84 107.21L131.26 122.42C131.94 123.05 132.29 123.91 132.29 124.79C132.28 125.59 132 126.37 131.43 126.99L130.52 127.97C129.88 128.65 129.02 128.99 128.14 128.99C127.34 128.99 126.55 128.7 125.94 128.13L110.6 113.95L107.95 116.79L121.57 129.38C122.23 130.01 122.56 130.85 122.56 131.71C122.56 132.51 122.28 133.29 121.7 133.91L120.79 134.89C120.16 135.57 119.29 135.91 118.41 135.92C117.61 135.92 116.82 135.63 116.2 135.06L102.61 122.51L99.9701 125.36L100.02 125.41L106.83 131.69C107.43 132.31 107.75 133.1 107.75 133.93C107.75 134.72 107.47 135.5 106.89 136.12L105.98 137.1C105.34 137.78 104.49 138.12 103.6 138.12C102.8 138.12 102.02 137.84 101.4 137.26L95.4701 131.77C95.9901 130.76 96.2701 129.66 96.2701 128.56C96.2701 126.69 95.5301 124.81 94.0601 123.42L93.0901 122.5C91.7101 121.19 89.9301 120.54 88.1701 120.54C88.0301 120.54 87.9001 120.57 87.7601 120.58C87.7601 120.55 87.7701 120.51 87.7701 120.48C87.7701 118.61 85.5601 115.33 85.5601 115.33L84.5901 114.41C83.5601 113.43 82.3001 112.82 81.0001 112.58C81.2701 111.82 81.4201 111.02 81.4201 110.23C81.4201 108.36 80.6801 106.48 79.2101 105.09L78.2401 104.17C76.8601 102.86 75.0801 102.21 73.3101 102.21C73.1001 102.21 72.9001 102.25 72.7001 102.27C72.6401 100.48 71.9201 98.6799 70.5201 97.3499L69.5501 96.4299C68.1701 95.1199 66.3901 94.4699 64.6201 94.4699C62.7401 94.4699 60.8501 95.2099 59.4501 96.6699L57.1501 99.0699L46.9501 90.3699C46.2201 89.7399 45.8501 88.8799 45.8501 87.9799C45.8501 87.2299 46.1101 86.4999 46.6501 85.8999L57.4101 73.8499C57.8401 73.3699 58.4701 72.9399 59.2101 72.6399C59.9501 72.3399 60.7901 72.1699 61.5701 72.1799C62.2501 72.1799 62.9001 72.2999 63.4101 72.5299L69.3201 75.0499C70.9901 75.7499 72.9201 76.0399 74.8601 76.0499C76.8101 76.0399 78.7401 75.7599 80.4001 75.0499L86.3001 72.5299C87.2101 72.1299 88.5801 71.8899 89.9501 71.8899C91.4601 71.8799 92.9701 72.1899 93.8501 72.6399C94.4101 72.9199 94.9401 73.1799 95.4301 73.4299L89.4101 77.6599C87.4701 79.0199 86.4301 81.1799 86.4301 83.3699C86.4301 84.8199 86.8901 86.2899 87.8201 87.5399L88.6201 88.6099C90.1301 90.6199 92.4901 91.6499 94.8401 91.6599C96.1701 91.6599 97.5201 91.3199 98.7301 90.5999L102.33 88.4399C103.06 87.9899 104.17 87.7099 105.32 87.7099C106.67 87.6999 108.03 88.0999 108.84 88.6999L118.8 95.8399C121.02 97.4299 124.63 100.38 126.63 102.23L138.16 112.89C138.84 113.49 139.18 114.34 139.19 115.22ZM151.61 88.7999L136.25 105.79L129.27 99.3399C127.09 97.3199 123.48 94.3799 121.07 92.6499L111.11 85.5099C109.42 84.3099 107.35 83.7999 105.31 83.7899C103.57 83.7999 101.82 84.1699 100.3 85.0799L96.7001 87.2399C96.1501 87.5699 95.5001 87.7399 94.8201 87.7399C93.6101 87.7399 92.4001 87.1799 91.7301 86.2599L90.9401 85.1899C90.5201 84.6199 90.3201 83.9799 90.3201 83.3399C90.3301 82.3599 90.7801 81.4199 91.6501 80.7999L102.3 73.3199C103.22 72.6499 104.86 72.1899 106.41 72.1999C107.49 72.1899 108.52 72.4099 109.23 72.7599L117.9 76.9599C119.38 77.6699 121.05 77.9599 122.72 77.9599C124.88 77.9499 127.06 77.4799 128.85 76.3799L137.71 70.8699C138.28 70.5199 138.95 70.3299 139.66 70.3299C140.86 70.3299 142.05 70.8699 142.73 71.7499L151.81 83.3699C152.33 84.0399 152.64 84.9699 152.64 85.9499C152.63 87.0299 152.25 88.1099 151.61 88.7999Z" fill="#663366"/>
<path d="M11.5 71.58V135.17C11.5 144.73 20.24 152.51 30.99 152.51H169.16C179.9 152.51 188.65 144.73 188.65 135.17V71.58C188.65 62.02 179.91 54.24 169.16 54.24H30.99C20.24 54.23 11.5 62.01 11.5 71.58ZM22.08 135.17V71.58C22.08 67.21 26.08 63.65 30.99 63.65H33.41V143.09H30.99C26.08 143.09 22.08 139.53 22.08 135.17ZM40.24 63.65H160.19V143.09H40.24V63.65ZM178.06 71.58V135.17C178.06 139.54 174.06 143.09 169.15 143.09H167.02V63.65H169.15C174.07 63.65 178.06 67.21 178.06 71.58Z" fill="#663366"/>
</g>
<defs>
<clipPath id="clip0">
<path d="M0 0H211V195.01H0V0Z" fill="white"/>
</clipPath>
</defs>
</svg>
