<svg width="211" height="196" viewBox="0 0 211 196" fill="none" xmlns="http://www.w3.org/2000/svg">
<g clip-path="url(#clip0)">
<path d="M208 0V0.01H121V3.01H208V54.01H211V3.01V0.01V0H208Z" fill="#663366"/>
<path d="M194 14V14.01H26V17.01H194V117.01H197V17.01V14.01V14H194Z" fill="#663366"/>
<path d="M3 195.01V195H171V192H3V92H0V192V195V195.01H3Z" fill="#663366"/>
<path d="M152.95 91.07C161.803 91.07 168.98 83.8931 168.98 75.04C168.98 66.1869 161.803 59.01 152.95 59.01C144.097 59.01 136.92 66.1869 136.92 75.04C136.92 83.8931 144.097 91.07 152.95 91.07Z" fill="#666666"/>
<path d="M46.01 90.08C54.8631 90.08 62.04 82.9031 62.04 74.05C62.04 65.1969 54.8631 58.02 46.01 58.02C37.1569 58.02 29.98 65.1969 29.98 74.05C29.98 82.9031 37.1569 90.08 46.01 90.08Z" fill="#666666"/>
<path d="M152.95 102.19C145.72 102.19 138.08 105.62 133 111.01C140 119.01 143.79 127.95 145.75 138.02H182C182 118.23 169 102.19 152.95 102.19Z" fill="#666666"/>
<path d="M98.48 107.31C76.67 107.31 59 129.11 59 156.01H137.97C137.97 129.11 120.29 107.31 98.48 107.31Z" fill="#663366"/>
<path d="M46.01 101.18C29.97 101.18 16.96 117.22 16.96 137.01H53.21C55.18 126.94 59 118.01 66 110.01C60.92 104.62 53.24 101.18 46.01 101.18Z" fill="#666666"/>
<path d="M99.48 95.2099C111.509 95.2099 121.26 85.4587 121.26 73.4299C121.26 61.4011 111.509 51.6499 99.48 51.6499C87.4512 51.6499 77.7 61.4011 77.7 73.4299C77.7 85.4587 87.4512 95.2099 99.48 95.2099Z" fill="#663366"/>
</g>
<defs>
<clipPath id="clip0">
<path d="M0 0H211V195.01H0V0Z" fill="white"/>
</clipPath>
</defs>
</svg>
