<svg width="211" height="196" viewBox="0 0 211 196" fill="none" xmlns="http://www.w3.org/2000/svg">
<g clip-path="url(#clip0)">
<path d="M208 0V0.01H121V3.01H208V54.01H211V3.01V0.01V0H208Z" fill="#663366"/>
<path d="M194 14V14.01H26V17.01H194V117.01H197V17.01V14.01V14H194Z" fill="#663366"/>
<path d="M3 195.01V195H171V192H3V92H0V192V195V195.01H3Z" fill="#663366"/>
<path d="M117.4 125.34C118.31 124.56 118.77 123.39 118.77 121.82C118.77 120.26 118.31 119.09 117.4 118.3C116.49 117.52 115.09 117.13 113.21 117.13H106.5V126.51H113.21C115.09 126.52 116.49 126.13 117.4 125.34Z" fill="#663366"/>
<path d="M62.0702 128.66H55.2002V137.4H62.0702C63.9502 137.4 65.3502 137.02 66.2602 136.25C67.1702 135.48 67.6302 134.41 67.6302 133.03C67.6302 131.63 67.1702 130.55 66.2602 129.79C65.3502 129.04 63.9502 128.66 62.0702 128.66Z" fill="#663366"/>
<path d="M34.61 117.18H34.53L33.38 120.72L29.79 130.13H39.4L35.84 120.83L34.61 117.18Z" fill="#663366"/>
<path d="M66.9602 121.39C66.9602 118.56 65.1102 117.14 61.4002 117.14H55.2002V125.68H61.4002C65.1002 125.68 66.9602 124.25 66.9602 121.39Z" fill="#663366"/>
<path d="M150.7 87.01L112.57 48.88C111.94 42.1 106.28 36.75 99.34 36.75C92.4 36.75 86.74 42.1 86.11 48.88L47.98 87.01H16.5V163.01H181.5V87.01H150.7ZM43.31 140.38L40.53 133.11H28.65L25.87 140.38H22.53L32.74 114.15H36.52L46.69 140.38H43.31ZM99.34 42.1C103.76 42.1 107.36 45.7 107.36 50.12C107.36 54.54 103.76 58.14 99.34 58.14C94.92 58.14 91.32 54.54 91.32 50.12C91.32 45.7 94.92 42.1 99.34 42.1ZM87.1 55.45C89.17 60.17 93.87 63.48 99.34 63.48C104.81 63.48 109.51 60.17 111.58 55.45L143.15 87.02H55.53L87.1 55.45ZM68.47 138.38C66.8 139.72 64.42 140.39 61.32 140.39H52.02V114.16H61.36C64.46 114.16 66.72 114.81 68.15 116.11C69.58 117.41 70.3 119.17 70.3 121.39C70.3 122.72 69.92 123.91 69.15 124.99C68.38 126.06 67.29 126.74 65.89 127.04V127.08C67.45 127.37 68.69 128.08 69.6 129.21C70.51 130.34 70.97 131.61 70.97 133.04C70.97 135.26 70.14 137.04 68.47 138.38ZM96.96 140.38H77.96V114.15H96.36V117.13H81.14V125.59H92.98V128.57H81.14V137.39H96.95V140.38H96.96ZM119.92 140.38L112.76 129.49H106.49V140.38H103.31V114.15H113.24C115.91 114.15 118.06 114.84 119.68 116.22C121.3 117.6 122.1 119.47 122.1 121.82C122.1 124.18 121.29 126.01 119.66 127.32C118.7 128.1 117.55 128.64 116.22 128.95L123.7 140.37H119.92V140.38ZM147.38 117.14H138.24V140.39H135.06V117.14H125.92V114.16H147.38V117.14ZM173.31 134.46C172.32 136.47 170.91 138.03 169.1 139.13C167.28 140.23 165.13 140.78 162.64 140.78C160.15 140.78 158 140.23 156.18 139.13C154.36 138.03 152.96 136.47 151.97 134.46C150.98 132.45 150.48 130.05 150.48 127.27C150.48 124.49 150.98 122.09 151.97 120.08C152.96 118.07 154.37 116.51 156.18 115.41C157.99 114.31 160.15 113.76 162.64 113.76C165.13 113.76 167.28 114.31 169.1 115.41C170.91 116.51 172.32 118.07 173.31 120.08C174.3 122.09 174.8 124.49 174.8 127.27C174.8 130.05 174.3 132.45 173.31 134.46Z" fill="#663366"/>
<path d="M167.35 117.99C166.04 117.16 164.47 116.74 162.64 116.74C160.84 116.74 159.28 117.16 157.95 117.99C156.63 118.82 155.61 120.03 154.89 121.61C154.18 123.19 153.82 125.07 153.82 127.27C153.82 129.47 154.18 131.36 154.89 132.93C155.61 134.51 156.63 135.71 157.95 136.55C159.28 137.38 160.84 137.8 162.64 137.8C164.47 137.8 166.04 137.38 167.35 136.55C168.66 135.72 169.68 134.51 170.39 132.93C171.11 131.35 171.46 129.47 171.46 127.27C171.46 125.07 171.1 123.18 170.39 121.61C169.67 120.03 168.66 118.83 167.35 117.99Z" fill="#663366"/>
</g>
<defs>
<clipPath id="clip0">
<path d="M0 0H211V195.01H0V0Z" fill="white"/>
</clipPath>
</defs>
</svg>
