<svg width="211" height="196" viewBox="0 0 211 196" fill="none" xmlns="http://www.w3.org/2000/svg">
<g clip-path="url(#clip0)">
<path d="M208 0V0.01H121V3.01H208V54.01H211V3.01V0.01V0H208Z" fill="#663366"/>
<path d="M194 14V14.01H26V17.01H194V117.01H197V17.01V14.01V14H194Z" fill="#663366"/>
<path d="M3 195.01V195H171V192H3V92H0V192V195V195.01H3Z" fill="#663366"/>
<path d="M87.07 96.2099C99.0988 96.2099 108.85 86.4587 108.85 74.4299C108.85 62.4011 99.0988 52.6499 87.07 52.6499C75.0413 52.6499 65.29 62.4011 65.29 74.4299C65.29 86.4587 75.0413 96.2099 87.07 96.2099Z" fill="#663366"/>
<path d="M138.3 127.13C145.92 116.73 150.47 103.95 150.47 90.1C150.47 55.42 122.26 27.21 87.58 27.21C52.9 27.21 24.7 55.42 24.7 90.1C24.7 124.78 52.9099 152.99 87.5899 152.99C101.44 152.99 114.22 148.43 124.62 140.82L165.82 182.02L179.5 168.34C179.5 168.33 138.3 127.13 138.3 127.13ZM118.18 121.04C110.95 109.64 99.71 102.31 87.07 102.31C74.67 102.31 63.5999 109.37 56.3699 120.4C48.75 112.56 44.0499 101.87 44.0499 90.09C44.0499 66.08 63.5799 46.55 87.5899 46.55C111.6 46.55 131.13 66.08 131.13 90.09C131.12 102.19 126.17 113.14 118.18 121.04Z" fill="#663366"/>
</g>
<defs>
<clipPath id="clip0">
<path d="M0 0H211V195.01H0V0Z" fill="white"/>
</clipPath>
</defs>
</svg>
