<svg width="72" height="133" viewBox="0 0 72 133" fill="none" xmlns="http://www.w3.org/2000/svg">
<path d="M19.3826 47.2249L35.6752 19.8858L51.9576 47.2249C51.9576 47.2249 50.0686 49.1447 45.767 50.5615C56.947 48.5493 61.7106 43.7139 61.7106 43.7139L35.6649 0L9.62964 43.7036C9.62964 43.7036 14.3829 48.5493 25.5629 50.5512C21.2716 49.1448 19.3826 47.2249 19.3826 47.2249Z" fill="#282460"/>
<path d="M8.51077 83.8244H6.12898L5.69781 82.4385H2.84378L2.38179 83.8244H0L3.37762 74.5437H5.14342L8.51077 83.8244ZM5.09207 80.5392L4.31186 78.065L3.48029 80.5392H5.09207Z" fill="#282460"/>
<path d="M39.3815 80.8779C39.2275 81.8326 38.8374 82.5718 38.2317 83.1057C37.6157 83.6395 36.8252 83.8962 35.8704 83.8962C34.8438 83.8962 33.9814 83.5471 33.2936 82.8593C32.8624 82.4281 32.5852 81.8634 32.462 81.1756C32.3901 80.7855 32.3594 80.1182 32.3594 79.1839C32.3594 78.2394 32.3901 77.5824 32.462 77.1923C32.5852 76.5044 32.8624 75.9501 33.2936 75.5086C33.9917 74.8105 34.8438 74.4614 35.8704 74.4614C36.8355 74.4614 37.626 74.7284 38.2317 75.252C38.8476 75.7858 39.2275 76.525 39.3815 77.4797H37.0613C36.8765 76.8227 36.4864 76.4839 35.8704 76.4839C35.47 76.4839 35.1723 76.6174 34.967 76.874C34.7309 77.182 34.6179 77.9417 34.6179 79.1737C34.6179 80.3954 34.7309 81.1653 34.967 81.463C35.1723 81.7197 35.47 81.8532 35.8704 81.8532C36.4761 81.8532 36.8765 81.5247 37.0613 80.8676H39.3815V80.8779Z" fill="#282460"/>
<path d="M70.7244 81.0833C70.7244 81.9354 70.4575 82.6027 69.9237 83.0955C69.3898 83.578 68.6917 83.8244 67.8293 83.8244H63.7844V74.5437H67.6343C68.5172 74.5437 69.2256 74.7696 69.7594 75.211C70.3138 75.6935 70.591 76.3608 70.591 77.2335C70.591 77.9932 70.2522 78.6092 69.5746 79.0711C70.3343 79.5434 70.7244 80.2107 70.7244 81.0833ZM68.3119 77.3464C68.3119 76.8434 68.0347 76.5867 67.4905 76.5867H66.0738V78.0958H67.4905C68.0347 78.0958 68.3119 77.8495 68.3119 77.3464ZM68.4351 80.9499C68.4351 80.416 68.1579 80.1388 67.6035 80.1388H66.0635V81.7712H67.6035C68.1579 81.7712 68.4351 81.5042 68.4351 80.9499Z" fill="#282460"/>
<path d="M4.72262 104.275L4.19903 102.807H1.36555L0.841958 104.275H0.102783L2.49482 97.7761H3.08L5.46179 104.275H4.72262ZM2.79255 98.772L1.57086 102.201H3.99372L2.79255 98.772Z" fill="#7E8084"/>
<path d="M10.1943 104.326C9.21902 104.326 8.58253 104.08 7.96655 103.464L8.43879 102.992C8.97264 103.526 9.47569 103.7 10.2046 103.7C11.1491 103.7 11.7445 103.248 11.7445 102.499C11.7445 102.16 11.6419 101.873 11.4366 101.688C11.2312 101.503 11.0567 101.452 10.5844 101.38L9.82475 101.257C9.31143 101.175 8.91105 101.01 8.63386 100.764C8.30533 100.476 8.14106 100.076 8.14106 99.5525C8.14106 98.4437 8.93157 97.7148 10.2251 97.7148C11.0567 97.7148 11.6008 97.9304 12.1552 98.4232L11.7137 98.8749C11.3134 98.5053 10.8822 98.3206 10.1943 98.3206C9.33195 98.3206 8.82892 98.803 8.82892 99.5217C8.82892 99.8399 8.92132 100.097 9.12665 100.271C9.33198 100.446 9.67074 100.569 9.99926 100.63L10.7076 100.743C11.3236 100.836 11.6213 100.959 11.8985 101.205C12.2579 101.503 12.4426 101.955 12.4426 102.489C12.4426 103.628 11.5495 104.326 10.1943 104.326Z" fill="#7E8084"/>
<path d="M17.4424 104.326C16.4671 104.326 15.8203 104.08 15.2146 103.464L15.6868 102.992C16.231 103.526 16.7237 103.7 17.4629 103.7C18.4074 103.7 18.9926 103.248 18.9926 102.499C18.9926 102.16 18.8899 101.873 18.6846 101.688C18.469 101.503 18.3047 101.452 17.8325 101.38L17.0728 101.257C16.5595 101.175 16.1591 101.01 15.8819 100.764C15.5534 100.476 15.3891 100.076 15.3891 99.5525C15.3891 98.4437 16.1796 97.7148 17.4732 97.7148C18.3048 97.7148 18.8489 97.9304 19.4032 98.4232L18.9515 98.8749C18.5511 98.5053 18.1199 98.3206 17.4424 98.3206C16.5697 98.3206 16.077 98.803 16.077 99.5217C16.077 99.8399 16.1694 100.097 16.3747 100.271C16.58 100.446 16.9085 100.569 17.2473 100.63L17.9557 100.743C18.5717 100.836 18.8694 100.959 19.1466 101.205C19.5059 101.503 19.6907 101.955 19.6907 102.489C19.6804 103.628 18.7873 104.326 17.4424 104.326Z" fill="#7E8084"/>
<path d="M26.8361 103.649C26.3946 104.09 25.8197 104.326 25.1729 104.326C24.5261 104.326 23.9512 104.09 23.5098 103.649C22.8938 103.033 22.8938 102.396 22.8938 101.021C22.8938 99.6449 22.8938 99.0084 23.5098 98.3924C23.9512 97.951 24.5261 97.7148 25.1729 97.7148C25.8197 97.7148 26.3946 97.951 26.8361 98.3924C27.4418 99.0084 27.4418 99.6449 27.4418 101.021C27.452 102.407 27.452 103.043 26.8361 103.649ZM26.3022 98.8031C26.0147 98.5156 25.6041 98.3411 25.1832 98.3411C24.752 98.3411 24.3413 98.5156 24.0641 98.8031C23.6535 99.224 23.6021 99.6654 23.6021 101.021C23.6021 102.376 23.6535 102.817 24.0641 103.238C24.3413 103.526 24.7622 103.7 25.1832 103.7C25.6143 103.7 26.025 103.526 26.3022 103.238C26.7128 102.817 26.7642 102.376 26.7642 101.021C26.7642 99.6654 26.7128 99.224 26.3022 98.8031Z" fill="#7E8084"/>
<path d="M33.1295 104.326C32.493 104.326 31.9077 104.09 31.4663 103.649C30.8503 103.033 30.8503 102.396 30.8503 101.021C30.8503 99.6449 30.8503 99.0084 31.4663 98.3924C31.9077 97.951 32.4827 97.7148 33.1295 97.7148C34.2998 97.7148 35.1622 98.4232 35.388 99.6552H34.6797C34.5051 98.8647 33.9507 98.3411 33.1397 98.3411C32.7085 98.3411 32.2979 98.5053 32.0207 98.8031C31.61 99.224 31.569 99.6654 31.569 101.031C31.569 102.386 31.61 102.838 32.0207 103.259C32.3081 103.546 32.7188 103.71 33.1397 103.71C33.9507 103.71 34.5257 103.187 34.7002 102.396H35.3983C35.1724 103.618 34.2896 104.326 33.1295 104.326Z" fill="#7E8084"/>
<path d="M38.9402 104.275V97.7761H39.628V104.275H38.9402Z" fill="#7E8084"/>
<path d="M47.3173 104.275L46.7938 102.807H43.9603L43.4367 104.275H42.6975L45.0896 97.7761H45.6747L48.0565 104.275H47.3173ZM45.3873 98.772L44.1656 102.201H46.5884L45.3873 98.772Z" fill="#7E8084"/>
<path d="M53.0562 104.326C52.4197 104.326 51.8345 104.09 51.3931 103.649C50.7771 103.033 50.7771 102.396 50.7771 101.021C50.7771 99.6449 50.7771 99.0084 51.3931 98.3924C51.8345 97.951 52.4197 97.7148 53.0562 97.7148C54.2266 97.7148 55.089 98.4232 55.3148 99.6552H54.6064C54.4319 98.8647 53.8775 98.3411 53.0665 98.3411C52.6353 98.3411 52.2247 98.5053 51.9475 98.8031C51.5368 99.224 51.4958 99.6654 51.4958 101.031C51.4958 102.386 51.5471 102.838 51.9475 103.259C52.2349 103.546 52.6456 103.71 53.0665 103.71C53.8775 103.71 54.4524 103.187 54.627 102.396H55.3251C55.0992 103.618 54.2163 104.326 53.0562 104.326ZM52.933 106.246H52.2144L52.8612 104.891H53.4771L52.933 106.246Z" fill="#7E8084"/>
<path d="M62.6552 104.275L62.1317 102.807H59.2982L58.7746 104.275H58.0354L60.4275 97.7764H61.0126L63.3944 104.275H62.6552ZM61.2488 97.0167C60.9921 97.0167 60.8176 96.9346 60.602 96.8114C60.4274 96.7087 60.2735 96.6163 60.0887 96.6163C59.9449 96.6163 59.8217 96.6369 59.5548 96.9038L59.216 96.5752C59.6267 96.1646 59.8525 96.1133 60.0887 96.1133C60.3556 96.1133 60.5096 96.1954 60.7354 96.3289C60.9305 96.4521 61.064 96.5137 61.2488 96.5137C61.3822 96.5137 61.5259 96.4828 61.7929 96.2159L62.1317 96.5444C61.7005 96.9654 61.4541 97.0167 61.2488 97.0167ZM60.7252 98.7722L59.5035 102.201H61.9263L60.7252 98.7722Z" fill="#7E8084"/>
<path d="M70.0572 103.649C69.6158 104.09 69.0409 104.326 68.3941 104.326C67.7473 104.326 67.1724 104.09 66.731 103.649C66.115 103.033 66.115 102.396 66.115 101.021C66.115 99.6449 66.115 99.0084 66.731 98.3924C67.1724 97.951 67.7473 97.7148 68.3941 97.7148C69.0409 97.7148 69.6158 97.951 70.0572 98.3924C70.6732 99.0084 70.6732 99.6449 70.6732 101.021C70.6732 102.407 70.6732 103.043 70.0572 103.649ZM69.5234 98.8031C69.236 98.5156 68.8356 98.3411 68.4044 98.3411C67.9732 98.3411 67.5626 98.5156 67.2854 98.8031C66.8747 99.224 66.8336 99.6654 66.8336 101.021C66.8336 102.376 66.8747 102.817 67.2854 103.238C67.5728 103.526 67.9835 103.7 68.4044 103.7C68.8356 103.7 69.2462 103.526 69.5234 103.238C69.9341 102.817 69.9854 102.376 69.9854 101.021C69.9751 99.6654 69.9341 99.224 69.5234 98.8031Z" fill="#7E8084"/>
<path d="M2.95683 118.668C2.32032 118.668 1.73515 118.432 1.2937 117.991C0.687985 117.375 0.687988 116.738 0.687988 115.362C0.687988 113.987 0.687985 113.35 1.2937 112.734C1.73515 112.293 2.32032 112.057 2.95683 112.057C4.12719 112.057 4.98957 112.765 5.21543 113.997H4.50705C4.33252 113.196 3.77814 112.683 2.96711 112.683C2.53592 112.683 2.12527 112.847 1.84808 113.145C1.43743 113.566 1.38609 114.007 1.38609 115.373C1.38609 116.728 1.42717 117.18 1.84808 117.6C2.13554 117.888 2.53592 118.052 2.96711 118.052C3.77814 118.052 4.35305 117.529 4.52757 116.738H5.22567C5.01008 117.96 4.11692 118.668 2.95683 118.668Z" fill="#7E8084"/>
<path d="M13.1205 117.991C12.679 118.432 12.1041 118.668 11.4573 118.668C10.8106 118.668 10.2357 118.432 9.79421 117.991C9.17823 117.375 9.17822 116.738 9.17822 115.362C9.17822 113.987 9.17823 113.35 9.79421 112.734C10.2357 112.293 10.8106 112.057 11.4573 112.057C12.1041 112.057 12.679 112.293 13.1205 112.734C13.7365 113.35 13.7365 113.987 13.7365 115.362C13.7365 116.738 13.7365 117.385 13.1205 117.991ZM12.5866 113.145C12.3095 112.857 11.8885 112.683 11.4676 112.683C11.0364 112.683 10.6258 112.857 10.3486 113.145C9.93794 113.566 9.8866 113.997 9.8866 115.362C9.8866 116.718 9.92768 117.159 10.3486 117.58C10.6361 117.867 11.0364 118.042 11.4676 118.042C11.8988 118.042 12.3095 117.867 12.5866 117.58C12.9973 117.159 13.0384 116.718 13.0384 115.362C13.0384 113.997 12.9973 113.566 12.5866 113.145Z" fill="#7E8084"/>
<path d="M22.9351 118.617V113.679L21.159 117.601H20.5636L18.7567 113.679V118.617H18.0586V112.118H18.7567L20.8716 116.728L22.9351 112.118H23.6332V118.617H22.9351Z" fill="#7E8084"/>
<path d="M28.1912 118.617V112.118H32.2258V112.734H28.879V115.024H31.7228V115.65H28.879V118.001H32.2258V118.617H28.1912Z" fill="#7E8084"/>
<path d="M40.1002 118.617L38.6218 115.732H37.0614V118.617H36.3633V112.118H38.858C39.9873 112.118 40.7881 112.806 40.7881 113.925C40.7881 114.87 40.2131 115.496 39.3713 115.671L40.9112 118.617H40.1002ZM38.7861 112.734H37.0511V115.116H38.7861C39.5458 115.116 40.0797 114.726 40.0797 113.925C40.0899 113.135 39.5458 112.734 38.7861 112.734Z" fill="#7E8084"/>
<path d="M47.0609 118.668C46.4243 118.668 45.8392 118.432 45.3977 117.991C44.7817 117.375 44.7817 116.738 44.7817 115.362C44.7817 113.987 44.7817 113.35 45.3977 112.734C45.8392 112.293 46.4141 112.057 47.0609 112.057C48.2312 112.057 49.0936 112.765 49.3195 113.997H48.6111C48.4366 113.196 47.8822 112.683 47.0711 112.683C46.6399 112.683 46.2293 112.847 45.9521 113.145C45.5415 113.566 45.5004 114.007 45.5004 115.373C45.5004 116.728 45.5415 117.18 45.9521 117.6C46.2396 117.888 46.6502 118.052 47.0711 118.052C47.8822 118.052 48.4571 117.529 48.6316 116.738H49.3297C49.1039 117.96 48.2209 118.668 47.0609 118.668Z" fill="#7E8084"/>
<path d="M53.5388 118.617V112.118H54.237V118.617H53.5388Z" fill="#7E8084"/>
<path d="M62.5937 118.617L62.0701 117.149H59.2366L58.7131 118.617H57.9739L60.3659 112.118H60.9511L63.3329 118.617H62.5937ZM60.6636 113.104L59.4419 116.533H61.8648L60.6636 113.104Z" fill="#7E8084"/>
<path d="M67.0698 118.617V112.118H67.7576V118.001H71.0839V118.617H67.0698Z" fill="#7E8084"/>
<path d="M4.80471 132.353C4.41459 132.743 3.8397 132.959 3.16213 132.959H0.934326V126.46H3.16213C3.8397 126.46 4.41459 126.666 4.80471 127.066C5.48228 127.744 5.44125 128.74 5.44125 129.643C5.44125 130.526 5.48228 131.676 4.80471 132.353ZM4.32219 127.549C3.9834 127.2 3.54195 127.076 3.0389 127.076H1.62218V132.333H3.0389C3.54195 132.333 3.9834 132.21 4.32219 131.86C4.77391 131.399 4.75339 130.423 4.75339 129.633C4.75339 128.832 4.76364 128.011 4.32219 127.549Z" fill="#7E8084"/>
<path d="M12.3503 132.949V126.45H16.385V127.066H13.0382V129.356H15.8819V129.982H13.0382V132.333H16.385V132.949H12.3503Z" fill="#7E8084"/>
<path d="M27.6268 131.08C27.6268 131.665 27.442 132.127 27.0827 132.456C26.7131 132.785 26.2306 132.949 25.6351 132.949H22.9146V126.45H25.5222C26.1484 126.45 26.6412 126.614 27.0005 126.943C27.3599 127.272 27.5344 127.713 27.5344 128.278C27.5344 128.606 27.442 128.904 27.2572 129.16C27.1032 129.366 26.9287 129.52 26.7233 129.622C27.329 129.9 27.6268 130.392 27.6268 131.08ZM26.2716 128.339C26.2716 128.113 26.1998 127.929 26.056 127.795C25.9123 127.662 25.707 127.59 25.4401 127.59H24.1978V129.089H25.4401C25.707 129.089 25.9123 129.017 26.056 128.883C26.1998 128.74 26.2716 128.555 26.2716 128.339ZM26.364 131.019C26.364 130.793 26.2922 130.598 26.1484 130.444C26.0047 130.29 25.7994 130.218 25.5222 130.218H24.1978V131.819H25.5222C25.7994 131.819 26.0047 131.737 26.1484 131.594C26.2922 131.44 26.364 131.245 26.364 131.019Z" fill="#7E8084"/>
<path d="M38.7554 132.949H37.2874L36.0144 130.362H35.1006V132.949H33.8276V126.45H36.3737C37.0204 126.45 37.5338 126.645 37.9239 127.035C38.2935 127.405 38.4783 127.877 38.4783 128.442C38.4783 128.873 38.3551 129.243 38.1189 129.561C37.9033 129.838 37.6262 130.033 37.2874 130.156L38.7554 132.949ZM37.2258 128.442C37.2258 128.185 37.1436 127.98 36.9691 127.826C36.7946 127.672 36.579 127.59 36.3018 127.59H35.1109V129.294H36.3018C36.579 129.294 36.7946 129.212 36.9691 129.058C37.1436 128.904 37.2258 128.688 37.2258 128.442Z" fill="#7E8084"/>
<path d="M49.7403 132.949H48.416L48.0258 131.799H45.7159L45.3258 132.949H44.0015L46.3627 126.45H47.3585L49.7403 132.949ZM47.6973 130.731L46.9068 128.37L46.0855 130.731H47.6973Z" fill="#7E8084"/>
<path d="M60.0886 130.279C60.0886 131.173 59.8833 131.83 59.4624 132.261C58.9901 132.754 58.3742 133 57.635 133C56.9369 133 56.3517 132.764 55.8794 132.292C55.5817 132.004 55.3969 131.624 55.3148 131.173C55.2635 130.906 55.2429 130.413 55.2429 129.704C55.2429 128.996 55.2635 128.503 55.3148 128.236C55.3969 127.785 55.592 127.405 55.8794 127.117C56.3517 126.645 56.9369 126.409 57.635 126.409C58.3434 126.409 58.9183 126.625 59.3597 127.035C59.7396 127.405 59.986 127.887 60.0784 128.483H58.7951C58.6411 127.846 58.251 127.538 57.6247 127.538C57.2859 127.538 57.019 127.651 56.8137 127.887C56.6597 128.072 56.557 128.36 56.516 128.76C56.5057 128.873 56.4954 129.181 56.4954 129.704C56.4954 130.228 56.5057 130.546 56.516 130.649C56.5468 131.06 56.6494 131.347 56.8137 131.532C57.019 131.758 57.2859 131.871 57.6247 131.871C58.0046 131.871 58.3126 131.747 58.5281 131.501C58.7232 131.285 58.8156 130.998 58.8156 130.639V130.392H57.6247V129.325H60.0784V130.279H60.0886Z" fill="#7E8084"/>
<path d="M71.3099 132.949H69.9855L69.6057 131.799H67.2958L66.9057 132.949H65.5813L67.9425 126.45H68.9384L71.3099 132.949ZM69.2669 130.731L68.4764 128.37L67.6551 130.731H69.2669Z" fill="#7E8084"/>
</svg>
