<svg width="135" height="133" viewBox="0 0 135 133" fill="none" xmlns="http://www.w3.org/2000/svg">
<g clip-path="url(#clip0)">
<path d="M89.582 0.843415L49.6667 0L48.1064 85.6066L62.8959 70.9766L92.3774 67.7327L89.582 0.843415Z" fill="#00AEDA"/>
<path d="M43.2633 0.681152L45.5061 68.8355C36.3399 70.5224 16.7073 67.6353 11.4741 42.6897C6.20837 17.7441 30.4566 4.28188 43.2633 0.681152Z" fill="#00AEDA"/>
<path d="M94.6851 12.7485L95.4327 66.5649C104.599 68.2517 123.939 66.7271 128.067 47.1988C132.195 27.6705 107.524 16.0898 94.6851 12.7485Z" fill="#00AEDA"/>
<path d="M101.154 89.3047C92.5724 89.3047 85.584 96.2791 85.584 104.875C85.584 113.472 92.5724 120.446 101.154 120.446C109.735 120.446 116.723 113.472 116.723 104.875C116.723 96.2791 109.735 89.3047 101.154 89.3047ZM101.154 112.596C96.8955 112.596 93.45 109.125 93.45 104.908C93.45 100.658 96.8955 97.2198 101.154 97.2198C105.412 97.2198 108.857 100.691 108.857 104.908C108.857 109.125 105.412 112.596 101.154 112.596Z" fill="#364656"/>
<path d="M47.7164 99.5554H34.4546V107.341H47.7164V99.5554Z" fill="#364656"/>
<path d="M73.2974 90.1805V90.7968C73.1348 90.732 72.9723 90.6671 72.8098 90.6022C72.6798 90.5373 72.5498 90.5049 72.4197 90.44C72.1272 90.3103 71.8347 90.2129 71.5421 90.1156C71.2171 90.0183 70.892 89.921 70.5345 89.8237C70.372 89.7912 70.1769 89.7264 70.0144 89.6939C69.6894 89.629 69.3318 89.5642 68.9743 89.4993C68.1942 89.3695 67.3491 89.3047 66.4389 89.2722C64.2286 89.3047 62.1809 89.6939 60.2956 90.5049C58.4104 91.2834 56.8177 92.4188 55.4525 93.7812C54.0873 95.1761 53.0471 96.7656 52.2995 98.6146C51.747 100.01 51.3894 101.469 51.2594 103.026C51.1944 103.643 51.1294 104.259 51.1294 104.875C51.1294 113.472 58.1178 120.446 66.699 120.446C69.0718 120.446 71.3471 119.895 73.3624 118.921C73.3299 120.057 73.1348 120.998 72.8423 121.776C72.4848 122.684 71.9972 123.431 71.3146 123.95C70.697 124.501 69.9169 124.89 69.0393 125.15C68.1942 125.377 67.219 125.474 66.2114 125.474C64.3262 125.474 62.6359 125.215 61.0757 124.728C59.5155 124.274 58.1178 123.593 56.7852 122.749L53.2422 129.107C54.9649 130.308 56.8827 131.248 59.093 131.962C61.3033 132.643 63.7086 133 66.3089 133C68.4217 133 70.4045 132.708 72.2897 132.124C74.2075 131.573 75.8327 130.664 77.2954 129.464C78.7581 128.264 79.8957 126.772 80.7409 124.955C81.586 123.139 82.0085 120.998 82.0085 118.5V90.1481H73.3624V90.1805H73.2974ZM66.6015 112.596C62.3434 112.596 58.8979 109.125 58.8979 104.908C58.8979 100.658 62.3434 97.2198 66.6015 97.2198C70.8595 97.2198 74.305 100.691 74.305 104.908C74.305 109.125 70.8595 112.596 66.6015 112.596Z" fill="#364656"/>
<path d="M120.299 90.1804H133.56V111.915H133.593V119.765H124.719V111.915H124.752V97.9982H120.299V90.1804Z" fill="#364656"/>
<path d="M124.102 81.4868C124.102 80.8055 124.232 80.1243 124.459 79.508C124.719 78.8916 125.077 78.3077 125.532 77.886C125.987 77.4319 126.507 77.0751 127.157 76.8155C127.775 76.556 128.49 76.4263 129.205 76.4263C129.887 76.4263 130.537 76.556 131.155 76.8155C131.773 77.0751 132.293 77.4319 132.78 77.886C133.235 78.3402 133.593 78.8592 133.853 79.508C134.113 80.1243 134.243 80.7731 134.243 81.4868C134.243 82.168 134.113 82.8816 133.853 83.498C133.593 84.1143 133.235 84.6658 132.78 85.1199C132.325 85.5741 131.805 85.9309 131.155 86.1904C130.57 86.4499 129.92 86.5797 129.205 86.5797C128.49 86.5797 127.807 86.4499 127.157 86.1904C126.572 85.9309 126.019 85.5741 125.532 85.1199C125.077 84.6658 124.719 84.1468 124.459 83.498C124.232 82.8492 124.102 82.2004 124.102 81.4868Z" fill="#364656"/>
<path d="M30.3591 105.881C30.3591 105.427 30.3266 104.94 30.2616 104.454C30.1965 102.345 29.839 100.366 29.1889 98.5174C28.5388 96.6684 27.5637 95.0464 26.3285 93.7164C25.0934 92.3215 23.5657 91.2835 21.7454 90.5374C19.9577 89.7589 17.9099 89.3372 15.6021 89.3372C13.2618 89.3372 11.149 89.7264 9.26374 90.5698C7.34598 91.3808 5.72077 92.5162 4.35558 93.9435C2.9579 95.3708 1.91776 96.9928 1.17016 98.9067C0.357548 100.788 0 102.832 0 105.005C0 107.179 0.357548 109.222 1.04014 111.169C1.75524 113.115 2.79537 114.802 4.16056 116.229C5.55824 117.689 7.21597 118.824 9.23124 119.7C11.2465 120.511 13.5218 120.965 16.0897 120.965C17.4873 120.965 18.6575 120.9 19.6651 120.738C20.6728 120.608 21.6804 120.381 22.558 120.089C23.4681 119.797 24.3783 119.408 25.2559 118.922C26.166 118.467 27.1736 117.884 28.2463 117.202L25.1259 111.331C24.4433 111.59 23.6957 111.85 23.0456 112.077C22.363 112.304 21.6479 112.499 20.9328 112.693C20.2177 112.855 19.4376 113.018 18.6575 113.115C17.9099 113.212 17.0648 113.245 16.2197 113.245C15.3746 113.245 14.4969 113.147 13.6843 112.92C12.8717 112.693 12.0591 112.369 11.409 111.947C10.7264 111.525 10.1414 110.974 9.58878 110.325C9.10122 109.676 8.74367 108.898 8.54865 108.054L8.45113 107.179H30.2616C30.3916 106.789 30.3916 106.335 30.3591 105.881ZM8.77618 101.275C8.9387 100.658 9.16623 100.042 9.49127 99.4581C9.81631 98.8742 10.2064 98.3876 10.6939 97.9335C11.214 97.4794 11.8316 97.1225 12.5792 96.8955C13.3268 96.6359 14.2694 96.5062 15.3095 96.5062C16.3172 96.5062 17.1623 96.6359 17.8124 96.8955C18.495 97.155 19.0476 97.4794 19.5026 97.9011C19.9252 98.3228 20.2827 98.8418 20.5102 99.4257C20.7703 99.9772 20.9328 100.626 21.0628 101.275H8.77618Z" fill="#364656"/>
</g>
<defs>
<clipPath id="clip0">
<rect width="134.243" height="133" fill="white"/>
</clipPath>
</defs>
</svg>
