<svg width="143" height="90" viewBox="0 0 143 90" fill="none" xmlns="http://www.w3.org/2000/svg">
<g clip-path="url(#clip0)">
<path d="M78.8059 59.3086C77.4589 59.3086 76.1119 58.8348 75.0471 57.8873L76.2017 56.5045C76.9971 57.1575 77.8309 57.58 78.8444 57.58C79.6397 57.58 80.1272 57.2599 80.1272 56.7477V56.7221C80.1272 56.2356 79.8193 55.9795 78.3441 55.5954C76.5609 55.1344 75.4063 54.6479 75.4063 52.8937V52.8681C75.4063 51.2676 76.702 50.2048 78.5108 50.2048C79.8065 50.2048 80.9098 50.6146 81.8078 51.3316L80.7943 52.7913C80.0118 52.2535 79.2421 51.9206 78.4852 51.9206C77.7283 51.9206 77.3434 52.2663 77.3434 52.6888V52.7144C77.3434 53.2906 77.7283 53.4827 79.2549 53.8796C81.0509 54.3534 82.0643 54.9936 82.0643 56.5301V56.5557C82.0643 58.3227 80.7173 59.3086 78.8059 59.3086Z" fill="#231F20"/>
<path d="M90.2488 56.466H85.5279C85.7203 57.3367 86.3233 57.7977 87.1828 57.7977C87.8242 57.7977 88.2989 57.5928 88.8249 57.1062L89.9281 58.0794C89.2995 58.8604 88.3887 59.347 87.1571 59.347C85.1174 59.347 83.6165 57.9129 83.6165 55.8514V55.8258C83.6165 53.8924 85.0019 52.3047 86.9775 52.3047C89.2482 52.3047 90.2873 54.0589 90.2873 55.9795V56.0051C90.2745 56.1715 90.2617 56.2868 90.2488 56.466ZM86.9647 53.8156C86.1693 53.8156 85.6434 54.379 85.5023 55.2624H88.3887C88.2861 54.4046 87.7729 53.8156 86.9647 53.8156Z" fill="#231F20"/>
<path d="M94.367 59.2959C93.1868 59.2959 92.3914 58.8221 92.3914 57.26V54.0462H91.5833V52.4073H92.3914V50.6787H94.3157V52.4073H95.9065V54.0462H94.3157V56.9399C94.3157 57.3881 94.5082 57.5929 94.9315 57.5929C95.2907 57.5929 95.5986 57.5033 95.8808 57.3497V58.8862C95.4831 59.1422 95.0213 59.2959 94.367 59.2959Z" fill="#231F20"/>
<path d="M97.6382 59.1805V57.1575H99.6907V59.1805H97.6382Z" fill="#231F20"/>
<path d="M105.425 59.3213C103.039 59.3213 101.59 57.9897 101.59 55.3904V50.3328H103.54V55.3392C103.54 56.7861 104.258 57.5287 105.451 57.5287C106.644 57.5287 107.362 56.8117 107.362 55.4032V50.3328H109.312V55.3264C109.312 58.0025 107.799 59.3213 105.425 59.3213Z" fill="#231F20"/>
<path d="M115.509 59.3085C114.482 59.3085 113.854 58.8348 113.392 58.297V61.2035H111.468V52.4071H113.392V53.3802C113.866 52.7528 114.508 52.2791 115.509 52.2791C117.086 52.2791 118.6 53.5211 118.6 55.7746V55.8002C118.6 58.0665 117.125 59.3085 115.509 59.3085ZM116.676 55.7746C116.676 54.6478 115.919 53.9052 115.021 53.9052C114.123 53.9052 113.379 54.6478 113.379 55.7746V55.8002C113.379 56.927 114.123 57.6696 115.021 57.6696C115.919 57.6696 116.676 56.9398 116.676 55.8002V55.7746Z" fill="#231F20"/>
<path d="M79.9732 69.8592C77.1766 69.8592 75.5217 67.7977 75.5217 65.3137V65.2881C75.5217 62.8937 77.2536 60.717 79.8963 60.717C81.3459 60.717 82.2567 61.1524 83.1419 61.8822L82.7057 62.3688C82.013 61.767 81.2048 61.306 79.8578 61.306C77.7026 61.306 76.2016 63.1242 76.2016 65.2625V65.2881C76.2016 67.5801 77.6384 69.283 79.9989 69.283C81.1278 69.283 82.1797 68.8093 82.8212 68.2715V65.7363H79.8578V65.1345H83.4498V68.5404C82.6544 69.2446 81.4229 69.8592 79.9732 69.8592Z" fill="#231F20"/>
<path d="M90.8647 69.7056V68.502C90.4286 69.2575 89.7102 69.8592 88.5299 69.8592C86.9007 69.8592 85.9514 68.7453 85.9514 67.2088V63.2651H86.5672V67.0936C86.5672 68.4252 87.3112 69.2959 88.6198 69.2959C89.8898 69.2959 90.8647 68.3356 90.8647 66.9911V63.2651H91.4805V69.7056H90.8647Z" fill="#231F20"/>
<path d="M94.2258 61.5877V60.7427H94.9955V61.5877H94.2258ZM94.3028 69.7056V63.2651H94.9186V69.7056H94.3028Z" fill="#231F20"/>
<path d="M106.888 69.7054V65.877C106.888 64.4814 106.169 63.6747 104.976 63.6747C103.886 63.6747 102.936 64.507 102.936 65.9538V69.7054H102.321V65.8386C102.321 64.4942 101.589 63.6747 100.435 63.6747C99.2803 63.6747 98.3694 64.6862 98.3694 65.9923V69.7054H97.7537V63.265H98.3694V64.4173C98.7928 63.7515 99.3701 63.1113 100.525 63.1113C101.654 63.1113 102.346 63.7515 102.705 64.507C103.129 63.7899 103.822 63.1113 105.04 63.1113C106.567 63.1113 107.516 64.1869 107.516 65.8002V69.7054H106.888Z" fill="#231F20"/>
<path d="M114.598 69.7055V68.63C114.149 69.2446 113.353 69.8592 112.134 69.8592C110.929 69.8592 109.646 69.1806 109.646 67.8361V67.8105C109.646 66.4661 110.8 65.7106 112.468 65.7106C113.366 65.7106 113.982 65.8259 114.61 65.9923V65.7106C114.61 64.4046 113.815 63.7388 112.481 63.7388C111.698 63.7388 111.044 63.9565 110.454 64.251L110.223 63.7132C110.929 63.3803 111.634 63.1626 112.519 63.1626C114.174 63.1626 115.213 64.0205 115.213 65.685V69.7055H114.598ZM114.61 66.5685C114.072 66.4277 113.34 66.274 112.417 66.274C111.044 66.274 110.287 66.8758 110.287 67.7721V67.7977C110.287 68.7324 111.172 69.2702 112.16 69.2702C113.481 69.2702 114.598 68.4635 114.598 67.2855V66.5685H114.61Z" fill="#231F20"/>
<path d="M121.23 63.8413C119.742 63.8413 118.433 64.968 118.433 67.0679V69.7056H117.818V63.2651H118.433V65.0961C118.934 63.9437 120.011 63.1114 121.294 63.1626V63.8413H121.23Z" fill="#231F20"/>
<path d="M127.695 69.7055V68.6299C127.246 69.2445 126.451 69.8591 125.232 69.8591C124.027 69.8591 122.744 69.1805 122.744 67.8361V67.8104C122.744 66.466 123.898 65.7106 125.566 65.7106C126.464 65.7106 127.08 65.8258 127.708 65.9923V65.7106C127.708 64.4046 126.913 63.7387 125.579 63.7387C124.796 63.7387 124.142 63.9564 123.552 64.2509L123.321 63.7131C124.027 63.3802 124.732 63.1626 125.617 63.1626C127.272 63.1626 128.311 64.0204 128.311 65.685V69.7055H127.695ZM127.708 66.5685C127.17 66.4276 126.438 66.274 125.515 66.274C124.142 66.274 123.385 66.8757 123.385 67.772V67.7976C123.385 68.7323 124.27 69.2701 125.258 69.2701C126.579 69.2701 127.695 68.4635 127.695 67.2855V66.5685H127.708ZM126.567 62.1895C126.079 62.1895 125.374 61.6773 124.95 61.6773C124.642 61.6773 124.501 61.8309 124.322 62.3047L123.885 62.1895C124.129 61.2804 124.437 61.0115 124.95 61.0115C125.438 61.0115 126.143 61.5236 126.567 61.5236C126.874 61.5236 127.016 61.37 127.195 60.8962L127.631 61.0115C127.388 61.9206 127.067 62.1895 126.567 62.1895Z" fill="#231F20"/>
<path d="M133.661 69.2829C134.661 69.2829 135.341 68.8348 135.88 68.2714L136.316 68.6555C135.662 69.3598 134.879 69.8719 133.648 69.8719C131.955 69.8719 130.479 68.5147 130.479 66.5044V66.4788C130.479 64.6094 131.801 63.1113 133.545 63.1113C135.354 63.1113 136.509 64.571 136.509 66.4916V66.5172C136.509 66.6069 136.509 66.6453 136.496 66.7477H131.146C131.236 68.3482 132.391 69.2829 133.661 69.2829ZM135.816 66.1843C135.726 64.8783 134.982 63.6875 133.494 63.6875C132.211 63.6875 131.223 64.7631 131.108 66.1843H135.816Z" fill="#231F20"/>
<path d="M140.768 69.8336C139.831 69.8336 138.805 69.4494 138.125 68.8988L138.497 68.4123C139.203 68.9501 139.985 69.2574 140.819 69.2574C141.692 69.2574 142.371 68.7708 142.371 68.0282V68.0026C142.371 67.2471 141.563 66.9654 140.665 66.7093C139.613 66.402 138.446 66.0947 138.446 64.9424V64.9167C138.446 63.8796 139.318 63.137 140.575 63.137C141.345 63.137 142.218 63.4187 142.872 63.8412L142.538 64.3534C141.948 63.9564 141.23 63.7132 140.55 63.7132C139.665 63.7132 139.087 64.1997 139.087 64.8399V64.8655C139.087 65.5826 139.96 65.8515 140.883 66.1203C141.922 66.4148 143.013 66.7862 143.013 67.9257V67.9513C143 69.1037 142.012 69.8336 140.768 69.8336Z" fill="#231F20"/>
<path d="M33.2004 70.0899L17.6907 61.1526V79.0272L33.2004 70.0899Z" fill="#231F20"/>
<path d="M36.0996 49.7058L51.6093 58.6431V40.7686L36.0996 49.7058Z" fill="#231F20"/>
<path d="M33.9315 50.9604L18.4089 59.8977L33.9315 68.835V50.9604Z" fill="#231F20"/>
<path d="M33.2004 49.7058L17.6907 40.7686V58.6431L33.2004 49.7058Z" fill="#231F20"/>
<path d="M18.4089 39.5135L33.9315 48.4508V30.5762L18.4089 39.5135Z" fill="#231F20"/>
<path d="M50.8908 59.8977L35.3811 50.9604V68.835L50.8908 59.8977Z" fill="#231F20"/>
<path d="M35.3811 48.4508L50.8908 39.5135L35.3811 30.5762V48.4508Z" fill="#231F20"/>
<path d="M16.2408 61.1526L0.718262 70.0899L16.2408 79.0272V61.1526Z" fill="#231F20"/>
<path d="M15.5097 59.8977L0 50.9604V68.835L15.5097 59.8977Z" fill="#231F20"/>
<path d="M0.718262 49.7058L16.2408 58.6431V40.7686L0.718262 49.7058Z" fill="#231F20"/>
<path d="M36.0996 70.0899L51.6093 79.0272V61.1526L36.0996 70.0899Z" fill="#231F20"/>
<path d="M34.6499 70.9221L18.4089 80.2819L34.6499 89.6418L50.8909 80.2819L34.6499 70.9221Z" fill="#231F20"/>
<path d="M36.0996 29.3216L51.6093 38.2588V20.3843L36.0996 29.3216Z" fill="#231F20"/>
<path d="M33.2004 29.3216L17.6907 20.3843V38.2588L33.2004 29.3216Z" fill="#231F20"/>
<path d="M18.4089 19.1294L33.9315 28.0667V10.1921L18.4089 19.1294Z" fill="#231F20"/>
<path d="M35.3811 28.0667L50.8908 19.1294L35.3811 10.1921V28.0667Z" fill="#231F20"/>
<path d="M33.2004 8.93729L17.6907 0V17.8874L33.2004 8.93729Z" fill="#231F20"/>
<path d="M53.79 59.8977L69.2998 68.835V50.9604L53.79 59.8977Z" fill="#231F20"/>
<path d="M68.5813 70.0899L53.0588 61.1526V79.0272L68.5813 70.0899Z" fill="#231F20"/>
<path d="M53.0588 58.6431L68.5813 49.7058L53.0588 40.7686V58.6431Z" fill="#231F20"/>
</g>
<defs>
<clipPath id="clip0">
<rect width="143" height="89.6418" fill="white"/>
</clipPath>
</defs>
</svg>
