<svg width="594" height="100" viewBox="0 0 594 100" fill="none" xmlns="http://www.w3.org/2000/svg">
<path d="M89.4688 35.5613V7.45507C89.4688 7.36938 89.4687 7.36938 89.5555 7.36938H95.8036C95.8036 7.36938 95.8904 7.36938 95.8904 7.45507L105.349 25.0215L114.548 7.45507L114.635 7.36938H120.536C120.622 7.36938 120.622 7.36938 120.622 7.45507V35.4756C120.622 35.5613 120.622 35.5613 120.536 35.5613H115.589C115.502 35.5613 115.502 35.5613 115.502 35.4756V15.5956L105.436 35.0472C105.262 35.3899 105.089 35.3899 104.915 35.0472L94.6755 16.0241V35.647C94.6755 35.7327 94.6755 35.7327 94.5887 35.7327H89.6423C89.4688 35.647 89.4688 35.647 89.4688 35.5613Z" fill="#181818"/>
<path d="M129.647 21.5939C129.647 12.4251 137.024 6.76953 144.747 6.76953C152.47 6.76953 159.846 12.4251 159.846 21.5939C159.846 28.9632 153.598 36.1611 144.747 36.1611C135.982 36.1611 129.647 29.0489 129.647 21.5939ZM135.635 21.5939C135.635 26.7353 139.193 31.2768 144.834 31.2768C150.387 31.2768 154.032 26.7353 154.032 21.5939C154.032 15.8527 150.648 11.7395 144.834 11.7395C139.019 11.7395 135.635 15.8527 135.635 21.5939Z" fill="#181818"/>
<path d="M174.252 35.5613C174.252 35.647 174.252 35.647 174.165 35.647H169.132C169.045 35.647 169.045 35.647 169.045 35.5613V7.45507C169.045 7.36938 169.045 7.36938 169.132 7.36938H180.847C183.277 7.36938 189.091 8.74042 189.091 16.2811C189.091 19.4516 187.182 22.1937 184.318 23.222C184.839 24.0789 187.702 29.563 189.438 32.8193C190.045 34.1046 190.653 34.9615 191.087 35.4756C191.173 35.5613 191.087 35.647 191 35.647H184.405C184.405 35.647 184.318 35.647 184.318 35.5613L179.371 25.0215H174.338V35.5613H174.252ZM179.892 12.168H174.338V19.623H179.111C181.888 19.623 183.71 18.4234 183.71 15.9384C183.624 14.4816 182.843 12.168 179.892 12.168Z" fill="#181818"/>
<path d="M202.455 35.5613L202.368 35.647H196.814C196.727 35.647 196.64 35.5613 196.727 35.4756L208.876 7.45507L208.963 7.36938H213.215C213.215 7.36938 213.302 7.36938 213.302 7.45507L224.844 35.4756C224.844 35.5613 224.844 35.647 224.757 35.647H219.116C219.116 35.647 219.029 35.647 219.029 35.5613L215.992 27.7636H205.665L202.455 35.5613ZM210.959 15.0815L207.575 23.1363H214.083L210.959 15.0815Z" fill="#181818"/>
<path d="M233.088 35.5613V7.45507C233.088 7.36938 233.088 7.36938 233.174 7.36938H238.468C238.555 7.36938 238.555 7.36938 238.555 7.45507V35.4756C238.555 35.5613 238.555 35.5613 238.468 35.5613H233.174C233.174 35.647 233.088 35.647 233.088 35.5613Z" fill="#181818"/>
<path d="M247.579 30.5056C247.579 30.4199 247.579 30.3342 247.579 30.3342L251.311 27.5921C251.398 27.5921 251.485 27.5921 251.485 27.5921C253.047 29.9915 255.737 31.2768 258.427 31.2768C260.77 31.2768 261.985 29.7344 261.985 28.1063C261.985 26.3925 260.857 24.8501 257.559 23.6504C252.266 21.8509 249.055 19.3659 249.055 14.5673C249.055 9.85436 252.699 6.76953 257.385 6.76953C262.072 6.76953 265.022 9.25454 266.758 11.6538C266.758 11.6538 266.758 11.7395 266.758 11.8252L263.286 14.653C263.286 14.653 263.2 14.653 263.113 14.653C261.638 12.9392 259.815 11.6538 257.559 11.6538C255.476 11.6538 254.348 12.9392 254.348 14.8244C254.348 16.5382 255.91 17.4808 259.121 18.509C264.154 20.1371 267.105 23.222 267.105 27.5065C267.105 31.9623 264.241 36.0754 257.559 36.0754C252.439 36.1611 249.228 33.162 247.579 30.5056Z" fill="#181818"/>
<path d="M304.94 30.5056C305.027 30.5056 305.027 30.5056 305.027 30.5913V35.4756C305.027 35.5613 305.027 35.5613 304.94 35.5613H285.068C284.981 35.5613 284.981 35.5613 284.981 35.4756V7.45507C284.981 7.36938 284.981 7.36938 285.068 7.36938H290.361C290.448 7.36938 290.448 7.36938 290.448 7.45507V30.4199L304.94 30.5056Z" fill="#181818"/>
<path d="M334.705 30.5056C334.792 30.5056 334.792 30.5056 334.792 30.5913V35.5613C334.792 35.647 334.792 35.647 334.705 35.647H314.833C314.746 35.647 314.746 35.647 314.746 35.5613V7.45507C314.746 7.36938 314.746 7.36938 314.833 7.36938H333.664C333.751 7.36938 333.751 7.36938 333.751 7.45507V12.3394C333.751 12.4251 333.751 12.4251 333.664 12.4251L320.213 12.5965V19.1946L329.585 19.2803C329.672 19.2803 329.672 19.2803 329.672 19.366V24.1646C329.672 24.2503 329.672 24.2503 329.585 24.2503L320.213 24.4217V30.4199H334.705V30.5056Z" fill="#181818"/>
<path d="M344.772 35.5613V7.45507C344.772 7.36938 344.772 7.36938 344.858 7.36938H350.152C350.239 7.36938 350.239 7.36938 350.239 7.45507V35.4756C350.239 35.5613 350.239 35.5613 350.152 35.5613H344.858C344.858 35.647 344.772 35.647 344.772 35.5613Z" fill="#181818"/>
<path d="M359.09 12.5965C359.003 12.5965 359.003 12.5965 359.003 12.5108V7.45507C359.003 7.36938 359.003 7.36938 359.09 7.36938H384.603C384.69 7.36938 384.69 7.36938 384.69 7.45507V12.4251C384.69 12.5108 384.69 12.5108 384.603 12.5108L374.624 12.5965V35.4756C374.624 35.5613 374.624 35.5613 374.537 35.5613H369.243C369.156 35.5613 369.156 35.5613 369.156 35.4756V12.6822L359.09 12.5965Z" fill="#181818"/>
<path d="M392.5 35.5613L392.413 35.647H386.859C386.773 35.647 386.686 35.5613 386.773 35.4756L398.922 7.45501L399.008 7.36932H403.26C403.26 7.36932 403.347 7.36932 403.347 7.45501L414.889 35.4756C414.889 35.5613 414.889 35.647 414.802 35.647H409.161C409.161 35.647 409.075 35.647 409.075 35.5613L405.951 27.7635H395.711L392.5 35.5613ZM398.574 3.85604C397.88 3.85604 397.36 4.54156 397.186 5.31277C397.186 5.39846 397.099 5.39846 397.012 5.39846H393.281C393.194 5.39846 393.107 5.39846 393.194 5.22708C393.888 1.7138 396.231 0 398.141 0C400.57 0 402.306 1.62811 403.26 1.62811C403.955 1.62811 404.475 1.02828 404.649 0.257069C404.649 0.17138 404.649 0.0856898 404.823 0.0856898H408.554C408.641 0.0856898 408.728 0.0856898 408.641 0.257069C407.86 3.85604 405.43 5.48415 403.694 5.48415C401.351 5.48415 399.616 3.85604 398.574 3.85604ZM401.004 15.0814L397.62 23.1362H404.128L401.004 15.0814Z" fill="#181818"/>
<path d="M419.662 21.5939C419.662 12.4251 427.038 6.76953 434.761 6.76953C442.484 6.76953 449.861 12.4251 449.861 21.5939C449.861 28.9632 443.613 36.1611 434.761 36.1611C425.91 36.1611 419.662 29.0489 419.662 21.5939ZM425.563 21.5939C425.563 26.7353 429.12 31.2768 434.761 31.2768C440.315 31.2768 443.96 26.7353 443.96 21.5939C443.96 15.8527 440.575 11.7395 434.761 11.7395C428.947 11.7395 425.563 15.8527 425.563 21.5939Z" fill="#181818"/>
<path d="M99.2748 68.0377C93.7209 68.0377 89.6423 63.8389 89.6423 58.1834C89.6423 51.5853 94.5887 47.7292 99.4483 47.7292C104.134 47.7292 107.258 50.0429 107.953 54.0703V54.2417C107.953 54.4987 107.866 54.7558 107.692 54.9272L107.519 55.0986L104.221 56.3839L103.787 56.2125C103.614 56.1268 103.353 55.9555 103.267 55.6127V55.527C102.919 53.6418 101.791 52.7849 99.8822 52.7849C96.064 52.7849 95.2829 55.6984 95.2829 58.0977C95.2829 60.0686 95.8904 63.4105 99.8822 63.4105C101.444 63.4105 103.267 63.0677 103.267 61.3539V59.2974C103.267 58.7832 103.7 58.3548 104.221 58.3548H107.258C107.779 58.3548 108.213 58.7832 108.213 59.2974V67.0094C108.213 67.5236 107.779 67.952 107.258 67.952H104.221C103.874 67.952 103.527 67.695 103.353 67.4379C102.138 67.7806 100.924 68.0377 99.2748 68.0377ZM99.3615 49.3574C94.3284 49.3574 91.2911 53.8132 91.2911 58.1834C91.2911 62.8106 94.6755 66.3239 99.2748 66.3239C101.271 66.3239 102.486 65.8955 103.267 64.8672L104.829 62.8106V66.0669H106.304V59.8972H104.829V61.1825C104.829 63.5819 102.919 64.9529 99.7087 64.9529C95.8036 64.9529 93.3738 62.2965 93.3738 57.9263C93.3738 53.5561 95.7168 50.8998 99.7087 50.8998C102.225 50.8998 103.874 52.0137 104.568 54.2417L106.043 53.7275C105.262 50.8998 103.006 49.3574 99.3615 49.3574Z" fill="#43ADE2"/>
<path d="M129.214 67.695H125.569C125.309 67.695 125.048 67.6093 124.875 67.3522L124.788 67.2665L122.965 62.725H117.672L115.763 67.2665L115.676 67.3522C115.503 67.5236 115.242 67.695 114.982 67.695H111.424C111.077 67.695 110.816 67.5236 110.643 67.2665L110.383 66.8381L110.556 66.3239L118.366 48.3291L118.453 48.2434C118.627 48.072 118.887 47.9006 119.147 47.9006H121.837C122.098 47.9006 122.358 47.9863 122.532 48.2434L122.618 48.3291L130.168 66.7524L129.908 67.1808C129.821 67.5236 129.561 67.695 129.214 67.695ZM126.176 66.0669H128.085L121.317 49.7001H119.668L112.552 66.0669H114.374L116.457 61.0969H124.094L126.176 66.0669ZM123.66 59.7258H116.978L120.449 51.4996L123.66 59.7258ZM119.581 58.012H121.23L120.449 56.0412L119.581 58.012Z" fill="#43ADE2"/>
<path d="M147.263 67.695H134.594C134.073 67.695 133.639 67.2665 133.639 66.7524V48.9289C133.639 48.4148 134.073 47.9863 134.594 47.9863H137.978C138.499 47.9863 138.933 48.4148 138.933 48.9289V62.725H147.263C147.784 62.725 148.218 63.1534 148.218 63.6676V66.8381C148.131 67.3522 147.784 67.695 147.263 67.695ZM135.375 66.0669H146.482V64.4388H137.197V49.7001H135.375V66.0669Z" fill="#43ADE2"/>
<path d="M158.284 67.695H155.941C155.681 67.695 155.421 67.6093 155.247 67.3522L155.16 67.2665L148.044 49.2717L147.871 48.8432L148.131 48.4148C148.305 48.1577 148.652 47.9863 148.912 47.9863H152.644C152.991 47.9863 153.425 48.2434 153.511 48.6718L157.243 58.6976L161.408 48.4148L161.495 48.3291C161.669 48.1577 161.929 48.072 162.189 48.072H165.747C166.094 48.072 166.355 48.2434 166.528 48.5005L166.789 48.9289L166.528 49.4431L158.892 67.4379L158.805 67.5236C158.805 67.6093 158.545 67.695 158.284 67.695ZM156.549 66.0669H157.764L164.706 49.7001H162.797L157.243 63.4962L152.123 49.7001H150.04L156.549 66.0669Z" fill="#43ADE2"/>
<path d="M184.578 67.695H180.933C180.673 67.695 180.413 67.6093 180.239 67.3523L180.152 67.2666L178.33 62.725H173.037L171.127 67.2666L171.041 67.3523C170.867 67.5237 170.607 67.695 170.346 67.695H166.789C166.441 67.695 166.181 67.5237 166.008 67.2666L165.747 66.8381L166.008 66.324L173.818 48.3291L173.904 48.2434C174.078 48.0721 174.338 47.9007 174.599 47.9007H175.553C175.293 47.815 175.119 47.7293 174.946 47.6436C174.772 47.5579 174.512 47.4722 174.425 47.3865C174.425 47.4722 174.338 47.5579 174.252 47.7293C174.165 48.0721 173.818 48.4148 173.297 48.4148H170.954C170.52 48.4148 170.26 48.1578 170.173 48.0721C169.999 47.815 169.999 47.5579 169.999 47.3009C170.607 44.5588 172.429 43.2734 173.991 43.2734C175.119 43.2734 176.074 43.7019 176.681 44.0446C176.855 44.1303 177.202 44.3017 177.289 44.3017C177.289 44.3017 177.289 44.216 177.376 44.1303V44.0446C177.549 43.4448 178.157 43.3591 178.33 43.3591H180.673C181.107 43.3591 181.367 43.6162 181.454 43.7019C181.628 43.959 181.628 44.216 181.628 44.4731C181.107 46.7867 179.545 48.1578 178.157 48.4148L185.706 66.8381L185.446 67.2666C185.272 67.5237 184.925 67.695 184.578 67.695ZM181.541 66.0669H183.45L176.768 49.7002H175.119L168.003 66.0669H169.826L171.908 61.0969H179.545L181.541 66.0669ZM174.338 45.7584C174.772 45.7584 175.206 45.9298 175.727 46.1869C176.247 46.444 176.942 46.7867 177.636 46.7867C178.243 46.7867 179.111 46.2726 179.632 45.0729H178.851C178.59 45.6728 177.983 46.1012 177.289 46.1012C176.855 46.1012 176.421 45.9298 175.9 45.6728C175.38 45.4157 174.685 45.0729 173.991 45.0729C173.297 45.0729 172.429 45.5871 171.995 46.7867H172.863C173.297 45.8441 173.991 45.7584 174.338 45.7584ZM179.024 59.7259H172.342L175.814 51.4997L179.024 59.7259ZM174.946 58.0121H176.595L175.814 56.0412L174.946 58.0121Z" fill="#43ADE2"/>
<path d="M197.335 68.0377C190.826 68.0377 186.834 62.8107 186.834 57.9263C186.834 52.9563 190.479 47.6436 197.335 47.6436C204.19 47.6436 207.835 52.9563 207.835 57.9263C207.835 62.8107 203.843 68.0377 197.335 68.0377ZM197.335 49.3574C193.083 49.3574 188.57 52.3565 188.57 57.9263C188.57 62.982 193.083 66.3239 197.335 66.3239C201.587 66.3239 206.099 62.8963 206.099 57.9263C206.099 52.3565 201.587 49.3574 197.335 49.3574ZM197.335 64.9529C193.516 64.9529 190.653 61.9538 190.653 57.9263C190.653 53.6418 193.343 50.8141 197.335 50.8141C201.327 50.8141 204.017 53.6418 204.017 57.9263C204.017 61.9538 201.153 64.9529 197.335 64.9529ZM197.335 52.5279C194.297 52.5279 192.388 54.5844 192.388 57.9263C192.388 60.5827 194.124 63.2391 197.335 63.2391C200.632 63.2391 202.281 60.5827 202.281 57.9263C202.281 54.5844 200.372 52.5279 197.335 52.5279Z" fill="#43ADE2"/>
<path d="M230.05 67.695H226.666C226.145 67.695 225.711 67.2665 225.711 66.7524V53.042L220.244 52.9563C219.724 52.9563 219.29 52.5279 219.29 52.0137V48.8432C219.29 48.3291 219.724 47.9006 220.244 47.9006H236.559C237.079 47.9006 237.513 48.3291 237.513 48.8432V52.0137C237.513 52.5279 237.079 52.9563 236.559 52.9563L231.005 53.042V66.7524C231.005 67.3522 230.658 67.695 230.05 67.695ZM227.534 66.0669H229.356V51.4139L235.778 51.3282V49.7001H221.025V51.3282L227.447 51.4139V66.0669H227.534Z" fill="#43ADE2"/>
<path d="M254.782 67.695H242.113C241.592 67.695 241.158 67.2665 241.158 66.7524V48.9289C241.158 48.4148 241.592 47.9863 242.113 47.9863H254.088C254.609 47.9863 255.043 48.4148 255.043 48.9289V52.0994C255.043 52.6136 254.609 53.042 254.088 53.042L246.365 53.1277V55.6984L251.485 55.7841C252.005 55.7841 252.439 56.2125 252.439 56.7267V59.8115C252.439 60.3257 252.005 60.7541 251.485 60.7541L246.365 60.8398V62.982H254.695C255.216 62.982 255.65 63.4105 255.65 63.9246V66.8381C255.737 67.3522 255.303 67.695 254.782 67.695ZM242.894 66.0669H254.001V64.4388H244.716V58.9546L250.79 58.8689V57.3265L244.716 57.2408V51.3282L253.307 51.2425V49.7001H242.894V66.0669Z" fill="#43ADE2"/>
<path d="M273.874 67.695H261.204C260.683 67.695 260.249 67.2665 260.249 66.7524V48.9289C260.249 48.4148 260.683 47.9863 261.204 47.9863H264.588C265.109 47.9863 265.543 48.4148 265.543 48.9289V62.725H273.874C274.394 62.725 274.828 63.1534 274.828 63.6676V66.8381C274.828 67.3522 274.394 67.695 273.874 67.695ZM261.985 66.0669H273.093V64.4388H263.807V49.7001H261.985V66.0669Z" fill="#43ADE2"/>
<path d="M292.791 67.695H280.122C279.601 67.695 279.167 67.2665 279.167 66.7524V48.9289C279.167 48.4148 279.601 47.9863 280.122 47.9863H292.097C292.618 47.9863 293.052 48.4148 293.052 48.9289V52.0994C293.052 52.6136 292.618 53.042 292.097 53.042L284.374 53.1277V55.6984L289.494 55.7841C290.014 55.7841 290.448 56.2125 290.448 56.7267V59.8115C290.448 60.3257 290.014 60.7541 289.494 60.7541L284.374 60.8398V62.982H292.704C293.225 62.982 293.659 63.4105 293.659 63.9246V66.8381C293.746 67.3522 293.312 67.695 292.791 67.695ZM280.903 66.0669H292.01V64.4388H282.725V58.9546L288.799 58.8689V57.3265L282.725 57.2408V51.3282L291.316 51.2425V49.7001H280.903V66.0669ZM289.58 58.8689C289.58 58.8689 289.494 58.8689 289.58 58.8689V58.8689ZM289.494 57.3265C289.58 57.3265 289.58 57.3265 289.494 57.3265V57.3265Z" fill="#43ADE2"/>
<path d="M303.812 68.0377C299.734 68.0377 297.564 65.5527 296.61 64.0103L296.523 63.8389V63.5819C296.523 63.1534 296.696 62.8963 296.957 62.8107L299.473 61.0112C299.82 60.8398 300.254 60.8398 300.601 61.1825L300.688 61.3539C301.469 62.5536 302.858 63.3248 304.42 63.3248C305.461 63.3248 305.808 62.725 305.808 62.1251C305.808 61.7824 305.808 60.9255 303.552 60.0686C300.601 59.0403 297.564 57.4979 297.564 53.4705C297.564 50.1286 300.167 47.6436 303.725 47.6436C306.416 47.6436 308.672 48.8432 310.407 51.0711L310.581 51.2425V51.671C310.581 51.928 310.494 52.1851 310.321 52.3565L308.064 54.2417C307.717 54.5844 307.197 54.4987 306.849 54.156C305.895 53.042 304.94 52.5279 303.899 52.5279C303.118 52.5279 302.684 52.9563 302.684 53.7275C302.684 54.156 303.118 54.5844 305.114 55.27C308.759 56.4696 310.754 58.7832 310.754 61.7824C310.754 64.6958 308.932 68.0377 303.812 68.0377ZM298.519 63.7532C299.473 65.0386 301.209 66.4096 303.812 66.4096C308.672 66.4096 309.019 62.8963 309.019 61.7824C309.019 58.9546 306.589 57.4979 304.506 56.8981C302.684 56.2982 300.862 55.527 300.862 53.7275C300.862 52.0137 301.99 50.8141 303.725 50.8141C305.027 50.8141 306.329 51.3282 307.37 52.4422L308.411 51.5853C307.11 50.1286 305.461 49.3574 303.552 49.3574C300.948 49.3574 299.126 51.0712 299.126 53.4705C299.126 55.8698 300.515 57.2408 303.986 58.4405C306.242 59.2117 307.37 60.497 307.37 62.0394C307.37 63.4962 306.329 64.8672 304.246 64.8672C302.424 64.8672 300.775 64.096 299.647 62.8107L298.519 63.7532ZM307.023 52.8706L306.936 52.9563L307.023 52.8706Z" fill="#43ADE2"/>
<path d="M316.916 71.5511H314.833L314.573 71.037C314.399 70.6942 314.486 70.2657 314.833 70.0087L314.92 69.923C315.527 69.4089 316.048 68.552 316.395 67.7807H315.788C315.267 67.7807 314.833 67.3523 314.833 66.8382V62.5537C314.833 62.0395 315.267 61.6111 315.788 61.6111H319.953C320.474 61.6111 320.908 62.0395 320.908 62.5537V66.2383C320.908 68.1235 318.565 70.7799 317.61 71.3797C317.35 71.3797 317.176 71.5511 316.916 71.5511ZM316.482 66.067H318.391L318.304 67.0095C318.217 67.6094 318.044 68.2949 317.697 68.9804C318.391 68.1235 319.172 67.0095 319.172 66.2383V63.3249H316.569V66.067H316.482Z" fill="#43ADE2"/>
<path d="M341.648 68.0377C337.569 68.0377 335.4 65.5527 334.445 64.0103L334.358 63.8389V63.5819C334.358 63.1534 334.532 62.8963 334.792 62.8107L337.309 61.0112C337.656 60.8398 338.176 60.9255 338.437 61.1825L338.524 61.3539C339.305 62.5536 340.693 63.3248 342.255 63.3248C343.296 63.3248 343.643 62.725 343.643 62.1251C343.643 61.7824 343.643 60.9255 341.387 60.0686C338.437 59.0403 335.4 57.4979 335.4 53.4705C335.4 50.1286 338.003 47.6436 341.561 47.6436C344.251 47.6436 346.594 48.8432 348.243 51.0711C348.503 51.4139 348.503 51.928 348.156 52.2708L348.069 52.3565L345.813 54.156C345.466 54.4987 344.945 54.4131 344.598 54.0703C343.643 52.9563 342.689 52.4422 341.648 52.4422C340.867 52.4422 340.433 52.8706 340.433 53.6418C340.433 54.0703 340.867 54.4987 342.862 55.1843C346.507 56.3839 348.503 58.6975 348.503 61.6967C348.59 64.6958 346.768 68.0377 341.648 68.0377ZM336.354 63.7532C337.309 65.0386 339.044 66.4096 341.648 66.4096C346.507 66.4096 346.854 62.8963 346.854 61.7824C346.854 58.9546 344.424 57.4979 342.342 56.8981C340.519 56.2982 338.697 55.527 338.697 53.7275C338.697 52.0137 339.825 50.8141 341.561 50.8141C342.862 50.8141 344.164 51.3282 345.205 52.4422L346.247 51.5853C344.945 50.1286 343.296 49.3574 341.387 49.3574C338.784 49.3574 336.962 51.0712 336.962 53.4705C336.962 55.8698 338.35 57.2408 341.821 58.4405C344.077 59.2117 345.205 60.497 345.205 62.0394C345.205 63.4962 344.164 64.8672 342.081 64.8672C340.259 64.8672 338.61 64.096 337.482 62.8107L336.354 63.7532ZM344.858 52.8706L344.772 52.9563L344.858 52.8706Z" fill="#43ADE2"/>
<path d="M361.954 68.0377C355.445 68.0377 351.454 62.8107 351.454 57.9263C351.454 52.9563 355.098 47.6436 361.954 47.6436C368.809 47.6436 372.454 52.9563 372.454 57.9263C372.454 62.8107 368.375 68.0377 361.954 68.0377ZM361.954 49.3574C357.702 49.3574 353.189 52.3565 353.189 57.9263C353.189 62.982 357.702 66.3239 361.954 66.3239C366.206 66.3239 370.719 62.8963 370.719 57.9263C370.719 52.3565 366.206 49.3574 361.954 49.3574ZM361.954 64.9529C358.136 64.9529 355.272 61.9538 355.272 57.9263C355.272 53.6418 357.962 50.8141 361.954 50.8141C365.946 50.8141 368.636 53.6418 368.636 57.9263C368.636 61.9538 365.772 64.9529 361.954 64.9529ZM361.954 52.5279C358.917 52.5279 357.007 54.5844 357.007 57.9263C357.007 60.5827 358.743 63.2391 361.954 63.2391C365.251 63.2391 366.9 60.5827 366.9 57.9263C366.9 54.5844 364.991 52.5279 361.954 52.5279Z" fill="#43ADE2"/>
<path d="M392.5 67.695H388.855C388.595 67.695 388.335 67.6093 388.161 67.3522L388.074 67.2665L386.252 62.725H380.958L379.049 67.2665L378.962 67.3522C378.789 67.5236 378.529 67.695 378.268 67.695H374.71C374.363 67.695 374.103 67.5236 373.929 67.2665L373.669 66.8381L373.929 66.3239L381.739 48.3291L381.826 48.2434C382 48.072 382.26 47.9006 382.52 47.9006H385.211C385.471 47.9006 385.731 47.9863 385.905 48.2434L385.992 48.3291L393.541 66.7524L393.281 67.1808C393.107 67.5236 392.76 67.695 392.5 67.695ZM389.376 66.0669H391.285L384.603 49.7001H382.954L375.838 66.0669H377.661L379.743 61.0969H387.38L389.376 66.0669ZM386.946 59.7258H380.264L383.735 51.4996L386.946 59.7258ZM382.781 58.012H384.43L383.649 56.0412L382.781 58.012Z" fill="#43ADE2"/>
<path d="M411.678 67.695H407.513C407.252 67.695 406.992 67.6093 406.818 67.3522L406.732 67.2665L403.781 60.9255H401.959V66.8381C401.959 67.3522 401.525 67.7807 401.004 67.7807H397.793C397.273 67.7807 396.839 67.3522 396.839 66.8381V48.9289C396.839 48.4148 397.273 47.9863 397.793 47.9863H405.256C407.339 47.9863 411.331 49.3574 411.331 54.4988C411.331 56.5553 410.29 58.3548 408.641 59.2974C409.335 60.5827 410.637 63.0677 411.504 64.6102C411.852 65.3814 412.199 65.8955 412.459 66.1526C412.719 66.4096 412.719 66.7524 412.633 67.0952C412.459 67.5236 412.112 67.695 411.678 67.695ZM408.033 66.0669H410.29C410.203 65.8955 410.116 65.7241 409.942 65.4671C408.901 63.4105 406.992 59.9829 406.732 59.3831L406.298 58.5262L407.252 58.1834C408.728 57.6693 409.769 56.2126 409.769 54.5844C409.769 49.8715 405.864 49.7858 405.343 49.7858H398.661V66.1526H400.31V59.3831H404.909L408.033 66.0669ZM404.215 57.4979H400.31V51.0712H404.736C406.992 51.0712 407.947 52.6993 407.947 54.3274C407.947 56.2982 406.558 57.4979 404.215 57.4979ZM402.046 55.8698H404.215C406.298 55.8698 406.298 54.8415 406.298 54.4131C406.298 53.8132 406.124 52.8706 404.736 52.8706H402.046V55.8698Z" fill="#43ADE2"/>
<path d="M430.335 67.695H417.666C417.145 67.695 416.711 67.2665 416.711 66.7524V48.9289C416.711 48.4148 417.145 47.9863 417.666 47.9863H429.641C430.162 47.9863 430.596 48.4148 430.596 48.9289V52.0994C430.596 52.6136 430.162 53.042 429.641 53.042L421.918 53.1277V55.6984L427.038 55.7841C427.558 55.7841 427.992 56.2125 427.992 56.7267V59.8115C427.992 60.3257 427.558 60.7541 427.038 60.7541L421.918 60.8398V62.982H430.249C430.769 62.982 431.203 63.4105 431.203 63.9246V66.8381C431.29 67.3522 430.856 67.695 430.335 67.695ZM418.447 66.0669H429.554V64.4388H420.269V58.9546L426.344 58.8689V57.3265L420.269 57.2408V51.3282L428.86 51.2425V49.7001H418.447V66.0669Z" fill="#43ADE2"/>
<path d="M441.356 68.0377C437.278 68.0377 435.108 65.5527 434.154 64.0103L434.067 63.8389V63.5819C434.067 63.1534 434.24 62.8963 434.501 62.8107L437.017 61.0112C437.364 60.8398 437.885 60.9255 438.145 61.1825L438.232 61.3539C439.013 62.5536 440.402 63.3248 441.964 63.3248C443.005 63.3248 443.352 62.725 443.352 62.1251C443.352 61.7824 443.352 60.9255 441.096 60.0686C438.145 59.0403 435.108 57.4979 435.108 53.4705C435.108 50.1286 437.712 47.6436 441.27 47.6436C443.96 47.6436 446.303 48.8432 447.952 51.0711C448.212 51.4139 448.212 51.928 447.865 52.2708L447.778 52.3565L445.608 54.156C445.261 54.4987 444.654 54.4131 444.307 54.156L444.22 54.0703C443.265 53.042 442.311 52.4422 441.27 52.4422C440.489 52.4422 440.055 52.8706 440.055 53.6418C440.055 54.0703 440.489 54.4987 442.484 55.1843C446.129 56.3839 448.125 58.6975 448.125 61.6967C448.299 64.6958 446.476 68.0377 441.356 68.0377ZM436.063 63.7532C437.104 65.0386 438.753 66.4096 441.356 66.4096C446.216 66.4096 446.563 62.8963 446.563 61.7824C446.563 58.9546 444.133 57.4979 442.051 56.8981C440.228 56.2982 438.406 55.527 438.406 53.7275C438.406 52.0137 439.534 50.8141 441.27 50.8141C442.571 50.8141 443.873 51.3282 444.914 52.4422L445.956 51.5853C444.654 50.1286 443.005 49.3574 441.096 49.3574C438.493 49.3574 436.67 51.0712 436.67 53.4705C436.67 55.8698 438.059 57.2408 441.53 58.4405C443.786 59.2117 444.914 60.497 444.914 62.0394C444.914 63.4962 443.873 64.8672 441.79 64.8672C439.968 64.8672 438.319 64.096 437.191 62.8107L436.063 63.7532Z" fill="#43ADE2"/>
<path d="M470.688 67.695H463.398C462.877 67.695 462.444 67.2665 462.444 66.7524V48.9289C462.444 48.4148 462.877 47.9863 463.398 47.9863H469.993C471.469 47.9863 473.117 48.3291 474.506 49.0146C476.762 50.0429 479.452 52.4422 479.452 58.0977C479.452 62.725 476.675 67.695 470.688 67.695ZM464.179 66.0669H470.601C474.159 66.0669 477.63 63.5819 477.63 58.0977C477.63 54.2417 476.328 51.7567 473.725 50.557C472.51 50.0429 471.208 49.7001 469.907 49.7001H464.092V66.0669H464.179ZM470.688 64.5245H466.002V51.1569H469.733C470.774 51.1569 471.902 51.4139 472.857 51.9281C474.853 52.9563 475.894 54.9272 475.894 57.8407C475.894 62.4679 473.204 64.5245 470.688 64.5245ZM467.737 62.8964H470.688C471.989 62.8964 474.245 61.8681 474.245 57.9263C474.245 55.0129 473.031 53.9846 472.076 53.5562C471.382 53.2134 470.514 52.9563 469.733 52.9563H467.737V62.8964Z" fill="#43ADE2"/>
<path d="M499.845 67.695H496.2C495.94 67.695 495.68 67.6093 495.506 67.3522L495.419 67.2665L493.597 62.725H488.304L486.394 67.2665L486.308 67.3522C486.134 67.5236 485.874 67.695 485.613 67.695H482.055C481.708 67.695 481.448 67.5236 481.274 67.2665L481.014 66.8381L481.274 66.3239L489.085 48.3291L489.171 48.2434C489.345 48.072 489.605 47.9006 489.866 47.9006H492.556C492.816 47.9006 493.076 47.9863 493.25 48.2434L493.337 48.3291L500.886 66.7524L500.626 67.1808C500.453 67.5236 500.105 67.695 499.845 67.695ZM496.721 66.0669H498.63L491.948 49.7001H490.299L483.184 66.0669H485.006L487.089 61.0969H494.725L496.721 66.0669ZM494.291 59.7258H487.609L491.08 51.4996L494.291 59.7258ZM490.126 58.012H491.775L490.994 56.0412L490.126 58.012Z" fill="#43ADE2"/>
<path d="M519.197 68.0377C515.118 68.0377 512.949 65.5527 511.994 64.0103L511.907 63.8389V63.5819C511.907 63.1534 512.081 62.8963 512.341 62.725L514.858 60.9255C515.205 60.7541 515.639 60.7541 515.986 61.0969L516.073 61.2682C516.854 62.4679 518.242 63.2391 519.804 63.2391C520.846 63.2391 521.193 62.6393 521.193 62.0394C521.193 61.6967 521.193 60.8398 518.936 59.9829C515.986 58.9546 512.949 57.4122 512.949 53.3848C512.949 50.0429 515.552 47.5579 519.11 47.5579C521.8 47.5579 524.056 48.7575 525.792 50.9855L525.966 51.1568V51.5853C525.966 51.8424 525.879 52.0994 525.705 52.2708L523.449 54.156C523.189 54.413 522.581 54.4987 522.234 54.0703L522.147 53.9846C521.193 52.9563 520.238 52.3565 519.197 52.3565C518.416 52.3565 517.982 52.7849 517.982 53.5561C517.982 53.9846 518.416 54.413 520.412 55.0986C524.056 56.2982 526.052 58.6118 526.052 61.611C526.139 64.6958 524.317 68.0377 519.197 68.0377ZM513.903 63.7532C514.858 65.0386 516.593 66.4096 519.197 66.4096C524.056 66.4096 524.404 62.8963 524.404 61.7824C524.404 58.9546 521.974 57.4979 519.891 56.8981C518.069 56.2982 516.246 55.527 516.246 53.7275C516.246 52.0137 517.374 50.8141 519.11 50.8141C520.412 50.8141 521.713 51.3282 522.755 52.4422L523.796 51.5853C522.494 50.1286 520.846 49.3573 518.936 49.3573C516.333 49.3573 514.511 51.0711 514.511 53.4705C514.511 55.8698 515.899 57.2408 519.37 58.4405C521.627 59.2117 522.755 60.497 522.755 62.0394C522.755 63.4962 521.713 64.8672 519.631 64.8672C517.808 64.8672 516.16 64.096 515.031 62.8107L513.903 63.7532ZM522.408 52.8706L522.321 52.9563L522.408 52.8706Z" fill="#43ADE2"/>
<path d="M535.251 67.695H531.866C531.346 67.695 530.912 67.2665 530.912 66.7524V48.9289C530.912 48.4148 531.346 47.9863 531.866 47.9863H535.251C535.772 47.9863 536.205 48.4148 536.205 48.9289V66.8381C536.205 67.3522 535.772 67.695 535.251 67.695ZM532.647 66.0669H534.47V49.7001H532.647V66.0669Z" fill="#43ADE2"/>
<path d="M555.557 67.695H542.887C542.367 67.695 541.933 67.2665 541.933 66.7524V48.9289C541.933 48.4148 542.367 47.9863 542.887 47.9863H546.272C546.792 47.9863 547.226 48.4148 547.226 48.9289V62.725H555.557C556.078 62.725 556.512 63.1534 556.512 63.6676V66.8381C556.512 67.3522 556.078 67.695 555.557 67.695ZM543.668 66.0669H554.776V64.4388H545.491V49.7001H543.668V66.0669Z" fill="#43ADE2"/>
<path d="M566.665 67.695H564.322C564.061 67.695 563.888 67.6093 563.628 67.4379L563.454 67.3522L563.367 67.1809L556.338 49.3574L556.165 49.0146L556.425 48.5862C556.598 48.3291 556.946 48.1577 557.206 48.1577H560.937C561.371 48.1577 561.718 48.4148 561.805 48.8432L565.623 58.9546L569.789 48.6719L569.876 48.5862C570.049 48.4148 570.31 48.3291 570.57 48.3291H574.128C574.475 48.3291 574.735 48.5005 574.909 48.7575L575.169 49.186L574.996 49.7001L567.359 67.695L567.272 67.7807C567.099 67.6093 566.925 67.695 566.665 67.695ZM564.842 66.0669H566.057L573 49.7001H571.091L565.537 63.4962L560.504 49.7001H558.421L564.842 66.0669Z" fill="#43ADE2"/>
<path d="M592.959 67.695H589.314C589.054 67.695 588.793 67.6093 588.62 67.3522L588.533 67.2665L586.711 62.725H581.417L579.508 67.2665L579.421 67.3522C579.248 67.5236 578.987 67.695 578.727 67.695H575.169C574.822 67.695 574.562 67.5236 574.388 67.2665L574.128 66.8381L574.388 66.3239L582.198 48.3291L582.285 48.2434C582.458 48.072 582.719 47.9006 582.979 47.9006H585.669C585.93 47.9006 586.19 47.9863 586.363 48.2434L586.45 48.3291L594 66.7524L593.74 67.1808C593.566 67.5236 593.306 67.695 592.959 67.695ZM589.835 66.0669H591.744L585.062 49.7001H583.413L576.297 66.0669H578.12L580.202 61.0969H587.839L589.835 66.0669ZM587.405 59.7258H580.723L584.194 51.4996L587.405 59.7258ZM583.326 58.012H584.975L584.194 56.0412L583.326 58.012Z" fill="#43ADE2"/>
<path d="M135.548 99.143H131.904C131.643 99.143 131.47 99.0573 131.209 98.8859L131.036 98.7145V98.5431L129.3 94.173H124.007L122.098 98.7145L122.011 98.8002L121.403 98.2004L122.011 98.8002C121.837 98.9716 121.577 99.0573 121.317 99.0573H117.759C117.412 99.0573 117.151 98.8859 116.978 98.6288L116.717 98.2004L116.978 97.6863L124.701 79.7771L124.788 79.6914C124.961 79.52 125.222 79.3486 125.482 79.3486H128.172C128.432 79.3486 128.693 79.4343 128.866 79.6914L128.953 79.7771L136.503 98.1147L136.242 98.5431C136.156 98.9716 135.895 99.143 135.548 99.143ZM132.424 97.5149H134.333L127.651 81.2338H126.003L118.974 97.5149H120.796L122.879 92.5449H130.515L132.424 97.5149ZM129.994 91.2595H123.312L126.784 83.0333L129.994 91.2595ZM125.916 89.5457H127.565L126.784 87.5749L125.916 89.5457Z" fill="#43ADE2"/>
<path d="M145.441 99.486C141.362 99.486 139.193 97.001 138.238 95.4585L138.152 95.2872V95.0301C138.152 94.6016 138.325 94.3446 138.586 94.2589L141.015 92.4594C141.362 92.288 141.883 92.288 142.143 92.6308L142.23 92.8022C143.011 94.0018 144.4 94.773 145.875 94.773C146.916 94.773 147.263 94.1732 147.263 93.5734C147.263 93.2306 147.263 92.3737 145.007 91.5168C142.057 90.4885 139.019 88.9461 139.019 84.9187C139.019 81.5768 141.623 79.0918 145.181 79.0918C147.871 79.0918 150.127 80.2915 151.776 82.5194L151.949 82.6908V83.462L151.602 83.8047L149.433 85.6042C149.086 85.947 148.478 85.8613 148.131 85.6042C147.177 84.4903 146.222 83.9761 145.181 83.9761C144.4 83.9761 143.966 84.4046 143.966 85.1758C143.966 85.6042 144.4 86.0327 146.396 86.7182C150.04 87.9178 152.036 90.2315 152.036 93.2306C152.383 96.1441 150.561 99.486 145.441 99.486ZM140.148 95.2015C141.102 96.4868 142.838 97.8578 145.441 97.8578C150.301 97.8578 150.648 94.3446 150.648 93.2306C150.648 90.4028 148.218 89.0318 146.135 88.3463C144.313 87.7465 142.491 86.9753 142.491 85.1758C142.491 83.462 143.619 82.2623 145.354 82.2623C146.656 82.2623 147.871 82.7765 148.999 83.8904L150.04 83.0335C148.739 81.5768 147.177 80.8056 145.181 80.8056C142.577 80.8056 140.755 82.5194 140.755 84.9187C140.755 87.318 142.143 88.689 145.528 89.8887C147.784 90.6599 148.912 91.8596 148.912 93.4877C148.912 94.9444 147.871 96.3154 145.788 96.3154C143.966 96.3154 142.317 95.5442 141.189 94.2589L140.148 95.2015Z" fill="#43ADE2"/>
<path d="M162.536 99.486C158.458 99.486 156.288 97.001 155.334 95.4585L155.247 95.2872V95.0301C155.247 94.6016 155.421 94.3446 155.681 94.2589L158.111 92.4594C158.458 92.288 158.979 92.288 159.239 92.6308L159.326 92.8022C160.107 94.0018 161.495 94.773 162.97 94.773C164.012 94.773 164.359 94.1732 164.359 93.5734C164.359 93.2306 164.359 92.3737 162.103 91.5168C159.152 90.4885 156.115 88.9461 156.115 84.9187C156.115 81.5768 158.718 79.0918 162.276 79.0918C164.966 79.0918 167.223 80.2915 168.871 82.5194L169.045 82.6908V83.462L168.698 83.8047L166.528 85.6042C166.181 85.947 165.574 85.947 165.227 85.6042L165.14 85.5185C164.185 84.4903 163.231 83.9761 162.276 83.9761C161.495 83.9761 161.061 84.4046 161.061 85.1758C161.061 85.6042 161.495 86.0327 163.491 86.7182C167.136 87.9178 169.132 90.2315 169.132 93.2306C169.479 96.1441 167.656 99.486 162.536 99.486ZM157.243 95.2015C158.198 96.4868 159.933 97.8578 162.536 97.8578C167.396 97.8578 167.743 94.3446 167.743 93.2306C167.743 90.4028 165.313 89.0318 163.231 88.3463C161.408 87.7465 159.586 86.9753 159.586 85.1758C159.586 83.462 160.714 82.2623 162.45 82.2623C163.751 82.2623 164.966 82.7765 166.094 83.8904L167.136 83.0335C165.834 81.5768 164.272 80.8056 162.276 80.8056C159.673 80.8056 157.85 82.5194 157.85 84.9187C157.85 87.318 159.239 88.689 162.623 89.8887C164.88 90.6599 166.008 91.8596 166.008 93.4877C166.008 94.9444 164.966 96.3154 162.884 96.3154C161.061 96.3154 159.412 95.5442 158.284 94.2589L157.243 95.2015Z" fill="#43ADE2"/>
<path d="M182.669 99.486C176.248 99.486 172.169 94.2589 172.169 89.3746C172.169 84.4046 175.814 79.0918 182.669 79.0918C189.438 79.0918 193.169 84.4046 193.169 89.3746C193.169 94.2589 189.178 99.486 182.669 99.486ZM182.669 80.8913C178.417 80.8913 173.905 83.8904 173.905 89.4603C173.905 94.516 178.417 97.8578 182.669 97.8578C186.921 97.8578 191.434 94.516 191.434 89.4603C191.434 83.8904 186.921 80.8913 182.669 80.8913ZM182.669 96.4011C178.851 96.4011 175.987 93.402 175.987 89.3746C175.987 85.0901 178.677 82.2623 182.669 82.2623C186.661 82.2623 189.351 85.0901 189.351 89.3746C189.351 93.402 186.487 96.4011 182.669 96.4011ZM182.669 83.9761C179.632 83.9761 177.723 86.0327 177.723 89.3746C177.723 92.0309 179.458 94.6873 182.669 94.6873C185.967 94.6873 187.616 92.0309 187.616 89.3746C187.702 86.0327 185.793 83.9761 182.669 83.9761Z" fill="#43ADE2"/>
<path d="M205.665 99.5714C200.806 99.5714 195.512 96.4009 195.512 89.3743C195.512 84.3186 198.983 79.2629 205.579 79.2629C210.438 79.2629 212.521 81.6623 213.042 82.3478L213.215 82.5192V83.2904L212.955 83.5474L210.785 85.8611L210.612 86.1181L210.178 86.2038C209.918 86.2895 209.57 86.1181 209.397 85.9467L209.31 85.8611C208.789 85.1755 207.488 84.1473 205.752 84.1473C202.715 84.1473 200.979 86.0324 200.979 89.46C200.979 92.8019 202.889 94.8585 206.013 94.8585C208.269 94.8585 209.484 93.4018 209.657 93.1447L209.744 93.059L210.091 92.7162H210.612C210.872 92.7162 211.046 92.8876 211.219 93.059L213.215 95.4583C213.562 95.8011 213.562 96.4009 213.215 96.7437C211.393 98.5432 208.789 99.5714 205.665 99.5714ZM205.579 80.891C200.112 80.891 197.248 85.1755 197.248 89.3743C197.248 95.2869 201.5 97.9433 205.665 97.9433C208.008 97.9433 210.004 97.3435 211.393 96.0581L210.351 94.8585C209.57 95.6297 208.095 96.4866 206.013 96.4866C201.934 96.4866 199.244 93.6588 199.244 89.3743C199.244 85.0899 201.76 82.3478 205.752 82.3478C207.488 82.3478 209.05 83.119 210.091 84.0616L211.306 82.7762C210.525 82.0907 208.789 80.891 205.579 80.891ZM211.74 82.2621C211.74 82.3478 211.74 82.3478 211.74 82.2621V82.2621Z" fill="#43ADE2"/>
<path d="M221.719 99.1432H218.335C217.814 99.1432 217.381 98.7148 217.381 98.2006V80.4629C217.381 79.9487 217.814 79.5203 218.335 79.5203H221.719C222.24 79.5203 222.674 79.9487 222.674 80.4629V98.2863C222.674 98.8005 222.24 99.1432 221.719 99.1432ZM219.116 97.5151H220.938V81.2341H219.116V97.5151Z" fill="#43ADE2"/>
<path d="M244.889 99.143H240.898L240.464 98.7145L238.641 94.173H233.348L231.439 98.7145L231.352 98.8002L230.744 98.2004L231.352 98.8002C231.178 98.9716 230.918 99.0573 230.658 99.0573H227.1C226.753 99.0573 226.492 98.8859 226.319 98.6288L226.058 98.2004L226.232 97.6863L233.955 79.7771L234.042 79.6914C234.216 79.52 234.476 79.3486 234.736 79.3486H237.426C237.687 79.3486 237.947 79.4343 238.121 79.6057L238.207 79.6914L238.294 79.8628L245.757 98.1147L245.497 98.5431C245.497 98.9716 245.237 99.143 244.889 99.143ZM241.852 97.5149H243.761L237.079 81.2338H235.431L228.401 97.5149H230.224L232.306 92.5449H239.943L241.852 97.5149ZM239.336 91.2595H232.654L236.125 83.0333L239.336 91.2595ZM235.257 89.5457H236.906L236.125 87.5749L235.257 89.5457Z" fill="#43ADE2"/>
<path d="M257.386 99.1432H250.183C249.662 99.1432 249.228 98.7148 249.228 98.2006V80.4629C249.228 79.9487 249.662 79.5203 250.183 79.5203H256.691C258.167 79.5203 259.815 79.863 261.204 80.5485C263.46 81.5768 266.15 83.9761 266.15 89.6317C266.15 94.1732 263.373 99.1432 257.386 99.1432ZM250.964 97.5151H257.386C260.857 97.5151 264.415 95.0301 264.415 89.6317C264.415 85.8613 263.113 83.2906 260.51 82.091C259.295 81.5768 257.993 81.2341 256.691 81.2341H250.964V97.5151ZM257.386 96.0584H252.786V82.6908H256.518C257.559 82.6908 258.687 82.9479 259.642 83.462C261.638 84.4903 262.679 86.4611 262.679 89.3746C262.679 93.9162 259.902 96.0584 257.386 96.0584ZM254.522 94.3446H257.386C258.687 94.3446 260.944 93.3163 260.944 89.3746C260.944 86.4611 259.729 85.4329 258.774 85.0044C258.08 84.6616 257.212 84.4046 256.518 84.4046H254.522V94.3446Z" fill="#43ADE2"/>
<path d="M278.993 99.486C272.572 99.486 268.493 94.2589 268.493 89.3746C268.493 84.4046 272.138 79.0918 278.993 79.0918C285.762 79.0918 289.494 84.4046 289.494 89.3746C289.494 94.2589 285.502 99.486 278.993 99.486ZM278.993 80.8913C274.741 80.8913 270.229 83.8904 270.229 89.4603C270.229 94.516 274.741 97.8578 278.993 97.8578C283.246 97.8578 287.758 94.516 287.758 89.4603C287.758 83.8904 283.246 80.8913 278.993 80.8913ZM278.993 96.4011C275.175 96.4011 272.311 93.402 272.311 89.3746C272.311 85.0901 275.002 82.2623 278.993 82.2623C282.985 82.2623 285.675 85.0901 285.675 89.3746C285.675 93.402 282.812 96.4011 278.993 96.4011ZM278.993 83.9761C275.956 83.9761 274.047 86.0327 274.047 89.3746C274.047 92.0309 275.783 94.6873 278.993 94.6873C282.291 94.6873 283.94 92.0309 283.94 89.3746C284.027 86.0327 282.117 83.9761 278.993 83.9761Z" fill="#43ADE2"/>
<path d="M298.779 99.486C294.7 99.486 292.531 97.001 291.576 95.4585L291.49 95.2872V95.0301C291.49 94.6016 291.663 94.3446 291.923 94.2589L294.353 92.4594C294.787 92.288 295.221 92.288 295.481 92.6308L295.568 92.8022C296.349 94.0018 297.738 94.773 299.213 94.773C300.254 94.773 300.601 94.1732 300.601 93.5734C300.601 93.2306 300.601 92.3737 298.345 91.5168C295.395 90.4885 292.357 88.9461 292.357 84.9187C292.357 81.5768 294.961 79.0918 298.519 79.0918C301.209 79.0918 303.465 80.2915 305.201 82.5194C305.461 82.8621 305.461 83.3763 305.114 83.719L305.027 83.8047L302.858 85.6042C302.51 85.947 301.903 85.8613 301.556 85.6042C300.601 84.4903 299.647 83.9761 298.605 83.9761C297.824 83.9761 297.391 84.4046 297.391 85.1758C297.391 85.6042 297.824 86.0327 299.82 86.7182C303.465 87.9178 305.461 90.2315 305.461 93.2306C305.635 96.1441 303.899 99.486 298.779 99.486ZM293.485 95.2015C294.44 96.4868 296.176 97.8578 298.779 97.8578C303.639 97.8578 303.986 94.3446 303.986 93.2306C303.986 90.4028 301.556 89.0318 299.473 88.3463C297.651 87.7465 295.829 86.9753 295.829 85.1758C295.829 83.462 296.957 82.2623 298.692 82.2623C299.994 82.2623 301.209 82.7765 302.337 83.8904L303.378 83.0335C302.077 81.5768 300.515 80.8056 298.519 80.8056C295.915 80.8056 294.093 82.5194 294.093 84.9187C294.093 87.318 295.481 88.689 298.866 89.8887C301.122 90.6599 302.25 91.8596 302.25 93.4877C302.25 94.9444 301.209 96.3154 299.126 96.3154C297.304 96.3154 295.655 95.5442 294.527 94.2589L293.485 95.2015Z" fill="#43ADE2"/>
<path d="M96.7582 100C94.7623 100 93.0267 99.4003 91.725 98.2006C90.3366 97.0009 89.6423 95.3728 89.6423 93.4877C89.6423 92.2023 89.9894 91.0883 90.5969 90.0601C90.944 89.5459 91.2911 89.2032 91.725 88.8604C91.4647 88.6033 91.2911 88.2606 91.0308 87.9178C90.5101 87.0609 90.2498 85.947 90.2498 84.833C90.2498 83.0335 90.8572 81.4911 92.0721 80.3771C93.287 79.1775 94.8491 78.5776 96.7582 78.5776H97.7995V82.9478H96.7582C96.1507 82.9478 95.7168 83.1192 95.3697 83.462C95.0226 83.8047 94.8491 84.3189 94.8491 84.9187C94.8491 85.5185 95.0226 86.0327 95.3697 86.3754C95.7168 86.7182 96.1507 86.8896 96.7582 86.8896H98.3202V91.174H96.7582C95.9772 91.174 95.3697 91.3454 94.9358 91.8596C94.5019 92.288 94.2416 92.8021 94.2416 93.4877C94.2416 94.1732 94.5019 94.6873 94.9358 95.1158C95.3697 95.5442 96.064 95.7156 96.7582 95.7156C97.4524 95.7156 98.0599 95.5442 98.5805 95.1158C99.0144 94.6873 99.2748 94.1732 99.2748 93.4877C99.2748 93.3163 99.2748 93.0592 99.188 92.8878C99.1012 92.6308 99.0144 92.4594 98.9276 92.288L98.7541 92.1166V88.0035L105.523 82.9478V88.5177L102.919 90.4028C102.919 90.4885 103.006 90.4885 103.006 90.5742C103.527 91.4311 103.787 92.4594 103.787 93.5733C103.787 95.4585 103.093 97.0009 101.705 98.2863C100.403 99.4003 98.6673 100 96.7582 100ZM96.064 80.2914C94.9358 80.3771 93.9813 80.8056 93.287 81.5768C92.4192 82.4337 91.9854 83.5476 91.9854 84.833C91.9854 85.6899 92.1589 86.4611 92.5928 87.0609C92.9399 87.5751 93.287 88.0035 93.7209 88.2606L94.9358 89.1175L93.5474 89.7173C92.9399 89.9744 92.4192 90.4028 92.0721 91.0027C91.6382 91.6882 91.3779 92.5451 91.3779 93.4877C91.3779 94.8587 91.8986 96.0584 92.8531 96.9153C93.8945 97.8578 95.1962 98.2863 96.7582 98.2863C98.3202 98.2863 99.6219 97.8578 100.663 96.9153C101.705 95.9727 102.138 94.8587 102.138 93.4877C102.138 92.6308 101.965 91.9452 101.618 91.3454C101.531 91.174 101.357 90.917 101.097 90.6599L100.576 89.9744L103.787 87.5751V86.2897L100.49 88.7747V91.6025C100.663 91.8596 100.75 92.2023 100.837 92.5451C100.924 92.8878 100.924 93.1449 100.924 93.4877C100.924 94.6873 100.49 95.6299 99.7087 96.4011C98.9277 97.0866 97.8863 97.4294 96.7582 97.4294C95.6301 97.4294 94.5887 97.0866 93.8077 96.4011C92.9399 95.6299 92.506 94.6873 92.506 93.4877C92.506 92.288 92.9399 91.3454 93.7209 90.5742C94.5019 89.8887 95.4565 89.5459 96.4978 89.4602V88.5177C95.5433 88.5177 94.6755 88.1749 94.068 87.4894C93.3738 86.8039 93.0267 85.947 93.0267 84.833C93.0267 83.719 93.3738 82.8621 94.068 82.1766C94.5887 81.6625 95.2829 81.3197 96.064 81.1483V80.2914Z" fill="#43ADE2"/>
<path d="M9.28528 35.3899V7.45507C9.28528 7.36938 9.28528 7.36938 9.37206 7.36938H15.7937C15.7937 7.36938 15.8805 7.36938 15.8805 7.45507L25.6864 24.8501L34.9718 7.36938L35.0585 7.28369H41.0463C41.1331 7.28369 41.1331 7.28369 41.1331 7.36938V35.3899C41.1331 35.4756 41.1331 35.4756 41.0463 35.4756H36.0131C35.9263 35.4756 35.9263 35.4756 35.9263 35.3899V15.5099L25.5997 34.8758C25.4261 35.2186 25.2526 35.2186 25.079 34.8758L14.6656 15.8527V35.3899C14.6656 35.4756 14.6656 35.4756 14.5788 35.4756H9.54561C9.37206 35.5613 9.28528 35.4756 9.28528 35.3899Z" fill="#181818"/>
<path d="M35.4057 82.0051C35.4925 82.0051 35.4925 82.0052 35.4925 82.0908V86.9752C35.4925 87.0609 35.4925 87.0609 35.4057 87.0609H15.0995C15.0127 87.0609 15.0127 87.0609 15.0127 86.9752V59.0403C15.0127 58.9546 15.0127 58.9546 15.0995 58.9546H20.5665C20.6533 58.9546 20.6533 58.9546 20.6533 59.0403V82.0051H35.4057Z" fill="#181818"/>
<path d="M50.5052 44.9014H0V50.0428H50.5052V44.9014Z" fill="#181818"/>
</svg>
