<svg width="75" height="133" viewBox="0 0 75 133" fill="none" xmlns="http://www.w3.org/2000/svg">
<path d="M43.6796 38.2403H42.3762V37.7605H45.5355V38.2403H44.2266L44.2212 42.0352H43.6878L43.6796 38.2403Z" fill="#383838"/>
<path d="M45.7258 40.5547C45.7258 39.5978 46.3599 38.998 47.2959 38.998C48.2266 38.998 48.8552 39.5978 48.8552 40.5547C48.8552 41.5061 48.232 42.1223 47.2959 42.1223C46.3517 42.1223 45.7258 41.5061 45.7258 40.5547ZM48.3028 40.5547C48.3028 39.8895 47.8946 39.4806 47.2823 39.4806C46.6891 39.4806 46.2755 39.8895 46.2755 40.5547C46.2755 41.2199 46.6973 41.6425 47.3014 41.6425C47.9 41.6425 48.3028 41.2199 48.3028 40.5547Z" fill="#383838"/>
<path d="M49.8621 40.6911V39.0881H50.3954V40.6448C50.3954 41.22 50.5859 41.6371 51.1655 41.6371C51.7233 41.6371 52.107 41.2227 52.107 40.6094L52.1124 39.0881H52.6458V42.0324H52.2948C52.2539 41.8498 52.224 41.6453 52.205 41.4626H52.175C51.9982 41.8498 51.5655 42.1169 51.073 42.1169C50.2512 42.1169 49.8621 41.618 49.8621 40.6911Z" fill="#383838"/>
<path d="M53.9138 39.088H54.2648C54.3057 39.2652 54.3356 39.5269 54.3546 39.7178H54.3846C54.5614 39.3252 54.9941 38.998 55.4921 38.998V39.6223C54.9587 39.6223 54.4553 40.0149 54.4553 40.661L54.4499 42.0323H53.9165V39.088H53.9138Z" fill="#383838"/>
<path d="M56.2324 38.1203C56.2324 37.8586 56.4147 37.6978 56.6705 37.6978C56.9263 37.6978 57.0977 37.8586 57.0977 38.1203C57.0977 38.3766 56.9317 38.5483 56.6705 38.5483C56.4147 38.5483 56.2324 38.3766 56.2324 38.1203ZM56.4093 39.0827H56.9426V42.0351H56.4093V39.0827Z" fill="#383838"/>
<path d="M58.0337 41.8388V41.3508C58.3058 41.5226 58.8228 41.6889 59.2609 41.6889C59.7398 41.6889 59.9847 41.5117 59.9847 41.2609C59.9847 40.9174 59.582 40.8383 59.1439 40.7374C58.6215 40.6175 58.0527 40.4594 58.0527 39.8351C58.0527 39.3116 58.5044 38.9927 59.2555 38.9927C59.5875 38.9927 60.0092 39.0527 60.3113 39.1535V39.6279C60.0201 39.5161 59.5875 39.4261 59.28 39.4261C58.8881 39.4261 58.6106 39.5325 58.6106 39.8051C58.6106 40.1322 58.9725 40.2031 59.4351 40.304C59.9439 40.4239 60.5426 40.5657 60.5426 41.2118C60.5426 41.6861 60.216 42.1196 59.25 42.1196C58.6786 42.1223 58.2106 41.9397 58.0337 41.8388Z" fill="#383838"/>
<path d="M61.5549 39.088H61.906C61.9468 39.2652 61.9767 39.4751 61.9958 39.6578H62.0257C62.2026 39.2652 62.6053 38.998 63.0733 38.998C63.5767 38.998 63.9223 39.2407 64.0856 39.6687H64.1155C64.2869 39.2761 64.7251 38.998 65.1768 38.998C65.9958 38.998 66.404 39.5024 66.404 40.4293V42.0323H65.8706V40.4756C65.8706 39.895 65.6856 39.4833 65.1169 39.4833C64.6244 39.4833 64.2516 39.8868 64.2516 40.4975V42.0296H63.7182V40.4729C63.7182 39.8922 63.5114 39.4806 62.9781 39.4806C62.4692 39.4806 62.0937 39.8895 62.0937 40.5084L62.0883 42.0296H61.5549V39.088Z" fill="#383838"/>
<path d="M42.8279 43.8669H43.3558L43.3612 48.1362H42.8279V43.8669Z" fill="#383838"/>
<path d="M44.73 45.1976H45.081C45.1218 45.3748 45.1518 45.5848 45.1708 45.7674H45.2007C45.3776 45.3748 45.8103 45.1077 46.3082 45.1077C47.1327 45.1077 47.5164 45.612 47.5164 46.5389V48.1419H46.9831V46.5853C46.9831 46.0046 46.8008 45.5929 46.213 45.5929C45.6606 45.5929 45.2715 46.0019 45.2715 46.6207L45.266 48.1419H44.7327V45.1976H44.73Z" fill="#383838"/>
<path d="M48.7354 45.1976H49.0864C49.1272 45.3748 49.1571 45.5848 49.1762 45.7674H49.2061C49.383 45.3748 49.8156 45.1077 50.3136 45.1077C51.1381 45.1077 51.5218 45.612 51.5218 46.5389V48.1419H50.9885V46.5853C50.9885 46.0046 50.8061 45.5929 50.2184 45.5929C49.666 45.5929 49.2769 46.0019 49.2769 46.6207L49.2714 48.1419H48.7381V45.1976H48.7354Z" fill="#383838"/>
<path d="M52.5288 46.6643C52.5288 45.7074 53.1628 45.1077 54.0989 45.1077C55.0295 45.1077 55.6581 45.7074 55.6581 46.6643C55.6581 47.6158 55.035 48.2319 54.0989 48.2319C53.1574 48.2319 52.5288 47.6158 52.5288 46.6643ZM55.1057 46.6643C55.1057 45.9991 54.6976 45.5902 54.0853 45.5902C53.4921 45.5902 53.0785 45.9991 53.0785 46.6643C53.0785 47.3295 53.5003 47.7521 54.1044 47.7521C54.703 47.7521 55.1057 47.3295 55.1057 46.6643Z" fill="#383838"/>
<path d="M56.2866 45.1921H56.8662L57.8322 47.6512H57.873L58.8391 45.1921H59.4023L58.186 48.1446H57.5111L56.2866 45.1921Z" fill="#383838"/>
<path d="M59.9849 47.3348C59.9849 46.7051 60.5236 46.367 61.1577 46.367C61.4706 46.367 61.8271 46.4433 62.1482 46.6287C62.1482 45.939 61.8869 45.5764 61.242 45.5764C60.91 45.5764 60.6026 45.6527 60.276 45.8027V45.3283C60.6026 45.1811 60.9454 45.1021 61.3182 45.1021C62.4448 45.1021 62.6625 45.849 62.6625 46.795V47.2476C62.6625 47.6456 62.657 47.801 62.8747 47.801C62.921 47.801 62.97 47.7901 63.0162 47.7764V48.1799C62.9264 48.2099 62.8203 48.2344 62.7142 48.2344C62.3359 48.2344 62.2461 48.0027 62.2216 47.6183H62.1917C61.9142 48.0273 61.4924 48.2426 61.0488 48.2426C60.3822 48.2372 59.9849 47.9182 59.9849 47.3348ZM62.1482 47.0022C61.8761 46.8359 61.5686 46.7541 61.3019 46.7541C60.8502 46.7541 60.5373 46.9559 60.5373 47.3075C60.5373 47.6456 60.7685 47.8064 61.1604 47.8064C61.6502 47.8037 62.1046 47.3948 62.1482 47.0022Z" fill="#383838"/>
<path d="M65.4843 47.7163V48.1498C65.3237 48.2043 65.1223 48.2316 64.9618 48.2316C64.3931 48.2316 64.0067 47.9181 64.0067 47.122V45.6662H63.6638V45.1919H64.0203C64.0448 44.8702 64.1101 44.6221 64.14 44.4722H64.5427V45.1919H65.3428V45.6662H64.5427V46.9775C64.5427 47.5228 64.6679 47.7736 65.1115 47.7736C65.2176 47.7736 65.3645 47.7518 65.4843 47.7163Z" fill="#383838"/>
<path d="M66.2542 44.2297C66.2542 43.968 66.4365 43.8071 66.6923 43.8071C66.948 43.8071 67.1195 43.968 67.1195 44.2297C67.1195 44.486 66.9535 44.6577 66.6923 44.6577C66.4365 44.6577 66.2542 44.486 66.2542 44.2297ZM66.431 45.192H66.9644V48.1445H66.431V45.192Z" fill="#383838"/>
<path d="M68.031 46.6643C68.031 45.7074 68.665 45.1077 69.6011 45.1077C70.5317 45.1077 71.1603 45.7074 71.1603 46.6643C71.1603 47.6158 70.5372 48.2319 69.6011 48.2319C68.6596 48.2319 68.031 47.6158 68.031 46.6643ZM70.6106 46.6643C70.6106 45.9991 70.2025 45.5902 69.5902 45.5902C68.997 45.5902 68.5834 45.9991 68.5834 46.6643C68.5834 47.3295 69.0052 47.7521 69.6093 47.7521C70.2079 47.7521 70.6106 47.3295 70.6106 46.6643Z" fill="#383838"/>
<path d="M72.2161 45.1976H72.5671C72.6079 45.3748 72.6378 45.5848 72.6569 45.7674H72.6868C72.8637 45.3748 73.2964 45.1077 73.7943 45.1077C74.6188 45.1077 75.0025 45.612 75.0025 46.5389V48.1419H74.4692V46.5853C74.4692 46.0046 74.2868 45.5929 73.6991 45.5929C73.1467 45.5929 72.7576 46.0019 72.7576 46.6207L72.7521 48.1419H72.2188V45.1976H72.2161Z" fill="#383838"/>
<path d="M42.5366 52.114C42.5366 50.7727 43.4428 49.8867 44.7952 49.8867C45.1462 49.8867 45.4646 49.9331 45.802 50.0694V50.6092C45.4999 50.4374 45.1217 50.3883 44.7816 50.3883C43.7802 50.3883 43.0863 51.0535 43.0863 52.1113C43.0863 53.199 43.8047 53.8397 44.7924 53.8397C45.1543 53.8397 45.5217 53.7797 45.8047 53.6189V54.1532C45.5027 54.2895 45.1761 54.344 44.7924 54.344C43.4727 54.3468 42.5366 53.4635 42.5366 52.114Z" fill="#383838"/>
<path d="M46.553 52.7626C46.553 51.8193 47.1625 51.2141 48.0115 51.2141C48.8959 51.2141 49.3748 51.7594 49.3748 52.5745C49.3748 52.7217 49.3558 52.8716 49.3394 52.9534H47.1054C47.1054 53.4823 47.4564 53.8912 48.2319 53.8912C48.4687 53.8912 48.8306 53.8558 49.187 53.7086V54.142C48.8251 54.3029 48.5231 54.3492 48.202 54.3492C47.1299 54.3465 46.553 53.7304 46.553 52.7626ZM48.8251 52.5663C48.8306 52.5363 48.836 52.4654 48.836 52.4354C48.836 51.9829 48.5503 51.6694 48.0006 51.6694C47.4782 51.6694 47.1054 52.0729 47.1054 52.5663H48.8251Z" fill="#383838"/>
<path d="M50.4172 51.3068H50.7683C50.8091 51.484 50.839 51.6939 50.8581 51.8765H50.888C51.0649 51.484 51.4975 51.2168 51.9955 51.2168C52.82 51.2168 53.2037 51.7211 53.2037 52.648V54.2511H52.6703V52.6944C52.6703 52.1137 52.488 51.7021 51.9003 51.7021C51.3479 51.7021 50.9587 52.111 50.9587 52.7298L50.9533 54.2511H50.42V51.3068H50.4172Z" fill="#383838"/>
<path d="M55.9955 53.826V54.2594C55.8349 54.314 55.6336 54.3412 55.473 54.3412C54.9043 54.3412 54.5179 54.0277 54.5179 53.2317V51.7759H54.175V51.3015H54.5315C54.556 50.9798 54.6213 50.7317 54.6512 50.5818H55.054V51.3015H55.854V51.7759H55.054V53.0872C55.054 53.6324 55.1791 53.8832 55.6227 53.8832C55.7288 53.8832 55.8757 53.8614 55.9955 53.826Z" fill="#383838"/>
<path d="M56.6704 52.7626C56.6704 51.8193 57.2799 51.2141 58.1289 51.2141C59.0133 51.2141 59.4922 51.7594 59.4922 52.5745C59.4922 52.7217 59.4732 52.8716 59.4569 52.9534H57.2228C57.2228 53.4823 57.5738 53.8912 58.3494 53.8912C58.5861 53.8912 58.948 53.8558 59.3045 53.7086V54.142C58.9426 54.3029 58.6405 54.3492 58.3194 54.3492C57.2446 54.3465 56.6704 53.7304 56.6704 52.7626ZM58.9398 52.5663C58.9453 52.5363 58.9507 52.4654 58.9507 52.4354C58.9507 51.9829 58.665 51.6694 58.1153 51.6694C57.5929 51.6694 57.2201 52.0729 57.2201 52.5663H58.9398Z" fill="#383838"/>
<path d="M60.5344 51.3068H60.8854C60.9263 51.484 60.9562 51.7457 60.9752 51.9365H61.0052C61.1821 51.5439 61.6147 51.2168 62.1127 51.2168V51.8411C61.5793 51.8411 61.0759 52.2337 61.0759 52.8798L61.0705 54.2511H60.5371V51.3068H60.5344Z" fill="#383838"/>
<path d="M42.7488 56.0859H44.1937C45.4155 56.0859 45.9189 56.6857 45.9189 57.5826C45.9189 58.5095 45.3557 59.0684 44.1937 59.0684H43.5951V60.3633H42.7461V56.0859H42.7488ZM44.2073 58.3078C44.806 58.3078 45.0482 58.0352 45.0482 57.5826C45.0482 57.1546 44.806 56.8465 44.2073 56.8465H43.5978V58.3078H44.2073Z" fill="#383838"/>
<path d="M46.5476 58.8719C46.5476 57.8987 47.1816 57.2935 48.183 57.2935C49.179 57.2935 49.813 57.8987 49.813 58.8719C49.813 59.8288 49.1898 60.4504 48.183 60.4504C47.1762 60.4504 46.5476 59.8261 46.5476 58.8719ZM48.9422 58.8719C48.9422 58.3621 48.6402 58.0513 48.1721 58.0513C47.7204 58.0513 47.4184 58.3594 47.4184 58.8719C47.4184 59.3953 47.7449 59.6925 48.183 59.6925C48.6402 59.6898 48.9422 59.3926 48.9422 58.8719Z" fill="#383838"/>
<path d="M50.7383 57.3809H51.2825C51.337 57.5281 51.3887 57.7135 51.424 57.8389H51.4594C51.6254 57.5472 52.0036 57.2991 52.4363 57.2991V58.3214C52.0635 58.3214 51.5873 58.4168 51.5873 59.0275L51.5819 60.3633H50.7356V57.3809H50.7383Z" fill="#383838"/>
<path d="M55.0757 59.6981V60.3578C54.9559 60.4042 54.6675 60.4532 54.5233 60.4532C54.1668 60.4532 53.4675 60.3578 53.4675 59.3791V58.1196H53.1355V57.3781H53.5083C53.5627 57.0509 53.6498 56.7974 53.6852 56.6965H54.3138V57.3781H54.994V58.1196H54.3138V59.2592C54.3138 59.7226 54.5559 59.7281 54.7927 59.7281C54.8389 59.7253 55.0348 59.7035 55.0757 59.6981Z" fill="#383838"/>
<path d="M55.9302 58.9539V57.3809H56.7765V58.883C56.7765 59.3165 56.918 59.679 57.3561 59.679C57.7778 59.679 58.0363 59.3873 58.0363 58.8939L58.0418 57.3809H58.8881V60.3606H58.3438C58.2894 60.2134 58.2377 60.058 58.2023 59.9326H58.167C58.001 60.2243 57.6227 60.4424 57.1901 60.4424C56.4091 60.4451 55.9302 59.9707 55.9302 58.9539Z" fill="#383838"/>
<path d="M62.9181 60.6933C62.9181 61.3994 62.265 61.7319 61.348 61.7319C60.6078 61.7319 59.8786 61.4593 59.8786 60.8105C59.8786 60.6142 59.9602 60.4179 60.1044 60.2707C59.9384 60.1344 59.8677 59.9436 59.8677 59.7255C59.8677 59.4692 59.9929 59.2211 60.2105 59.0794C60.0554 58.8885 59.9901 58.6568 59.9901 58.4332C59.9901 57.8035 60.3983 57.3101 61.3344 57.3101H62.8392V57.9698H62.4011V58.0052C62.6215 58.0052 62.6922 58.2969 62.6922 58.485C62.6922 59.1911 62.1589 59.5428 61.348 59.5428C61.1167 59.5428 60.9208 59.5128 60.7548 59.4528C60.7357 59.4774 60.7303 59.5074 60.7303 59.5537C60.7303 59.7146 60.7901 59.8209 61.1221 59.8209C61.4078 59.8209 61.7507 59.8018 61.8813 59.8018C62.5507 59.8045 62.9181 60.0935 62.9181 60.6933ZM62.0636 60.7669C62.0636 60.636 62.0038 60.5842 61.7915 60.5706C61.65 60.5651 61.4541 60.5651 61.3235 60.5651C61.0867 60.5651 60.8799 60.5461 60.7058 60.5188C60.665 60.5733 60.6405 60.6496 60.6405 60.7314C60.6405 60.9523 60.9425 61.0586 61.3806 61.0586C61.7072 61.0558 62.0636 60.9904 62.0636 60.7669ZM60.831 58.4387C60.831 58.7059 60.967 58.9376 61.3344 58.9376C61.7072 58.9376 61.8487 58.7004 61.8487 58.4387C61.8487 58.1661 61.7072 57.9153 61.3344 57.9153C60.967 57.9153 60.831 58.1715 60.831 58.4387Z" fill="#383838"/>
<path d="M63.552 59.5182C63.552 58.872 64.0962 58.5095 64.7493 58.5095C65.0269 58.5095 65.3235 58.5694 65.5793 58.7112C65.5793 58.1823 65.2364 58.0351 64.8092 58.0351C64.5017 58.0351 64.1507 58.1251 63.8432 58.2668V57.5226C64.1643 57.3672 64.5724 57.2854 64.9398 57.2854C66.2024 57.2854 66.3983 58.1114 66.3983 59.0138V59.3164C66.3983 59.7199 66.4337 59.7799 66.5834 59.7799C66.6187 59.7799 66.6595 59.7744 66.7031 59.769V60.3687C66.5834 60.4151 66.4255 60.4505 66.2813 60.4505C65.9493 60.4505 65.748 60.2897 65.7126 59.9871H65.6718C65.4296 60.2951 65.0731 60.456 64.6758 60.456C63.9711 60.456 63.552 60.137 63.552 59.5182ZM65.5793 59.2564C65.4133 59.1501 65.2065 59.0956 65.016 59.0956C64.6595 59.0956 64.4282 59.2264 64.4282 59.4691C64.4282 59.6899 64.5752 59.7962 64.8663 59.7962C65.2119 59.7989 65.5412 59.5372 65.5793 59.2564Z" fill="#383838"/>
<path d="M67.5684 55.8787H68.4146V60.3605H67.5684V55.8787Z" fill="#383838"/>
<path d="M6.57437 19.8385V0.0135903H10.0411L21.41 16.856H21.5923L21.5406 2.94152C21.5406 2.94152 21.5488 0.00268555 24.9393 0.00268555V22.6274H21.6821L10.071 5.75222H9.92137L9.98123 22.6246C6.33219 22.6246 6.57437 19.8385 6.57437 19.8385Z" fill="#383838"/>
<path d="M10.0847 95.3623C11.9106 96.052 13.8589 96.4337 15.4535 96.4337C18.4686 96.4337 20.0985 95.256 20.0985 93.2304C20.0985 90.5724 17.1434 90.1498 14.0685 89.1521C11.0235 88.2142 8.24796 86.7339 8.24796 82.8082C8.24796 78.8798 11.3528 76.8569 15.6957 76.8569C18.3488 76.8569 20.6101 77.4022 22.5421 78.4872C22.5421 81.4887 20.1529 80.5836 20.1529 80.5836C18.855 80.1365 17.4617 79.9075 16.21 79.9075C13.2549 79.9075 11.7473 80.8753 11.7473 82.7782C11.7473 84.9237 13.5569 85.5289 15.8182 86.2214C19.3175 87.2792 23.5979 88.3369 23.5979 93.0805C23.5979 97.3415 20.4305 99.4843 15.7583 99.4843C13.3147 99.4843 10.2099 98.8791 7.9187 97.6114C7.91598 97.6114 7.867 94.5254 10.0847 95.3623Z" fill="#383838"/>
<path d="M14.0358 133L13.9759 113.431H7.58398V110.381H23.9299C23.9299 113.434 21.6332 113.431 21.6332 113.431H17.4753L17.4481 129.647C17.4481 132.872 14.0358 133 14.0358 133Z" fill="#383838"/>
<path d="M21.6985 50.7209C21.7475 50.3611 21.8427 49.7641 21.8427 49.0198C21.8427 45.7402 19.859 43.4666 16.2508 43.4666C12.7623 43.4666 10.2751 45.9556 10.2751 49.7641C10.2751 53.6434 12.618 56.1815 17.0154 56.1815C18.4739 56.1815 19.6685 55.9661 21.1026 55.3446C21.1026 53.0246 19.0671 53.7307 19.0671 53.7307C18.3542 53.8452 17.693 53.8861 17.1841 53.8861C16.6834 53.8861 16.2372 53.8397 15.8344 53.7579C14.3269 53.3572 13.214 52.343 12.9038 50.7264H19.0427H21.6985V50.7209ZM14.6317 48.7117C13.38 48.7963 12.9745 49.7968 12.8439 50.3529C12.8221 50.1621 12.8085 49.9658 12.8085 49.7613C12.8085 48.8889 13.0235 48.0847 13.3908 47.4277C13.5051 47.2096 13.6439 47.0051 13.8045 46.8225C14.3514 46.1682 15.0589 45.8056 15.8861 45.7702L16.2018 45.7675C18.1855 45.7675 19.0944 46.9179 19.0944 48.401C19.0944 48.4909 19.0944 48.5891 19.0753 48.7145H14.6317V48.7117Z" fill="#383838"/>
<path d="M31.3775 46.8496C31.2551 45.9473 31.0483 45.0531 30.768 44.1807C30.1965 42.4387 29.2931 40.7975 28.1421 39.3499C26.9829 37.905 25.557 36.67 23.957 35.7131C22.3569 34.7562 20.5719 34.0911 18.7269 33.7639C15.0344 33.0769 11.0914 33.7994 7.8315 35.7295C4.57974 37.6678 2.03548 40.7866 0.830013 44.3961C0.228641 46.1981 -0.0516359 48.1064 0.0136715 50.0011C0.0680942 51.8958 0.449054 53.7878 1.17288 55.538C1.75248 56.9638 2.54433 58.2969 3.50217 59.491C3.50217 59.491 3.94844 60.0608 3.54299 60.1807C2.89536 60.3716 1.66812 59.0875 1.50758 58.913C1.46132 58.864 1.41506 58.8149 1.37152 58.7658C1.06403 58.4251 0.772869 58.0706 0.492592 57.7081C0.280343 57.43 0.332045 57.8553 0.332045 57.8553C0.430006 58.9294 1.23274 60.0008 1.88309 60.7069C4.08722 62.896 6.86278 64.5344 9.89957 65.3578C9.89957 65.3578 22.2263 68.8527 28.3734 58.8749C24.2427 63.7466 18.6317 64.3981 16.18 64.4336C8.26144 63.9974 1.97561 57.5881 1.97561 49.7476C1.97561 41.6235 8.72131 35.037 17.0398 35.037C18.2643 35.037 19.4562 35.1815 20.5964 35.4514C21.5787 35.7459 22.5338 36.1439 23.4427 36.6264C24.9801 37.4443 26.3788 38.5457 27.5461 39.8597C28.7271 41.1655 29.6768 42.6867 30.3544 44.3334C30.6891 45.1567 30.953 46.0154 31.1435 46.8905C31.3394 47.7656 31.4591 48.6598 31.5027 49.5649C31.5326 48.6626 31.4945 47.752 31.3775 46.8496Z" fill="#383838"/>
</svg>
