<svg width="62" height="57" viewBox="0 0 62 57" fill="none" xmlns="http://www.w3.org/2000/svg">
<path d="M61.1187 0H35.5547V0.876923H61.1187V15.7846H62.0002V0.876923V0H61.1187Z" fill="#663366"/>
<path d="M57.0046 4.09232H7.63965V4.96924H57.0046V34.2H57.8861V4.96924V4.09232H57.0046Z" fill="#663366"/>
<path d="M0.881517 57H50.2464V56.1231H0.881517V26.8923H0V56.1231V57H0.881517Z" fill="#663366"/>
<path d="M47.6604 17.9185C41.2547 17.9185 42.6651 17.9185 36.2595 17.9185C32.2632 17.9185 28.267 17.9185 24.2708 17.9185C24.4178 18.5908 24.5059 19.2631 24.5353 19.9646C29.5012 19.9646 32.9097 19.9646 40.1675 19.9646C42.7239 19.9646 45.2509 19.9646 47.8073 19.9646C49.159 19.9646 50.2168 20.7246 50.54 21.9523C50.6282 22.2446 50.6282 22.5661 50.6282 22.8585C50.6282 29.64 50.5988 36.4508 50.6576 43.2323C50.6576 44.9277 49.4234 46.2431 47.631 46.2431C41.2253 46.2138 42.6358 46.2138 36.2301 46.2138C29.795 46.2138 23.3599 46.2138 16.9542 46.2138C15.5144 46.2138 14.4566 45.4538 14.1334 44.1969C14.0746 43.9338 14.0452 43.6708 14.0452 43.3785C14.0452 39.0523 14.0452 34.7262 14.0452 30.3708C13.34 30.3415 12.6348 30.2538 11.959 30.1077C11.959 34.5215 11.959 38.9061 11.959 43.32C11.959 46.2138 13.9865 48.26 16.9249 48.26C29.795 48.26 34.8196 48.26 47.6604 48.26C50.5988 48.26 52.7144 46.1261 52.7144 43.2323C52.7144 36.4508 52.7144 29.6692 52.7144 22.8877C52.7144 19.9062 50.6869 17.9185 47.6604 17.9185Z" fill="#663366"/>
<path d="M14.2508 11.7216C9.5494 11.7216 5.72949 15.5216 5.72949 20.1985C5.72949 24.8754 9.5494 28.6754 14.2508 28.6754C18.9522 28.6754 22.7721 24.8754 22.7721 20.1985C22.7428 15.5216 18.9522 11.7216 14.2508 11.7216ZM20.157 20.7831C18.3939 20.7831 16.6015 20.7831 14.8385 20.7831C14.8385 22.5369 14.8385 24.2908 14.8385 26.0739C14.3096 26.0739 13.7807 26.0739 13.193 26.0739C13.193 24.32 13.193 22.5662 13.193 20.7831C11.43 20.7831 9.66693 20.7831 7.87451 20.7831C7.87451 20.2277 7.87451 19.7016 7.87451 19.1462C9.63755 19.1462 11.43 19.1462 13.193 19.1462C13.193 17.3923 13.193 15.6385 13.193 13.8554C13.7513 13.8554 14.2802 13.8554 14.8385 13.8554C14.8385 15.6093 14.8385 17.3631 14.8385 19.1462C16.6015 19.1462 18.3646 19.1462 20.157 19.1462C20.157 19.6723 20.157 20.1985 20.157 20.7831Z" fill="#663366"/>
<path d="M32.763 33.7908C27.9734 33.7908 24.0947 38.5554 24.0947 44.4308H41.4312C41.4312 38.5554 37.5525 33.7908 32.763 33.7908Z" fill="#663366"/>
<path d="M32.9986 31.16C35.6438 31.16 37.7881 29.0268 37.7881 26.3954C37.7881 23.764 35.6438 21.6308 32.9986 21.6308C30.3533 21.6308 28.209 23.764 28.209 26.3954C28.209 29.0268 30.3533 31.16 32.9986 31.16Z" fill="#663366"/>
</svg>
