<svg width="211" height="196" viewBox="0 0 211 196" fill="none" xmlns="http://www.w3.org/2000/svg">
<path d="M208 0V0.01H121V3.01H208V54.01H211V3.01V0.01V0H208Z"/>
<path d="M201 14V14.01H33V17.01H201V117.01H204V17.01V14.01V14H201Z"/>
<path d="M3 195.01V195H171V192H3V92H0V192V195V195.01H3Z"/>
<path d="M159.016 47.719H141.657V38.9785C141.657 36.7873 139.87 35 137.678 35H135.597C133.406 35 131.619 36.7873 131.619 38.9785V47.7312H108.397V38.9785C108.397 36.7873 106.609 35 104.418 35H102.337C100.146 35 98.3585 36.7873 98.3585 38.9785V47.7312H75.0016V38.9785C75.0016 36.7873 73.2144 35 71.0231 35H68.9421C66.7508 35 64.9635 36.7873 64.9635 38.9785V47.7312H47.9845C41.374 47.7312 36 53.1053 36 59.7157V158.028C36 164.638 41.374 170.012 47.9845 170.012H159.016C165.626 170.012 171 164.638 171 158.028V59.7035C171 53.093 165.626 47.719 159.016 47.719ZM161.048 158.211C161.048 159.178 160.252 159.974 159.285 159.974H47.4826C46.5155 159.974 45.7198 159.178 45.7198 158.211V59.0302C45.7198 58.0631 46.5155 57.2674 47.4826 57.2674H64.9758V65.9222C64.9758 68.1134 66.7631 69.9007 68.9543 69.9007H71.0354C73.2266 69.9007 75.0139 68.1134 75.0139 65.9222V57.2674H98.3708V65.9222C98.3708 68.1134 100.158 69.9007 102.349 69.9007H104.43C106.622 69.9007 108.409 68.1134 108.409 65.9222V57.2674H131.643V65.9222C131.643 68.1134 133.431 69.9007 135.622 69.9007H137.703C139.894 69.9007 141.681 68.1134 141.681 65.9222V57.2674H159.309C160.276 57.2674 161.072 58.0631 161.072 59.0302V158.211H161.048Z"/>
<path d="M83.4606 84.8599H64.9758V99.1825H83.4606V84.8599Z"/>
<path d="M83.4606 105.56H64.9758V119.883H83.4606V105.56Z"/>
<path d="M83.4606 126.249H64.9758V140.571H83.4606V126.249Z"/>
<path d="M112.62 105.56H94.1353V119.883H112.62V105.56Z"/>
<path d="M112.742 84.8599H94.2576V99.1825H112.742V84.8599Z"/>
<path d="M112.742 126.249H94.2576V140.571H112.742V126.249Z"/>
<path d="M141.718 126.249H123.233V140.571H141.718V126.249Z"/>
<path d="M141.718 105.56H123.233V119.883H141.718V105.56Z"/>
<path d="M141.718 84.8599H123.233V99.1825H141.718V84.8599Z"/>
</svg>
