<svg width="62" height="57" viewBox="0 0 62 57" fill="none" xmlns="http://www.w3.org/2000/svg">
<path d="M61.1187 0H35.5547V0.876923H61.1187V15.7846H62.0002V0.876923V0H61.1187Z" fill="#663366"/>
<path d="M57.0046 4.09232H7.63965V4.96924H57.0046V34.2H57.8861V4.96924V4.09232H57.0046Z" fill="#663366"/>
<path d="M0.881517 57H50.2464V56.1231H0.881517V26.8923H0V56.1231V57H0.881517Z" fill="#663366"/>
<path d="M32.763 33.7908C27.9734 33.7908 24.0947 38.5554 24.0947 44.4308H41.4312C41.4312 38.5554 37.5525 33.7908 32.763 33.7908Z" fill="#663366"/>
<path d="M32.9986 31.16C35.6438 31.16 37.7881 29.0268 37.7881 26.3954C37.7881 23.764 35.6438 21.6308 32.9986 21.6308C30.3534 21.6308 28.209 23.764 28.209 26.3954C28.209 29.0268 30.3534 31.16 32.9986 31.16Z" fill="#663366"/>
<path d="M13.1642 24.3785C10.7841 24.3785 8.90357 22.4785 8.93296 20.0816C8.96234 17.7431 10.8723 15.8724 13.2818 15.9016C15.5737 15.9016 17.4543 17.86 17.4543 20.1693C17.4249 22.5077 15.5149 24.3785 13.1642 24.3785ZM9.5794 20.1108C9.5794 22.0985 11.1955 23.7062 13.1936 23.7062C15.1623 23.7062 16.8078 22.0985 16.8078 20.14C16.8078 18.1524 15.1917 16.5154 13.223 16.5154C11.1955 16.5447 9.5794 18.1524 9.5794 20.1108Z" fill="#663366"/>
<path d="M13.1639 23.0338C11.5478 23.0338 10.2549 21.7185 10.2549 20.0815C10.2549 18.4738 11.5772 17.2169 13.252 17.2169C14.8094 17.2169 16.1023 18.5615 16.1023 20.14C16.1023 21.7769 14.78 23.0631 13.1639 23.0338ZM10.6956 20.14C10.6956 21.5138 11.7828 22.5954 13.1639 22.5954C14.5155 22.5954 15.6321 21.4846 15.6321 20.1692C15.6321 18.7954 14.5449 17.6846 13.1639 17.6846C11.8122 17.6554 10.725 18.7661 10.6956 20.14Z" fill="#663366"/>
<path d="M21.0976 18.7662H20.9507C20.745 18.7662 20.5393 18.7662 20.3043 18.7662C20.2455 18.7662 20.2161 18.7662 20.2161 18.6785C20.128 18.3277 20.0398 18.0062 19.9517 17.7139C19.9223 17.6262 19.9223 17.6262 20.0104 17.5969C20.2455 17.48 20.4806 17.3339 20.6863 17.2169C21.0976 16.9539 21.2446 16.5154 21.0095 16.0769C20.9507 15.96 20.892 15.8431 20.8038 15.7262C20.745 15.6093 20.6569 15.4631 20.5981 15.3462C20.51 15.1708 20.3043 15.0539 20.0986 14.9662C19.8929 14.9077 19.6872 14.9077 19.5403 14.9954C19.3934 15.0831 19.2465 15.1416 19.1289 15.2293C19.0114 15.2877 18.8938 15.3462 18.7469 15.4339C18.6882 15.4631 18.6882 15.4631 18.6294 15.4046C18.3943 15.1416 18.1886 14.9077 17.9536 14.7031C17.8654 14.6154 17.8654 14.5862 17.9242 14.4985C18.0417 14.2939 18.1886 14.0893 18.3062 13.8554C18.5412 13.4169 18.3943 12.9785 17.9829 12.7154C17.7479 12.5693 17.5128 12.4231 17.2777 12.3062C16.837 12.0723 16.3668 12.1893 16.1024 12.6277C15.9555 12.8908 15.8085 13.0954 15.7204 13.3C15.691 13.3585 15.691 13.3585 15.6029 13.3293C15.309 13.2416 14.9858 13.1539 14.6332 13.0662C14.545 13.0369 14.545 13.0369 14.545 12.9493C14.545 12.6862 14.545 12.4231 14.545 12.16C14.545 11.6923 14.2218 11.3708 13.7811 11.3416C13.4872 11.3123 13.164 11.3123 12.8408 11.3416C12.3706 11.3708 12.0474 11.6923 12.0474 12.16C12.0474 12.3939 12.0474 12.6569 12.0474 12.92C12.0474 13.0077 12.0474 13.0077 11.9593 13.0369C11.6654 13.0954 11.3422 13.1831 10.9896 13.3C10.9308 13.3293 10.9014 13.3 10.872 13.2708C10.7545 13.0662 10.637 12.8323 10.4901 12.5985C10.2256 12.16 9.75546 12.0431 9.3147 12.2769C9.10902 12.3939 8.87394 12.5108 8.60949 12.6569C8.16873 12.92 8.0512 13.3877 8.28627 13.8262C8.34503 13.9139 8.4038 14.0016 8.43319 14.0893C8.52134 14.2354 8.58011 14.3523 8.66826 14.4985C8.66826 14.5277 8.66826 14.5862 8.63887 14.5862C8.52134 14.7031 8.37442 14.8493 8.25688 14.9662C8.13935 15.0831 8.02181 15.2 7.90428 15.3169C7.84551 15.3754 7.84551 15.3754 7.78674 15.3462C7.58105 15.2293 7.34598 15.0831 7.11091 14.9369C6.67015 14.7031 6.20001 14.82 5.93556 15.2585C5.81802 15.4631 5.6711 15.6969 5.52418 15.9308C5.28911 16.3693 5.40665 16.8369 5.8474 17.1C5.93556 17.1585 6.02371 17.2169 6.14124 17.2754C6.25878 17.3631 6.4057 17.4216 6.52323 17.5093C6.55262 17.5093 6.55262 17.5677 6.55262 17.5969C6.52323 17.7723 6.46447 17.9477 6.43508 18.1231C6.37631 18.2985 6.34693 18.4446 6.31755 18.62C6.31755 18.6785 6.31755 18.6785 6.2294 18.6785C5.96494 18.6785 5.70049 18.6785 5.46541 18.6785C4.96589 18.6785 4.61328 19 4.61328 19.4969C4.61328 19.7893 4.61328 20.0523 4.61328 20.3446C4.64267 20.8416 4.96589 21.1631 5.46541 21.1631C5.70049 21.1631 5.96494 21.1631 6.2294 21.1631C6.31755 21.1631 6.31755 21.1631 6.34693 21.2508C6.37631 21.4262 6.43508 21.5723 6.46447 21.7477C6.52323 21.9231 6.55262 22.0693 6.582 22.2446C6.582 22.2739 6.55262 22.3323 6.55262 22.3323C6.46447 22.5077 6.31755 22.5954 6.17063 22.6539C6.08248 22.7123 5.96494 22.7708 5.87679 22.8293C5.46541 23.0923 5.34788 23.56 5.58295 23.9693C5.70048 24.2031 5.8474 24.4369 5.96494 24.6708C6.22939 25.1385 6.69954 25.2554 7.16968 24.9923C7.25783 24.9339 7.34598 24.8754 7.43413 24.8462C7.55167 24.7585 7.69859 24.7 7.81612 24.6416C7.84551 24.6416 7.90428 24.6416 7.90428 24.6416C8.02181 24.7585 8.13935 24.8754 8.25688 24.9923C8.37442 25.1093 8.49195 25.2262 8.60949 25.3431C8.66826 25.4016 8.69764 25.4308 8.63887 25.5185C8.49195 25.7231 8.37442 25.9569 8.25688 26.1908C8.0512 26.6 8.16873 27.0677 8.55072 27.3016C8.78579 27.4477 9.02086 27.5646 9.25593 27.7108C9.72608 27.9739 10.1668 27.8569 10.4607 27.3893C10.5782 27.1846 10.7251 26.9508 10.8427 26.7462C10.872 26.6877 10.872 26.6877 10.9308 26.7169C11.2834 26.8339 11.6066 26.9216 11.9005 26.98C11.9886 27.0093 11.9886 27.0093 11.9886 27.0969C11.9886 27.36 11.9886 27.5939 11.9886 27.8569C11.9886 28.3539 12.3412 28.7046 12.8114 28.7046C12.9583 28.7046 13.0758 28.7046 13.2228 28.7046C13.3697 28.7046 13.5166 28.7046 13.6635 28.7046C14.1337 28.7046 14.4863 28.3539 14.4863 27.8569C14.4863 27.5646 14.4863 27.3016 14.4863 27.0677C14.4863 27.0093 14.4863 26.98 14.5744 26.98C14.927 26.8923 15.2502 26.8046 15.5735 26.7169C15.6322 26.6877 15.6322 26.6877 15.691 26.7754C15.8085 26.98 15.9261 27.2139 16.073 27.4477C16.3375 27.8862 16.8076 28.0031 17.2484 27.7693C17.454 27.6523 17.6891 27.5062 17.9242 27.36C18.3649 27.0969 18.4825 26.6293 18.218 26.1908C18.1005 25.9862 17.9536 25.7523 17.836 25.5185C17.8066 25.46 17.8066 25.46 17.8654 25.4016C18.1005 25.1677 18.3356 24.9339 18.5706 24.7C18.6294 24.6416 18.6294 24.6416 18.6882 24.6708C18.9232 24.8169 19.1583 24.9631 19.3934 25.08C19.8341 25.3139 20.2749 25.1969 20.5393 24.7585C20.6863 24.5246 20.8038 24.32 20.9507 24.0569C21.1858 23.6477 21.0389 23.1508 20.6275 22.9169C20.4218 22.8 20.1867 22.6539 19.9517 22.5369C19.8929 22.5077 19.8929 22.5077 19.9223 22.3908C20.0104 22.1277 20.0986 21.8062 20.1574 21.4846C20.1867 21.3677 20.1867 21.3677 20.3043 21.3677C20.5687 21.3677 20.8626 21.3677 21.0976 21.3677C21.5384 21.3385 21.8616 21.0169 21.891 20.5785C21.891 20.4616 21.891 20.3739 21.891 20.2569V20.2277V20.1108C21.891 20.0523 21.891 20.0231 21.891 19.9646C21.891 19.8477 21.891 19.76 21.891 19.6431C21.9204 19.1169 21.5678 18.7954 21.0976 18.7662ZM21.0683 20.3446C21.0683 20.3739 21.0683 20.4031 21.0683 20.4031C21.0683 20.4031 21.0389 20.4031 20.9801 20.4031C20.7744 20.4031 20.5393 20.4031 20.3337 20.4031H20.2455C19.8047 20.4031 19.5109 20.6369 19.3934 21.0754C19.3052 21.3969 19.2171 21.7477 19.0995 22.1277C18.982 22.5662 19.0995 22.9169 19.4815 23.1216C19.6578 23.2385 19.8635 23.3554 20.0398 23.4431C20.0986 23.4723 20.1574 23.5016 20.2161 23.5308L19.8341 24.1739L19.6578 24.0862C19.4815 23.9693 19.3052 23.8816 19.1289 23.7939C18.7175 23.56 18.3356 23.6185 17.9829 23.9985C17.7773 24.2323 17.5422 24.4662 17.2777 24.7C16.9251 25.0216 16.8664 25.4016 17.1014 25.8108L17.1308 25.8693C17.2484 26.0446 17.3365 26.2493 17.454 26.4246C17.4834 26.4831 17.4834 26.5123 17.4834 26.5123C17.4834 26.5123 17.4834 26.5416 17.4247 26.5708C17.2777 26.6585 17.1014 26.7462 16.8957 26.8631C16.8664 26.8923 16.837 26.8923 16.837 26.8923C16.837 26.8923 16.8076 26.8923 16.8076 26.8339C16.6901 26.6293 16.5725 26.3954 16.4256 26.1908L16.3962 26.1616C16.1611 25.7816 15.8085 25.6354 15.3384 25.7816C15.0152 25.8693 14.6626 25.9569 14.3393 26.0446C13.8986 26.1323 13.6341 26.4539 13.6341 26.8923V27.0677C13.6341 27.2723 13.6341 27.4477 13.6341 27.6523C13.6341 27.7108 13.6341 27.74 13.6341 27.74C13.6341 27.74 13.6341 27.74 13.5754 27.74C13.4578 27.74 13.3697 27.74 13.2521 27.74C13.164 27.74 13.0465 27.74 12.9289 27.74C12.9289 27.7693 12.9289 27.7693 12.9289 27.7693C12.9289 27.7693 12.9289 27.74 12.9289 27.7108C12.9289 27.4185 12.9289 27.1846 12.9289 26.9216C12.9289 26.4831 12.6645 26.1908 12.2237 26.0739C11.9005 25.9862 11.5479 25.8985 11.1953 25.8108C10.7545 25.6939 10.4019 25.8108 10.1668 26.1908C10.0199 26.4539 9.90238 26.6585 9.78484 26.8631C9.75546 26.8923 9.75546 26.9216 9.75546 26.9216C9.75546 26.9216 9.72608 26.9216 9.69669 26.8923C9.54977 26.8046 9.37347 26.7169 9.19717 26.6C9.16778 26.5708 9.10902 26.5416 9.07963 26.5416L9.16778 26.3954C9.28532 26.22 9.37347 26.0446 9.46162 25.8693C9.72608 25.4308 9.66731 25.0508 9.25593 24.7C9.05025 24.5246 8.84456 24.2908 8.55072 24.0277C8.19812 23.6477 7.84551 23.5893 7.40475 23.8523C7.22845 23.94 7.08153 24.0569 6.90522 24.1446L6.72892 24.2323L6.67015 24.1446C6.55262 23.9693 6.46447 23.7939 6.34693 23.5893C6.34693 23.56 6.37631 23.56 6.37631 23.5308C6.52323 23.4431 6.64077 23.3554 6.78769 23.2969C6.87584 23.2677 6.93461 23.2093 7.02276 23.18C7.43413 22.9462 7.58105 22.5954 7.43413 22.0985C7.34598 21.7769 7.25783 21.4554 7.16968 21.1046C7.08153 20.6662 6.7583 20.4323 6.34693 20.4031C6.02371 20.4031 5.78864 20.4031 5.55357 20.4031C5.4948 20.4031 5.4948 20.4031 5.4948 20.4031C5.4948 20.4031 5.4948 20.4031 5.4948 20.3446C5.4948 20.1108 5.4948 19.9062 5.4948 19.7016C5.4948 19.6723 5.4948 19.6431 5.4948 19.6431C5.4948 19.6431 5.4948 19.6431 5.55357 19.6431C5.81802 19.6431 6.08248 19.6431 6.34693 19.6431C6.78769 19.6431 7.08153 19.38 7.16968 18.9416C7.25783 18.62 7.34598 18.2693 7.43413 17.9477C7.58105 17.48 7.43413 17.1293 7.02276 16.8954C6.78769 16.7493 6.55262 16.6323 6.34693 16.5154C6.31755 16.5154 6.31755 16.4862 6.31755 16.4862C6.31755 16.4862 6.31755 16.4569 6.34693 16.4277C6.46447 16.2523 6.55262 16.0769 6.67015 15.8723C6.69954 15.8431 6.69954 15.8139 6.69954 15.8139C6.69954 15.8139 6.72892 15.8139 6.7583 15.8431C6.96399 15.96 7.19906 16.1062 7.40475 16.2231C7.81612 16.4569 8.19812 16.3985 8.55072 16.0185C8.75641 15.7846 8.99148 15.5508 9.28532 15.2877C9.63793 14.9662 9.69669 14.5862 9.46162 14.1769C9.37347 14.0016 9.25594 13.8262 9.16778 13.6508L9.07963 13.4754L9.16778 13.4169C9.34409 13.3 9.52039 13.2123 9.72608 13.0954C9.75546 13.0954 9.75546 13.1246 9.75546 13.1246C9.84361 13.2416 9.90238 13.3877 9.99053 13.5046C10.0493 13.5923 10.0787 13.68 10.1375 13.7677C10.4019 14.2062 10.7251 14.3231 11.2247 14.1769C11.5185 14.0893 11.8417 14.0016 12.2237 13.9139C12.6938 13.7969 12.9289 13.5046 12.9289 13.0662C12.9289 12.8323 12.9289 12.5693 12.9289 12.3062C12.9289 12.2769 12.9289 12.2477 12.9289 12.2477C12.9289 12.2477 12.9583 12.2477 12.9877 12.2477C13.164 12.2477 13.3991 12.2477 13.6047 12.2477C13.6635 12.2477 13.6929 12.2477 13.6929 12.2477C13.6929 12.2477 13.6929 12.2769 13.6929 12.3354C13.6929 12.54 13.6929 12.7154 13.6929 12.92V13.0662C13.6929 13.5339 13.928 13.8262 14.3981 13.9431C14.7213 14.0308 15.0446 14.1185 15.3972 14.2062C15.8379 14.3523 16.2199 14.2062 16.455 13.7969C16.6019 13.5631 16.7194 13.3585 16.837 13.1246C16.8664 13.0954 16.8664 13.0954 16.8664 13.0662C16.8664 13.0662 16.8957 13.0662 16.8957 13.0954C17.072 13.2123 17.2484 13.3 17.4834 13.4169C17.5128 13.4169 17.5128 13.4462 17.5128 13.4462C17.5128 13.4462 17.5128 13.4754 17.4834 13.5046C17.3365 13.7385 17.219 13.9723 17.1014 14.1769C16.8664 14.5862 16.9251 14.9662 17.2777 15.2877C17.5422 15.5216 17.7773 15.7554 17.9829 15.9893C18.3356 16.3985 18.7763 16.4277 19.2171 16.1354C19.3346 16.0477 19.4521 15.9893 19.5697 15.9308C19.6284 15.9016 19.7166 15.8431 19.7754 15.8139C19.8341 15.7846 19.8341 15.7846 19.8341 15.7846C19.8341 15.7846 19.8635 15.7846 19.8929 15.8431C19.9811 16.0185 20.0986 16.1939 20.1867 16.3693C20.2161 16.4277 20.2161 16.4277 20.2161 16.4277C20.2161 16.4277 20.2161 16.4569 20.1574 16.4862C19.9223 16.6031 19.6872 16.7493 19.4815 16.8662C19.1289 17.0708 18.982 17.4216 19.0995 17.86C19.1877 18.24 19.3052 18.62 19.3934 18.9708C19.4815 19.3508 19.8047 19.5846 20.1867 19.6139C20.4512 19.6139 20.7156 19.6139 21.0095 19.6139C21.0683 19.6139 21.0683 19.6139 21.0976 19.6139C21.0976 19.6139 21.0976 19.6431 21.0976 19.6723C21.0683 19.9354 21.0683 20.14 21.0683 20.3446Z" fill="#663366"/>
<path d="M47.6604 17.9184C41.2547 17.9184 42.6651 17.9184 36.2595 17.9184C32.2632 17.9184 28.267 17.9184 24.2708 17.9184C24.4178 18.5907 24.5059 19.263 24.5353 19.9646C29.5012 19.9646 32.9097 19.9646 40.1675 19.9646C42.7239 19.9646 45.2509 19.9646 47.8073 19.9646C49.159 19.9646 50.2168 20.7246 50.54 21.9523C50.6282 22.2446 50.6282 22.5661 50.6282 22.8584C50.6282 29.64 50.5988 36.4507 50.6576 43.2323C50.6576 44.9277 49.4234 46.243 47.631 46.243C41.2253 46.2138 42.6358 46.2138 36.2301 46.2138C29.795 46.2138 23.3599 46.2138 16.9542 46.2138C15.5144 46.2138 14.4566 45.4538 14.1334 44.1969C14.0746 43.9338 14.0452 43.6707 14.0452 43.3784C14.0452 39.0523 14.0452 34.7261 14.0452 30.3707C13.34 30.3415 12.6348 30.2538 11.959 30.1077C11.959 34.5215 11.959 38.9061 11.959 43.32C11.959 46.2138 13.9865 48.26 16.9249 48.26C29.795 48.26 34.8196 48.26 47.6604 48.26C50.5988 48.26 52.7144 46.1261 52.7144 43.2323C52.7144 36.4507 52.7144 29.6692 52.7144 22.8877C52.7144 19.9061 50.6869 17.9184 47.6604 17.9184Z" fill="#663366"/>
</svg>
