<svg width="30" height="19" viewBox="0 0 30 19" fill="none" xmlns="http://www.w3.org/2000/svg">
<path d="M24.7341 7.02128C26.4085 7.02128 27.766 5.73529 27.766 4.14894C27.766 2.56259 26.4085 1.2766 24.7341 1.2766C23.0596 1.2766 21.7021 2.56259 21.7021 4.14894C21.7021 5.73529 23.0596 7.02128 24.7341 7.02128Z" fill="#666666"/>
<path d="M5.26629 6.70212C6.94077 6.70212 8.29821 5.41613 8.29821 3.82978C8.29821 2.24343 6.94077 0.957443 5.26629 0.957443C3.59181 0.957443 2.23438 2.24343 2.23438 3.82978C2.23438 5.41613 3.59181 6.70212 5.26629 6.70212Z" fill="#666666"/>
<path d="M24.7018 8.93619C23.3832 8.93619 21.9899 9.57778 21.0635 10.586C22.3401 12.0824 23.0313 13.7547 23.3887 15.6383H29.9996C29.9996 11.9365 27.6288 8.93619 24.7018 8.93619Z" fill="#666666"/>
<path d="M14.8391 9.89363C10.8727 9.89363 7.65918 13.8938 7.65918 18.8298H22.0209C22.0209 13.8938 18.8055 9.89363 14.8391 9.89363Z" fill="#663366"/>
<path d="M5.29355 8.93619C2.37071 8.93619 0 11.7937 0 15.3192H6.60555C6.96453 13.5252 7.66062 11.9344 8.93617 10.5092C8.01048 9.54901 6.61102 8.93619 5.29355 8.93619Z" fill="#666666"/>
<path d="M14.9997 7.65958C17.1148 7.65958 18.8295 5.94492 18.8295 3.82979C18.8295 1.71465 17.1148 0 14.9997 0C12.8846 0 11.1699 1.71465 11.1699 3.82979C11.1699 5.94492 12.8846 7.65958 14.9997 7.65958Z" fill="#663366"/>
</svg>
