<svg width="38" height="37" viewBox="0 0 38 37" fill="none" xmlns="http://www.w3.org/2000/svg">
<path d="M35.3218 36.3639C36.44 36.3639 37.3468 35.481 37.3468 34.3919V2.60788C37.3468 1.51865 36.4402 0.635986 35.3218 0.635986H2.67852C1.55985 0.635986 0.65332 1.51865 0.65332 2.60788V34.3919C0.65332 35.4808 1.55971 36.3639 2.67852 36.3639H35.3218Z" fill="white"/>
<path d="M25.9713 36.3641V22.5282H30.7409L31.455 17.1362H25.9713V13.6937C25.9713 12.1326 26.4165 11.0687 28.7157 11.0687L31.6481 11.0675V6.24475C31.141 6.17904 29.4002 6.03223 27.375 6.03223C23.1471 6.03223 20.2525 8.54506 20.2525 13.1597V17.1362H15.4707V22.5282H20.2525V36.3641H25.9713Z" fill="#333333"/>
</svg>
