<svg xmlns="http://www.w3.org/2000/svg" viewBox="0 0 24.02 24.02"><g><g><path d="M4.15.63A5.85,5.85,0,0,0,2,2,5.82,5.82,0,0,0,.63,4.14,8.77,8.77,0,0,0,.07,7.06C0,8.33,0,8.75,0,12s0,3.67.07,5a9,9,0,0,0,.56,2.91A5.94,5.94,0,0,0,2,22a5.85,5.85,0,0,0,2.13,1.39A8.71,8.71,0,0,0,7.06,24C8.34,24,8.75,24,12,24s3.67,0,5-.07a9,9,0,0,0,2.92-.56A5.94,5.94,0,0,0,22,22a5.78,5.78,0,0,0,1.38-2.13A8.71,8.71,0,0,0,24,17c.06-1.28.07-1.69.07-5S24,8.33,24,7.06a8.77,8.77,0,0,0-.56-2.92A5.67,5.67,0,0,0,22,2,5.94,5.94,0,0,0,19.88.63,8.71,8.71,0,0,0,17,.07C15.69,0,15.28,0,12,0S8.34,0,7.07.07A8.72,8.72,0,0,0,4.15.63Zm12.72,1.6a6.67,6.67,0,0,1,2.23.42,3.73,3.73,0,0,1,1.38.89,3.79,3.79,0,0,1,.9,1.39,6.68,6.68,0,0,1,.41,2.23c.06,1.26.07,1.64.07,4.85s0,3.59-.07,4.86a6.74,6.74,0,0,1-.41,2.23,4,4,0,0,1-2.28,2.28,6.74,6.74,0,0,1-2.23.41c-1.27.06-1.65.07-4.86.07s-3.59,0-4.85-.07a6.68,6.68,0,0,1-2.23-.41,3.79,3.79,0,0,1-1.39-.9,3.86,3.86,0,0,1-.89-1.38,6.67,6.67,0,0,1-.42-2.23c-.06-1.27-.07-1.65-.07-4.86s0-3.59.07-4.85a6.61,6.61,0,0,1,.42-2.23,3.9,3.9,0,0,1,.89-1.39,3.77,3.77,0,0,1,1.39-.89,6.61,6.61,0,0,1,2.23-.42C8.42,2.17,8.8,2.16,12,2.16S15.6,2.17,16.87,2.23Z"/><path d="M5.84,12A6.17,6.17,0,1,0,12,5.84,6.17,6.17,0,0,0,5.84,12ZM16,12a4,4,0,1,1-4-4A4,4,0,0,1,16,12Z"/><path d="M18.43,7A1.44,1.44,0,1,0,17,5.6,1.44,1.44,0,0,0,18.43,7Z"/></g></g></svg>