<svg width="38" height="38" viewBox="0 0 38 38" fill="none" xmlns="http://www.w3.org/2000/svg">
<path d="M7.13223 1.72183C5.92988 2.1894 4.91309 2.81284 3.89629 3.82964C2.87949 4.83901 2.25605 5.86323 1.78848 7.05815C1.33574 8.21597 1.03145 9.54448 0.942383 11.489C0.85332 13.4335 0.831055 14.057 0.831055 19.0148C0.831055 23.9726 0.85332 24.596 0.942383 26.5406C1.03145 28.4851 1.34316 29.8136 1.78848 30.9714C2.25605 32.1738 2.87949 33.1906 3.89629 34.2074C4.91309 35.2242 5.92988 35.8476 7.13223 36.3152C8.29004 36.7679 9.61856 37.0722 11.5631 37.1613C13.5076 37.2503 14.1311 37.2726 19.0889 37.2726C24.0467 37.2726 24.6701 37.2503 26.6146 37.1613C28.5592 37.0722 29.8877 36.7605 31.0455 36.3152C32.2478 35.8476 33.2646 35.2242 34.2814 34.2074C35.2982 33.1906 35.9217 32.1738 36.3893 30.9714C36.842 29.8136 37.1463 28.4851 37.2354 26.5406C37.3244 24.596 37.3467 23.9726 37.3467 19.0148C37.3467 14.057 37.3244 13.4335 37.2354 11.489C37.1463 9.54448 36.8346 8.21597 36.3893 7.05815C35.9217 5.86323 35.2982 4.83901 34.2889 3.82964C33.2721 2.81284 32.2553 2.1894 31.0529 1.72183C29.8951 1.26909 28.5666 0.964795 26.6221 0.875732C24.6775 0.78667 24.0541 0.764404 19.0963 0.764404C14.1385 0.764404 13.515 0.78667 11.5705 0.875732C9.61855 0.957373 8.29004 1.26909 7.13223 1.72183ZM26.4662 4.1562C28.2475 4.23784 29.2123 4.53472 29.858 4.78706C30.7115 5.12104 31.3201 5.5144 31.9584 6.15268C32.5967 6.79097 32.99 7.39956 33.324 8.25307C33.5764 8.89878 33.8732 9.86362 33.9549 11.6449C34.0439 13.5671 34.0588 14.146 34.0588 19.0222C34.0588 23.8984 34.0365 24.4773 33.9549 26.3996C33.8732 28.1808 33.5764 29.1457 33.324 29.7914C32.99 30.6449 32.5967 31.2535 31.9584 31.8917C31.3201 32.53 30.7115 32.9234 29.858 33.2574C29.2123 33.5097 28.2475 33.8066 26.4662 33.8882C24.5439 33.9773 23.965 33.9921 19.0889 33.9921C14.2127 33.9921 13.6338 33.9699 11.7115 33.8882C9.93027 33.8066 8.96543 33.5097 8.31973 33.2574C7.46621 32.9234 6.85762 32.53 6.21934 31.8917C5.58106 31.2535 5.1877 30.6449 4.85371 29.7914C4.60137 29.1457 4.30449 28.1808 4.22285 26.3996C4.13379 24.4773 4.11895 23.8984 4.11895 19.0222C4.11895 14.146 4.14121 13.5671 4.22285 11.6449C4.30449 9.86362 4.60137 8.89878 4.85371 8.25307C5.1877 7.39956 5.58106 6.79097 6.21934 6.15268C6.85762 5.5144 7.46621 5.12104 8.31973 4.78706C8.96543 4.53472 9.93027 4.23784 11.7115 4.1562C13.6338 4.06714 14.2127 4.05229 19.0889 4.05229C23.965 4.05229 24.5439 4.06714 26.4662 4.1562Z" fill="white"/>
<path d="M9.71533 19.0223C9.71533 24.2027 13.9161 28.3961 19.0892 28.3961C24.2622 28.3961 28.463 24.1953 28.463 19.0223C28.463 13.8492 24.2696 9.64844 19.0892 9.64844C13.9087 9.64844 9.71533 13.8418 9.71533 19.0223ZM25.1751 19.0223C25.1751 22.3844 22.4513 25.1082 19.0892 25.1082C15.7271 25.1082 13.0032 22.3844 13.0032 19.0223C13.0032 15.6602 15.7271 12.9363 19.0892 12.9363C22.4513 12.9363 25.1751 15.6602 25.1751 19.0223Z" fill="white"/>
<path d="M28.8413 11.4668C30.0505 11.4668 31.0308 10.4865 31.0308 9.27734C31.0308 8.06814 30.0505 7.08789 28.8413 7.08789C27.6321 7.08789 26.6519 8.06814 26.6519 9.27734C26.6519 10.4865 27.6321 11.4668 28.8413 11.4668Z" fill="white"/>
</svg>
