<svg width="58" height="54" viewBox="0 0 58 54" fill="none" xmlns="http://www.w3.org/2000/svg">
<path d="M57.1754 0V0.00276909H33.2607V0.833496H57.1754V14.9558H58.0001V0.833496V0.00276909V0H57.1754Z" fill="#663366"/>
<path d="M53.3271 3.87671V3.87948H7.14697V4.7102H53.3271V32.4011H54.1517V4.7102V3.87948V3.87671H53.3271Z" fill="#663366"/>
<path d="M0.824645 54V53.9972H47.0047V53.1665H0.824645V25.4756H0V53.1665V53.9972V54H0.824645Z" fill="#663366"/>
<path d="M43.9836 29.8617C44.7148 28.7486 45.0804 27.5246 45.0804 26.1872C45.0804 24.6392 44.5142 23.2962 43.3816 22.1526C42.2491 21.0117 40.905 20.4413 39.3546 20.4413H35.4183C36.133 18.9543 36.4931 17.5116 36.4931 16.116C36.4931 14.3576 36.232 12.962 35.7097 11.9236C35.1874 10.8879 34.426 10.1237 33.4282 9.63631C32.4276 9.14895 31.3033 8.90527 30.0499 8.90527C29.2885 8.90527 28.6178 9.18218 28.0378 9.73877C27.3973 10.3701 26.9355 11.1815 26.6523 12.1728C26.3692 13.1641 26.1411 14.1139 25.9706 15.0222C25.8002 15.9305 25.5336 16.5729 25.1762 16.9495C24.445 17.747 23.6479 18.7078 22.782 19.8349C21.2757 21.8037 20.2531 22.9667 19.7171 23.3267H13.5872C12.7956 23.3267 12.1221 23.6091 11.5614 24.1713C11.0006 24.7362 10.7202 25.4146 10.7202 26.2121V40.6335C10.7202 41.431 11.0006 42.1094 11.5586 42.6715C12.1194 43.2337 12.7928 43.5161 13.5845 43.5161H20.0277C20.3548 43.5161 21.3856 43.8152 23.1146 44.4188C24.9481 45.064 26.5644 45.5569 27.958 45.8948C29.3517 46.2326 30.7646 46.4015 32.1967 46.4015H34.2776H35.083C37.1858 46.4015 38.8791 45.7951 40.16 44.5878C41.441 43.3777 42.076 41.7301 42.0622 39.6422C42.9583 38.4847 43.4036 37.1472 43.4036 35.6298C43.4036 35.3002 43.3816 34.9762 43.3377 34.6606C43.9039 33.6554 44.187 32.5727 44.187 31.4152C44.187 30.878 44.1183 30.3574 43.9836 29.8617ZM41.7378 28.0369C41.4162 28.7292 41.0177 29.0809 40.5421 29.0947C40.7648 29.3495 40.9517 29.7067 41.1001 30.1663C41.2486 30.626 41.3228 31.0414 41.3228 31.418C41.3228 32.4536 40.9269 33.348 40.138 34.0984C40.4074 34.5803 40.5421 35.0981 40.5421 35.6519C40.5421 36.2085 40.4129 36.7595 40.1518 37.3078C39.8906 37.8561 39.536 38.2493 39.0907 38.4902C39.165 38.9416 39.2034 39.3625 39.2034 39.7529C39.2034 42.2617 37.7713 43.5161 34.907 43.5161H32.2022C30.2478 43.5161 27.6969 42.9678 24.5523 41.8713C24.478 41.8408 24.2609 41.7633 23.9035 41.6359C23.5462 41.5085 23.2796 41.4144 23.1091 41.3535C22.9387 41.2925 22.6776 41.2067 22.3257 41.0932C21.9739 40.9796 21.6907 40.8966 21.4763 40.8439C21.2592 40.7913 21.0145 40.7415 20.7396 40.6972C20.4648 40.6529 20.2284 40.6307 20.0359 40.6307H19.3213V26.2121H20.0359C20.2751 26.2121 20.539 26.1456 20.8304 26.0099C21.1217 25.8743 21.4186 25.6721 21.7265 25.4007C22.0316 25.1294 22.3202 24.8635 22.5869 24.6005C22.8562 24.3374 23.1531 24.0079 23.483 23.6091C23.8101 23.2104 24.0685 22.8919 24.2554 22.651C24.4423 22.4101 24.676 22.1028 24.9591 21.7262C25.2422 21.3496 25.4126 21.1253 25.4731 21.0505C26.2923 20.0287 26.8668 19.3447 27.1966 18.9986C27.8069 18.3534 28.2522 17.531 28.527 16.5313C28.8019 15.5317 29.0301 14.5902 29.2087 13.7041C29.3874 12.818 29.6705 12.1783 30.0581 11.7879C31.4903 11.7879 32.4441 12.1396 32.9224 12.8457C33.4007 13.5518 33.6371 14.6401 33.6371 16.1132C33.6371 16.9993 33.2797 18.2039 32.5623 19.7296C31.8476 21.2554 31.4903 22.4517 31.4903 23.3239H39.3656C40.1133 23.3239 40.7758 23.6119 41.3558 24.1906C41.9385 24.7694 42.2299 25.4423 42.2299 26.2065C42.2189 26.7382 42.0567 27.3474 41.7378 28.0369Z" fill="#663366"/>
</svg>
