<svg xmlns="http://www.w3.org/2000/svg" viewBox="0 0 25 25"><g><g><path d="M22.74,0H2.26A2.26,2.26,0,0,0,0,2.26V22.74A2.26,2.26,0,0,0,2.26,25H22.74A2.26,2.26,0,0,0,25,22.74V2.26A2.26,2.26,0,0,0,22.74,0Zm-15,21.59a.66.66,0,0,1-.66.65H4.28a.65.65,0,0,1-.66-.65V9.84a.65.65,0,0,1,.66-.65h2.8a.66.66,0,0,1,.66.65ZM5.68,8.08A2.66,2.66,0,1,1,8.34,5.42,2.66,2.66,0,0,1,5.68,8.08Zm16.7,13.56a.6.6,0,0,1-.61.6h-3a.6.6,0,0,1-.61-.6V16.13c0-.82.24-3.6-2.15-3.6-1.85,0-2.23,1.9-2.3,2.76v6.35a.6.6,0,0,1-.61.6H10.2a.6.6,0,0,1-.61-.6V9.79a.6.6,0,0,1,.61-.6h2.9a.6.6,0,0,1,.61.6v1A4.13,4.13,0,0,1,17.59,9c4.81,0,4.79,4.5,4.79,7Z"/></g></g></svg>