<svg width="38" height="38" viewBox="0 0 38 38" fill="none" xmlns="http://www.w3.org/2000/svg">
<path d="M34.5626 0H3.43741C1.539 0 0 1.539 0 3.43741V34.5625C0 36.461 1.539 38 3.43741 38H34.5625C36.461 38 38 36.461 38 34.5625V3.43741C38 1.539 36.461 0 34.5626 0ZM11.7588 32.8117C11.7588 33.3642 11.311 33.812 10.7585 33.812H6.50029C5.9478 33.812 5.49995 33.3642 5.49995 32.8117V14.9616C5.49995 14.4091 5.9478 13.9612 6.50029 13.9612H10.7585C11.311 13.9612 11.7588 14.4091 11.7588 14.9616V32.8117ZM8.62938 12.2786C6.39524 12.2786 4.58407 10.4674 4.58407 8.23327C4.58407 5.99913 6.39524 4.18796 8.62938 4.18796C10.8635 4.18796 12.6747 5.99913 12.6747 8.23327C12.6747 10.4674 10.8636 12.2786 8.62938 12.2786ZM34.012 32.8923C34.012 33.4002 33.6002 33.812 33.0922 33.812H28.5229C28.015 33.812 27.6031 33.4002 27.6031 32.8923V24.5195C27.6031 23.2705 27.9695 19.0463 24.339 19.0463C21.5229 19.0463 20.9517 21.9376 20.837 23.2352V32.8923C20.837 33.4002 20.4253 33.812 19.9173 33.812H15.4979C14.99 33.812 14.5782 33.4002 14.5782 32.8923V14.881C14.5782 14.3731 14.99 13.9612 15.4979 13.9612H19.9173C20.4252 13.9612 20.837 14.3731 20.837 14.881V16.4383C21.8812 14.8712 23.4331 13.6617 26.7372 13.6617C34.0539 13.6617 34.012 20.4973 34.012 24.2532V32.8923Z" fill="white"/>
</svg>
