<svg width="30" height="28" viewBox="0 0 30 28" fill="none" xmlns="http://www.w3.org/2000/svg">
<path d="M29.5738 0H17.2041V0.42654H29.5738V7.67772H30.0003V0.42654V0H29.5738Z" fill="#663366"/>
<path d="M27.5825 1.99051H3.69629V2.41705H27.5825V16.6351H28.0091V2.41705V1.99051H27.5825Z" fill="#663366"/>
<path d="M0.42654 27.7251H24.3128V27.2986H0.42654V13.0806H0V27.2986V27.7251H0.42654Z" fill="#663366"/>
<path d="M6.14708 8.67297C9.25331 8.67297 8.56937 8.67297 11.6756 8.67297C13.6134 8.67297 19.8116 8.67297 21.7495 8.67297C21.6782 9.0003 21.6355 9.32763 21.6212 9.66919C19.2132 9.66919 13.3 9.66919 9.78051 9.66919C8.54087 9.66919 7.31547 9.66919 6.07583 9.66919C5.42039 9.66919 4.90743 10.0392 4.7507 10.6369C4.70795 10.7793 4.70795 10.9358 4.70795 11.0781C4.70795 14.3941 4.7222 17.7101 4.6937 21.0119C4.6937 21.8373 5.29215 22.4777 6.16132 22.4777C9.26756 22.4635 8.58361 22.4635 11.6898 22.4635C14.8103 22.4635 17.9308 22.4635 21.037 22.4635C21.7352 22.4635 22.2482 22.0935 22.4049 21.4815C22.4334 21.3534 22.4477 21.2253 22.4477 21.083C22.4477 18.9767 22.4477 14.451 22.4477 12.3448C22.7896 12.3305 23.1316 12.2878 23.4593 12.2167C23.4593 14.3657 23.4593 18.9198 23.4593 21.0546C23.4593 22.4635 22.4762 23.4597 21.0513 23.4597C14.8103 23.4597 12.3738 23.4597 6.14708 23.4597C4.7222 23.4597 3.69629 22.4208 3.69629 21.0119C3.69629 17.7101 3.69629 14.4083 3.69629 11.1066C3.69629 9.65496 4.67945 8.67297 6.14708 8.67297Z" fill="#663366"/>
<path d="M13.7207 16.3507C11.4031 16.3507 9.52637 18.7064 9.52637 21.6114H17.915C17.9008 18.7064 16.024 16.3507 13.7207 16.3507Z" fill="#663366"/>
<path d="M13.8626 15.0711C15.1582 15.0711 16.2086 14.0526 16.2086 12.7962C16.2086 11.5398 15.1582 10.5213 13.8626 10.5213C12.5669 10.5213 11.5166 11.5398 11.5166 12.7962C11.5166 14.0526 12.5669 15.0711 13.8626 15.0711Z" fill="#663366"/>
<path d="M24.2505 7.70671C24.0498 7.69242 23.9351 7.67812 23.8204 7.67812C22.5158 7.67812 19.8921 7.67812 18.5875 7.67812C18.1861 7.67812 17.971 7.52086 17.928 7.23492C17.8563 6.83462 18.0857 6.54868 18.5158 6.54868C19.1323 6.53439 21.0821 6.54868 21.6986 6.54868C22.4154 6.54868 23.1322 6.54868 23.8491 6.54868C23.9494 6.54868 24.0641 6.53439 24.2362 6.53439C24.1215 6.40572 24.0641 6.30564 23.9924 6.23416C23.505 5.73377 23.0032 5.2191 22.5014 4.71871C22.1717 4.38989 22.143 4.03247 22.4297 3.74654C22.7021 3.4749 23.0892 3.4892 23.4046 3.80373C24.3509 4.74731 25.2827 5.67659 26.2146 6.62017C26.53 6.93469 26.5157 7.27781 26.2146 7.59234C25.2827 8.53592 24.3509 9.4795 23.419 10.4231C23.0749 10.7662 22.5731 10.7376 22.3437 10.3659C22.1717 10.0943 22.229 9.80832 22.5014 9.52239C23.0032 9.00771 23.505 8.50733 24.0068 7.99265C24.0641 7.92116 24.1358 7.83538 24.2505 7.70671Z" fill="#663366"/>
</svg>
