<svg width="24" height="23" viewBox="0 0 24 23" fill="none" xmlns="http://www.w3.org/2000/svg">
<path d="M7.50184 13.668L0.0551758 21.1927L1.84314 23L9.2898 15.4753L7.50184 13.668Z" fill="#B3B3B3"/>
<path d="M14.816 16.7565C10.2465 16.7565 6.52588 12.9963 6.52588 8.37825C6.52588 3.76018 10.2465 0 14.816 0C19.3856 0 23.1062 3.76018 23.1062 8.37825C23.1062 12.9963 19.3856 16.7565 14.816 16.7565ZM14.816 1.369C11.0051 1.369 7.89854 4.50856 7.89854 8.36C7.89854 12.2114 11.0051 15.351 14.816 15.351C18.627 15.351 21.7336 12.2114 21.7336 8.36C21.7336 4.50856 18.627 1.369 14.816 1.369Z" fill="#B3B3B3"/>
</svg>
