<svg xmlns="http://www.w3.org/2000/svg" viewBox="0 0 174.06 188.73"><g id="Layer_2" data-name="Layer 2"><g id="Layer_1-2" data-name="Layer 1"><path class="cls-1" d="M99,19.8a76.06,76.06,0,0,1,57,42.93l18-8.66A96.78,96.78,0,0,0,101.78,0Z"/><path class="cls-1" d="M75.06,168.94A76.1,76.1,0,0,1,18,126L0,134.66a96.78,96.78,0,0,0,72.28,54.07Z"/><path class="cls-1" d="M72.6,48.54a47.34,47.34,0,0,1,59.92,54.85L152.27,107A66.28,66.28,0,0,0,67.43,31.61Z"/><path class="cls-1" d="M100.36,139A47.34,47.34,0,0,1,41.15,79.26l-16.7-5.75a66.27,66.27,0,0,0,81.86,84.79Z"/></g></g></svg>