<svg width="105" height="97" viewBox="0 0 105 97" fill="none" xmlns="http://www.w3.org/2000/svg">
<path d="M103.507 0V0.0049741H60.2134V1.49721H103.507V26.8651H105V1.49721V0.0049741V0H103.507Z" fill="#663366"/>
<path d="M96.5404 6.96375V6.96872H12.9385V8.46095H96.5404V58.202H98.0333V8.46095V6.96872V6.96375H96.5404Z" fill="#663366"/>
<path d="M1.49289 97V96.995H85.0948V95.5028H1.49289V45.7617H0V95.5028V96.995V97H1.49289Z" fill="#663366"/>
<path d="M76.1128 45.2992C80.5183 45.2992 84.0898 41.7293 84.0898 37.3257C84.0898 32.922 80.5183 29.3522 76.1128 29.3522C71.7072 29.3522 68.1357 32.922 68.1357 37.3257C68.1357 41.7293 71.7072 45.2992 76.1128 45.2992Z" fill="#663366"/>
<path d="M22.896 44.8067C27.3015 44.8067 30.873 41.2369 30.873 36.8332C30.873 32.4296 27.3015 28.8597 22.896 28.8597C18.4904 28.8597 14.9189 32.4296 14.9189 36.8332C14.9189 41.2369 18.4904 44.8067 22.896 44.8067Z" fill="#663366"/>
<path d="M76.1128 50.8304C72.5149 50.8304 68.713 52.5366 66.1851 55.2176C69.6685 59.1969 71.5545 63.6437 72.5298 68.6527H90.5689C90.5689 58.8089 84.0997 50.8304 76.1128 50.8304Z" fill="#663366"/>
<path d="M49.0068 53.3771C38.1535 53.3771 29.3604 64.2206 29.3604 77.601H68.6582C68.6582 64.2206 59.8601 53.3771 49.0068 53.3771Z" fill="#663366"/>
<path d="M22.8961 50.328C14.9141 50.328 8.43994 58.3065 8.43994 68.1502H26.479C27.4594 63.1413 29.3603 58.6994 32.8437 54.7201C30.3158 52.0391 26.494 50.328 22.8961 50.328Z" fill="#663366"/>
<path d="M49.5044 47.3585C55.4903 47.3585 60.3428 42.5081 60.3428 36.5249C60.3428 30.5417 55.4903 25.6913 49.5044 25.6913C43.5185 25.6913 38.666 30.5417 38.666 36.5249C38.666 42.5081 43.5185 47.3585 49.5044 47.3585Z" fill="#663366"/>
</svg>
